<?xml version="1.0" encoding="utf-8"?>
<!-- Generated by IcoMoon.io -->
<!DOCTYPE svg PUBLIC "-//W3C//DTD SVG 1.1//EN" "http://www.w3.org/Graphics/SVG/1.1/DTD/svg11.dtd">
<svg version="1.1" xmlns="http://www.w3.org/2000/svg" xmlns:xlink="http://www.w3.org/1999/xlink" width="16" height="16" viewBox="0 0 16 16">
<g>
</g>
	<path d="M2.667 1.333h10.667q0.828 0 1.414 0.586t0.586 1.414v6.667q0 0.828-0.586 1.414t-1.414 0.586h-1.667l-1-1.333h2.667q0.276 0 0.471-0.195t0.195-0.471v-6.667q0-0.276-0.195-0.471t-0.471-0.195h-10.667q-0.276 0-0.471 0.195t-0.195 0.471v6.667q0 0.276 0.195 0.471t0.471 0.195h2.667l-1 1.333h-1.667q-0.828 0-1.414-0.586t-0.586-1.414v-6.667q0-0.828 0.586-1.414t1.414-0.586zM9.333 13.333l-1.333-1.776-1.333 1.776h2.667zM4 14.667l4-5.333 4 5.333h-8z" fill="#000000"></path>
</svg>
