<?xml version="1.0" encoding="utf-8"?> <!-- Generator: IcoMoon.io --> <!DOCTYPE svg PUBLIC "-//W3C//DTD SVG 1.1//EN" "http://www.w3.org/Graphics/SVG/1.1/DTD/svg11.dtd"> <svg width="16" height="16" viewBox="0 0 16 16" xmlns="http://www.w3.org/2000/svg" xmlns:xlink="http://www.w3.org/1999/xlink" fill="#000000"><g><path d="M 12.957,6.572C 12.739,4.29, 10.839,2.5, 8.5,2.5 c-1.81,0-3.358,1.074-4.073,2.615C 4.212,5.047, 3.988,5, 3.751,5c-1.242,0-2.25,1.008-2.25,2.25c0,0.247, 0.050,0.48, 0.123,0.702 c-0.967,0.564-1.623,1.597-1.623,2.797c0,1.795, 1.455,3.25, 3.25,3.25L 3.251,14 L 12.25,14 l0-0.001 c 2.071,0, 3.75-1.679, 3.75-3.75 C 16,8.421, 14.69,6.902, 12.957,6.572z M 12.25,12.999L 12.25,13 L 3.251,13 c-1.24-0.001-2.25-1.010-2.25-2.251c0-0.8, 0.421-1.522, 1.127-1.933 c 0.685-0.394, 0.733-0.471, 0.445-1.179c-0.049-0.145-0.072-0.272-0.072-0.387c0-0.69, 0.56-1.25, 1.25-1.25c0,0, 0.328-0.024, 0.676,0.115 c 0.574,0.229, 0.636,0.010, 0.907-0.58C 5.907,4.3, 7.15,3.5, 8.5,3.5c 1.8,0, 3.288,1.361, 3.462,3.167c 0.061,0.716, 0.061,0.716, 0.807,0.886 C 14.063,7.801, 15,8.934, 15,10.249C 15,11.765, 13.767,12.999, 12.25,12.999z"></path></g></svg>