<?xml version="1.0" encoding="utf-8"?> <!-- Generator: IcoMoon.io --> <!DOCTYPE svg PUBLIC "-//W3C//DTD SVG 1.1//EN" "http://www.w3.org/Graphics/SVG/1.1/DTD/svg11.dtd"> <svg width="512" height="512" viewBox="0 0 512 512" xmlns="http://www.w3.org/2000/svg" xmlns:xlink="http://www.w3.org/1999/xlink" fill="#000000"><path d="M 416,272q0,36 15,64.75t 38.5,40.75q-22,57 -54,95.75t-63.5,38.75q-13.5,0 -26.75-8l-26.5-16t-26.75-8t-26.75,8l-26.5,16t-26.75,8q-25,0 -49.5-26.5t-41.25-65.5t-27-83.25t-10.25-80.75q0-53 37.5-90.5t 90.5-37.5q 13.5,0 28.5,8t 28.25,16t 23.25,8q 11,0 24.25-8t 27.75-16t 28-8 q 29,0 57.25,12.25t 49.75,33.25q-19.5,14.5 -31.25,40.75t-11.75,57.75zM 272,112q-1-18.5 7.75-39.25t 26.5-38.25t 38.5-26.5t 39.25-8q 1,18.5 -7.75,39.25t-26.5,38.5t-38.5,26.75t-39.25,7.5z" ></path></svg>