<?xml version="1.0" encoding="utf-8"?> <!-- Generator: IcoMoon.io --> <!DOCTYPE svg PUBLIC "-//W3C//DTD SVG 1.1//EN" "http://www.w3.org/Graphics/SVG/1.1/DTD/svg11.dtd"> <svg width="512" height="512" viewBox="0 0 512 512" xmlns="http://www.w3.org/2000/svg" xmlns:xlink="http://www.w3.org/1999/xlink" fill="#000000"><path d="M 437,437l-22.5-22.5q 31-31 48.25-71.75t 17.25-86.5t-17.25-86.5t-48.25-71.75l 22.5-23q 35.5,35.5 55.25,82.25t 19.75,99t-19.75,99t-55.25,81.75zM 380.5,380.5l-22.5-22.5q 42-42 42-101.75t-42-101.75l 22.5-22.5q 24.5,24 38,56.25t 13.5,68t-13.5,68t-38,56.25zM 282.5,506l-122.5-121.5l0-256 l 122.5-122 q 15-15 37.5,8l0,484 q-22.5,22.5 -37.5,7.5zM 128,384.5l-96,0 q-13.5,0 -22.75-9.5t-9.25-22.5l0-192.5 q0-13 9.25-22.5t 22.75-9.5l 96,0 l0,256.5 z" ></path></svg>