<?xml version="1.0" encoding="utf-8"?> <!-- Generator: IcoMoon.io --> <!DOCTYPE svg PUBLIC "-//W3C//DTD SVG 1.1//EN" "http://www.w3.org/Graphics/SVG/1.1/DTD/svg11.dtd"> <svg width="512" height="512" viewBox="0 0 512 512" xmlns="http://www.w3.org/2000/svg" xmlns:xlink="http://www.w3.org/1999/xlink" fill="#000000"><path d="M 496,320l-48,0 l0,64 q0,26.5 -18.75,45.25t-45.25,18.75l-320,0 q-26.5,0 -45.25-18.75t-18.75-45.25l0-256 q0-26.5 18.75-45.25t 45.25-18.75l 320,0 q 26.5,0 45.25,18.75t 18.75,45.25l0,64 l 48,0 q 6.5,0 11.25,4.75t 4.75,11.25l0,96 q0,6.5 -4.75,11.25t-11.25,4.75zM 384,157q0-12 -8.5-20.5t-21-8.5l-261,0 q-12.5,0 -21,8.5t-8.5,20.5l0,198 q0,12 8.5,20.5t 21,8.5l 261,0 q 12.5,0 21-8.5t 8.5-20.5l0-198 zM 192,256l-96,0 l 160-64l0,64 l 96,0 l-160,64l0-64 z" ></path></svg>