<?xml version="1.0" encoding="utf-8"?> <!-- Generator: IcoMoon.io --> <!DOCTYPE svg PUBLIC "-//W3C//DTD SVG 1.1//EN" "http://www.w3.org/Graphics/SVG/1.1/DTD/svg11.dtd"> <svg width="500.00000000000006" height="500" viewBox="0 0 500 500" xmlns="http://www.w3.org/2000/svg" xmlns:xlink="http://www.w3.org/1999/xlink" fill="#000000"><path d="M 246.925,20.025c-127,1.7-228.6,106.050-226.9,233.075c 1.7,126.95, 106.050,228.575, 233.050,226.875 c 127-1.7, 228.6-106.050, 226.9-233.075C 478.3,119.925, 373.925,18.325, 246.925,20.025z M 272.425,96.675c 23.375,0, 30.275,13.55, 30.275,29.075 c0,19.375-15.525,37.3-42,37.3c-22.15,0-32.675-11.15-32.050-29.55C 228.65,117.975, 241.65,96.675, 272.425,96.675z M 212.475,393.75 c-15.975,0-27.675-9.7-16.5-52.35l 18.325-75.6c 3.175-12.125, 3.7-16.975,0-16.975c-4.775,0-25.525,8.375-37.8,16.625l-7.975-13.075 c 38.875-32.45, 83.575-51.5, 102.725-51.5c 15.975,0, 18.625,18.9, 10.65,47.975l-21,79.5c-3.7,14.050-2.1,18.9, 1.6,18.9 c 4.775,0, 20.5-5.8, 35.95-17.95l 9.025,12.125C 269.7,379.2, 228.475,393.75, 212.475,393.75z" ></path></svg>