<?xml version="1.0" encoding="utf-8"?> <!-- Generator: IcoMoon.io --> <!DOCTYPE svg PUBLIC "-//W3C//DTD SVG 1.1//EN" "http://www.w3.org/Graphics/SVG/1.1/DTD/svg11.dtd"> <svg width="512" height="512" viewBox="0 0 512 512" xmlns="http://www.w3.org/2000/svg" xmlns:xlink="http://www.w3.org/1999/xlink" fill="#000000"><path d="M 496.00,192.00L 320.00,192.00 L 320.00,16.00 c0.00-8.836-7.164-16.00-16.00-16.00l-96.00,0.00 c-8.836,0.00-16.00,7.164-16.00,16.00l0.00,176.00 L 16.00,192.00 c-8.836,0.00-16.00,7.164-16.00,16.00l0.00,96.00 c0.00,8.836, 7.164,16.00, 16.00,16.00l 176.00,0.00 l0.00,176.00 c0.00,8.836, 7.164,16.00, 16.00,16.00l 96.00,0.00 c 8.836,0.00, 16.00-7.164, 16.00-16.00L 320.00,320.00 l 176.00,0.00 c 8.836,0.00, 16.00-7.164, 16.00-16.00l0.00-96.00 C 512.00,199.164, 504.836,192.00, 496.00,192.00z" ></path></svg>