<?xml version="1.0" encoding="utf-8"?> <!-- Generator: IcoMoon.io --> <!DOCTYPE svg PUBLIC "-//W3C//DTD SVG 1.1//EN" "http://www.w3.org/Graphics/SVG/1.1/DTD/svg11.dtd"> <svg width="512" height="512" viewBox="0 0 512 512" xmlns="http://www.w3.org/2000/svg" xmlns:xlink="http://www.w3.org/1999/xlink" fill="#000000"><path d="M 448.00,128.00l-96.00,0.00 L 352.00,64.00 c0.00-17.60-14.40-32.00-32.00-32.00L 192.00,32.00 c-17.60,0.00-32.00,14.40-32.00,32.00l0.00,64.00 L 64.00,128.00 c-35.20,0.00-64.00,28.80-64.00,64.00l0.00,256.00 c0.00,35.20, 28.80,64.00, 64.00,64.00l 384.00,0.00 c 35.20,0.00, 64.00-28.80, 64.00-64.00L 512.00,192.00 C 512.00,156.80, 483.20,128.00, 448.00,128.00z M 192.00,64.00l 128.00,0.00 l0.00,64.00 L 192.00,128.00 L 192.00,64.00 z M 384.00,352.00l-96.00,0.00 l0.00,96.00 l-64.00,0.00 l0.00-96.00 l-96.00,0.00 l0.00-64.00 l 96.00,0.00 l0.00-96.00 l 64.00,0.00 l0.00,96.00 l 96.00,0.00 L 384.00,352.00 z" ></path></svg>