<?xml version="1.0" encoding="utf-8"?> <!-- Generator: IcoMoon.io --> <!DOCTYPE svg PUBLIC "-//W3C//DTD SVG 1.1//EN" "http://www.w3.org/Graphics/SVG/1.1/DTD/svg11.dtd"> <svg width="512" height="512" viewBox="0 0 512 512" xmlns="http://www.w3.org/2000/svg" xmlns:xlink="http://www.w3.org/1999/xlink" fill="#000000"><path d="M 502,160l-9,0 q-19.5-48 -56.25-84.75t-84.75-55.75l0-9.5 q 7.5-10 32-10q 53,0 90.5,37.5t 37.5,90.5q0,24.5 -10,32zM 480,288q0,77 -47.5,138l 47.5,65.5l-20.5,20.5l-65.5-47.5q-61,47.5 -138,47.5t-138-47.5l-65.5,47.5l-20.5-20.5l 47.5-65.5q-47.5-61 -47.5-138q0-45.5 17.75-87t 47.75-71.5t 71.5-47.75 t 87-17.75t 87,17.75t 71.5,47.75t 47.75,71.5t 17.75,87zM 256,128q-43.5,0 -80.25,21.5t-58.25,58.25t-21.5,80.25t 21.5,80.25t 58.25,58.25t 80.25,21.5t 80.25-21.5t 58.25-58.25t 21.5-80.25t-21.5-80.25t-58.25-58.25t-80.25-21.5zM 336,224l-49,71.5q-2.5,10.5 -11.25,17.5t-19.75,7t-19.5-6.5 t-11-17l-65.5-88.5l0-16 l 16,0 l 80.5,59.5l 63.5-43.5l0,0 l 16,0 l0,16 l0,0 zM 19,160l-9,0 q-10-7.5 -10-32q0-53 37.5-90.5t 90.5-37.5q 24.5,0 32,10l0,9.5 q-48,19.5 -84.75,56t-56.25,84.5z" ></path></svg>