<?xml version="1.0" encoding="utf-8"?> <!-- Generator: IcoMoon.io --> <!DOCTYPE svg PUBLIC "-//W3C//DTD SVG 1.1//EN" "http://www.w3.org/Graphics/SVG/1.1/DTD/svg11.dtd"> <svg width="16" height="16" viewBox="0 0 16 16" xmlns="http://www.w3.org/2000/svg" xmlns:xlink="http://www.w3.org/1999/xlink" fill="#000000"><g><path d="M 16,14q0,0.406 -0.289,0.703t-0.711,0.297l-14,0 q-0.422,0 -0.711-0.297t-0.289-0.703q0-0.266 0.141-0.5l 6.859-11.5q 0.125-0.281 0.18-0.375t 0.188-0.289t 0.281-0.266t 0.352-0.070q 0.266,0 0.461,0.156t 0.297,0.336t 0.242,0.508l 6.859,11.5q 0.141,0.234 0.141,0.5zM 9,6q0-0.422 -0.289-0.711t-0.711-0.289t-0.711,0.289t-0.289,0.711l0,3 q0,0.406 0.297,0.703 t 0.703,0.297t 0.703-0.297t 0.297-0.703l0-3 zM 7.992,11q-0.414,0 -0.703,0.289t-0.289,0.703t 0.297,0.711t 0.703,0.297t 0.703-0.297t 0.297-0.711t-0.297-0.703t-0.711-0.289z"></path></g></svg>