<?xml version="1.0" encoding="utf-8"?>
<!-- Generated by IcoMoon.io -->
<!DOCTYPE svg PUBLIC "-//W3C//DTD SVG 1.1//EN" "http://www.w3.org/Graphics/SVG/1.1/DTD/svg11.dtd">
<svg version="1.1" xmlns="http://www.w3.org/2000/svg" xmlns:xlink="http://www.w3.org/1999/xlink" width="16" height="16" viewBox="0 0 16 16">
<g id="icomoon-ignore">
	<line stroke-width="1" x1="" y1="" x2="" y2="" stroke="#449FDB" opacity=""></line>
</g>
	<path d="M7.297 15.703l-7-7.047q-0.297-0.297-0.297-0.719t0.297-0.703l1.406-1.438q0.297-0.297 0.711-0.297t0.711 0.297l2.875 2.891v-7.672q0-0.406 0.289-0.703t0.711-0.297h1.984q0.422 0 0.711 0.297t0.289 0.703v7.688l2.891-2.906q0.297-0.297 0.711-0.297t0.711 0.297l1.406 1.438q0.297 0.281 0.297 0.703t-0.297 0.719l-7 7.047q-0.281 0.297-0.703 0.297t-0.703-0.297z" fill="#000000"></path>
</svg>
