<?xml version="1.0" encoding="utf-8"?>
<!-- Generated by IcoMoon.io -->
<!DOCTYPE svg PUBLIC "-//W3C//DTD SVG 1.1//EN" "http://www.w3.org/Graphics/SVG/1.1/DTD/svg11.dtd">
<svg version="1.1" xmlns="http://www.w3.org/2000/svg" xmlns:xlink="http://www.w3.org/1999/xlink" width="16" height="16" viewBox="0 0 16 16">
<g id="icomoon-ignore">
	<line stroke-width="1" x1="" y1="" x2="" y2="" stroke="#449FDB" opacity=""></line>
</g>
	<path d="M8.703 0.313l7 7.063q0.297 0.297 0.297 0.711t-0.297 0.711l-1.406 1.422q-0.297 0.297-0.711 0.297t-0.711-0.297l-2.875-2.891v7.672q0 0.422-0.289 0.711t-0.711 0.289h-1.984q-0.422 0-0.711-0.289t-0.289-0.711v-7.688l-2.891 2.906q-0.297 0.297-0.711 0.297t-0.711-0.297l-1.406-1.422q-0.297-0.297-0.297-0.711t0.297-0.711l7-7.063q0.281-0.297 0.703-0.297t0.703 0.297z" fill="#000000"></path>
</svg>
