<?xml version="1.0" encoding="utf-8"?> <!-- Generator: IcoMoon.io --> <!DOCTYPE svg PUBLIC "-//W3C//DTD SVG 1.1//EN" "http://www.w3.org/Graphics/SVG/1.1/DTD/svg11.dtd"> <svg width="512" height="512" viewBox="0 0 512 512" xmlns="http://www.w3.org/2000/svg" xmlns:xlink="http://www.w3.org/1999/xlink" fill="#000000"><path d="M 208.00,160.00L 80.00,160.00 c-8.848,0.00-16.00,7.152-16.00,16.00l0.00,160.00 c0.00,8.848, 7.152,16.00, 16.00,16.00l 224.00,0.00 c 8.848,0.00, 16.00-7.152, 16.00-16.00 l-96.00-160.00C 224.00,167.152, 216.848,160.00, 208.00,160.00zM 496.00,160.00l-48.00,0.00 L 448.00,112.00 c0.00-8.848-7.152-16.00-16.00-16.00L 16.00,96.00 C 7.152,96.00,0.00,103.152,0.00,112.00l0.00,288.00 c0.00,8.848, 7.152,16.00, 16.00,16.00 l 416.00,0.00 c 8.848,0.00, 16.00-7.152, 16.00-16.00l0.00-48.00 l 48.00,0.00 c 8.848,0.00, 16.00-7.152, 16.00-16.00L 512.00,176.00 C 512.00,167.152, 504.848,160.00, 496.00,160.00z M 416.00,368.00c0.00,8.848-7.152,16.00-16.00,16.00L 48.00,384.00 c-8.848,0.00-16.00-7.152-16.00-16.00L 32.00,144.00 c0.00-8.848, 7.152-16.00, 16.00-16.00l 352.00,0.00 c 8.848,0.00, 16.00,7.152, 16.00,16.00L 416.00,368.00 z" ></path></svg>