<?xml version="1.0" encoding="utf-8"?> <!-- Generator: IcoMoon.io --> <!DOCTYPE svg PUBLIC "-//W3C//DTD SVG 1.1//EN" "http://www.w3.org/Graphics/SVG/1.1/DTD/svg11.dtd"> <svg width="512" height="512" viewBox="0 0 512 512" xmlns="http://www.w3.org/2000/svg" xmlns:xlink="http://www.w3.org/1999/xlink" fill="#000000"><path d="M 400.5,192l 48,51.5l-67.5,21l 16,68.5l-63.5-14.5l 51,162.5q0,16.5 -14,26l-26-26l-31,31q-11-2.5 -18-11.25t-7-19.75l-32.5-103l-32,103q0,11 -7,19.75t-18,11.25l-31-31l-26,26q-14-9.5 -14-26l 51-162.5l-63.5,14.5l 16-68.5l-67.5-21l 48-51.5l-48-51.5l 67.5-20.5l-16-68.5l 68.5,16 l 20.5-67.5l 51.5,48l 51.5-48l 21,67.5l 68.5-16l-16,68.5l 67.5,20.5zM 256.25,96q-39.75,0 -68,28.25t-28.25,68t 28.25,68t 68,28.25t 68-28.25t 28.25-68t-28.25-68t-68-28.25z" ></path></svg>