<?xml version="1.0" encoding="utf-8"?>
<!-- Generated by IcoMoon.io -->
<!DOCTYPE svg PUBLIC "-//W3C//DTD SVG 1.1//EN" "http://www.w3.org/Graphics/SVG/1.1/DTD/svg11.dtd">
<svg version="1.1" xmlns="http://www.w3.org/2000/svg" xmlns:xlink="http://www.w3.org/1999/xlink" width="16" height="16" viewBox="0 0 16 16">
<g>
	<line stroke-width="1" x1="" y1="" x2="" y2="" stroke="#449FDB" opacity=""></line>
</g>
	<path d="M8 16q-1.625 0-3.109-0.633t-2.555-1.703-1.703-2.555-0.633-3.109 0.633-3.109 1.703-2.555 2.555-1.703 3.109-0.633 3.109 0.633 2.555 1.703 1.703 2.555 0.633 3.109-0.633 3.109-1.703 2.555-2.555 1.703-3.109 0.633zM8 2q-1.625 0-3.008 0.805t-2.188 2.188-0.805 3.008 0.805 3.008 2.188 2.188 3.008 0.805 3.008-0.805 2.188-2.188 0.805-3.008-0.805-3.008-2.188-2.188-3.008-0.805zM8.969 10.313q-0.063 0.266-0.219 0.422-0.297 0.297-0.75 0.25-0.438 0.047-0.734-0.25-0.156-0.156-0.234-0.438l-2.766-2.766q-0.266-0.266-0.266-0.641t0.266-0.641 0.641-0.266 0.641 0.266l2.453 2.469 2.469-2.469q0.266-0.266 0.641-0.266t0.641 0.266 0.266 0.641-0.266 0.641z" fill="#000000"></path>
</svg>
