<?xml version="1.0" encoding="utf-8"?> <!-- Generator: IcoMoon.io --> <!DOCTYPE svg PUBLIC "-//W3C//DTD SVG 1.1//EN" "http://www.w3.org/Graphics/SVG/1.1/DTD/svg11.dtd"> <svg width="512" height="512" viewBox="0 0 512 512" xmlns="http://www.w3.org/2000/svg" xmlns:xlink="http://www.w3.org/1999/xlink" fill="#000000"><path d="M 256,512q-52,0 -99.5-20.25t-81.75-54.5t-54.5-81.75t-20.25-99.5t 20.25-99.5t 54.5-81.75t 81.75-54.75t 99.5-20.5t 99.5,20.5t 81.75,54.75t 54.5,81.75t 20.25,99.5t-20.25,99.5t-54.5,81.75t-81.75,54.5t-99.5,20.25zM 256,64q-52,0 -96.25,25.5t-70,69.75t-25.75,96.5t 25.75,96.5t 70,70 t 96.25,25.75t 96.25-25.75t 70-70t 25.75-96.5t-25.75-96.5t-70-69.75t-96.25-25.5zM 352,176l-65.5,88.5q-2.5,10 -11,16.75t-19.5,6.75q-10.5,0 -19-6.5t-11.5-16l-97.5-121.5l0-0.5 l0-15.5 l 16,0 l 112.5,90.5l 79.5-58.5l0,0 l 16,0 l0,16 l0,0 z" ></path></svg>