<?xml version="1.0" encoding="utf-8"?> <!-- Generator: IcoMoon.io --> <!DOCTYPE svg PUBLIC "-//W3C//DTD SVG 1.1//EN" "http://www.w3.org/Graphics/SVG/1.1/DTD/svg11.dtd"> <svg width="512" height="512" viewBox="0 0 512 512" xmlns="http://www.w3.org/2000/svg" xmlns:xlink="http://www.w3.org/1999/xlink" fill="#000000"><path d="M 435.664,236.4c-21.984-60.912-75.6-107.664-142.256-122.544 c 17.072-24.512, 45.376-40.624, 77.52-40.624c 52.224,0, 94.544,42.336, 94.544,94.56C 465.472,194.896, 453.92,219.168, 435.664,236.4z M 253.824,76.784 l0,59.456 c 90.72,3.696, 163.184,78.208, 163.184,169.824c0,38.272-12.784,73.472-34.080,101.872l 39.424,68.304l-32.752,18.928l-33.744-58.464 c-29.536,24.688-67.536,39.584-109.024,39.584c-41.264,0-79.088-14.704-108.544-39.12L 103.648,497.12l-32.752-18.928l 40.256-69.696 c-21.568-28.512-34.496-63.92-34.496-102.432c0-91.008, 71.488-165.104, 161.344-169.728L 238,76.784 c-9.168-3.28-15.824-11.84-15.824-22.16 c0-13.12, 10.64-23.744, 23.744-23.744c 13.12,0, 23.76,10.64, 23.76,23.744C 269.664,64.944, 263.008,73.504, 253.824,76.784z M 114.448,306.064 c0,73.12, 59.264,132.368, 132.368,132.368c 73.088,0, 132.368-59.248, 132.368-132.368c0-73.088-59.28-132.352-132.368-132.352 C 173.712,173.696, 114.448,232.976, 114.448,306.064z M 286.496,334.688l-47.504,0 c-8.752,0-15.84-7.088-15.84-15.84l0-63.344 c0-8.752, 7.088-15.84, 15.84-15.84c 8.736,0, 15.824,7.088, 15.824,15.84l0,47.504 l 31.664,0 c 8.752,0, 15.84,7.088, 15.84,15.84 S 295.248,334.688, 286.496,334.688z M 60.352,236.4c-18.272-17.248-29.824-41.504-29.824-68.608c0-52.224, 42.336-94.56, 94.56-94.56 c 32.128,0, 60.416,16.112, 77.52,40.624C 135.952,128.736, 82.336,175.488, 60.352,236.4z" ></path></svg>