<?xml version="1.0" encoding="utf-8"?> <!-- Generator: IcoMoon.io --> <!DOCTYPE svg PUBLIC "-//W3C//DTD SVG 1.1//EN" "http://www.w3.org/Graphics/SVG/1.1/DTD/svg11.dtd"> <svg width="512" height="512" viewBox="0 0 512 512" xmlns="http://www.w3.org/2000/svg" xmlns:xlink="http://www.w3.org/1999/xlink" fill="#000000"><path d="M 432.00,0.00L 48.00,0.00 C 21.60,0.00,0.00,21.60,0.00,48.00l0.00,416.00 c0.00,26.40, 21.60,48.00, 48.00,48.00l 384.00,0.00 c 26.40,0.00, 48.00-21.60, 48.00-48.00L 480.00,48.00 C 480.00,21.60, 458.40,0.00, 432.00,0.00z M 416.00,448.00L 64.00,448.00 L 64.00,64.00 l 352.00,0.00 L 416.00,448.00 zM 128.00,224.00L 352.00,224.00L 352.00,256.00L 128.00,256.00zM 128.00,288.00L 352.00,288.00L 352.00,320.00L 128.00,320.00zM 128.00,352.00L 352.00,352.00L 352.00,384.00L 128.00,384.00zM 128.00,160.00L 352.00,160.00L 352.00,192.00L 128.00,192.00z" ></path></svg>