<?xml version="1.0" encoding="utf-8"?>
<!-- Generated by IcoMoon.io -->
<!DOCTYPE svg PUBLIC "-//W3C//DTD SVG 1.1//EN" "http://www.w3.org/Graphics/SVG/1.1/DTD/svg11.dtd">
<svg version="1.1" xmlns="http://www.w3.org/2000/svg" xmlns:xlink="http://www.w3.org/1999/xlink" width="16" height="16" viewBox="0 0 16 16">
<path fill="#000000" d="M14 16h-12q-0.406 0-0.703-0.289t-0.297-0.711v-14q0-0.406 0.297-0.703t0.703-0.297h12q0.422 0 0.711 0.297t0.289 0.703v14q0 0.422-0.289 0.711t-0.711 0.289zM7.5 13h1q0.203 0 0.352-0.148t0.148-0.352-0.148-0.352-0.352-0.148h-1q-0.203 0-0.352 0.148t-0.148 0.352 0.148 0.352 0.352 0.148zM3.5 13h2q0.203 0 0.352-0.148t0.148-0.352-0.148-0.352-0.352-0.148h-2q-0.203 0-0.352 0.148t-0.148 0.352 0.148 0.352 0.352 0.148zM3.5 10h5q0.203 0 0.352-0.148t0.148-0.352-0.148-0.352-0.352-0.148h-5q-0.203 0-0.352 0.148t-0.148 0.352 0.148 0.352 0.352 0.148zM3.5 7h2q0.203 0 0.352-0.148t0.148-0.352-0.148-0.352-0.352-0.148h-2q-0.203 0-0.352 0.148t-0.148 0.352 0.148 0.352 0.352 0.148zM7.5 3h-4q-0.203 0-0.352 0.148t-0.148 0.352 0.148 0.352 0.352 0.148h4q0.203 0 0.352-0.148t0.148-0.352-0.148-0.352-0.352-0.148zM12.5 3h-3q-0.203 0-0.352 0.148t-0.148 0.352 0.148 0.352 0.352 0.148h3q0.203 0 0.352-0.148t0.148-0.352-0.148-0.352-0.352-0.148zM12.5 6h-5q-0.203 0-0.352 0.148t-0.148 0.352 0.148 0.352 0.352 0.148h5q0.203 0 0.352-0.148t0.148-0.352-0.148-0.352-0.352-0.148zM12.5 9h-2q-0.203 0-0.352 0.148t-0.148 0.352 0.148 0.352 0.352 0.148h2q0.203 0 0.352-0.148t0.148-0.352-0.148-0.352-0.352-0.148zM12.5 12h-2q-0.203 0-0.352 0.148t-0.148 0.352 0.148 0.352 0.352 0.148h2q0.203 0 0.352-0.148t0.148-0.352-0.148-0.352-0.352-0.148z"></path>
</svg>
