<?xml version="1.0" encoding="utf-8"?> <!-- Generator: IcoMoon.io --> <!DOCTYPE svg PUBLIC "-//W3C//DTD SVG 1.1//EN" "http://www.w3.org/Graphics/SVG/1.1/DTD/svg11.dtd"> <svg width="512" height="512" viewBox="0 0 512 512" xmlns="http://www.w3.org/2000/svg" xmlns:xlink="http://www.w3.org/1999/xlink" fill="#000000"><path d="M 512.00,179.078C 512.00,97.849, 446.15,32.00, 364.922,32.00C 321.741,32.00, 282.907,50.609, 256.00,80.245C 229.093,50.609, 190.259,32.00, 147.078,32.00 C 65.849,32.00,0.00,97.849,0.00,179.078C0.00,222.259, 18.609,261.093, 48.245,288.00L 48.00,288.00 l 160.00,160.00c 16.00,16.00, 32.00,32.00, 48.00,32.00s 32.00-16.00, 48.00-32.00l 160.00-160.00l-0.245,0.00 C 493.391,261.093, 512.00,222.259, 512.00,179.078z M 420.734,240.616L 258.745,402.745c-0.839,0.839-1.766,1.766-2.745,2.74 c-0.98-0.975-1.907-1.901-2.745-2.74L 91.266,240.617C 73.683,224.653, 64.00,202.798, 64.00,179.078C 64.00,133.269, 101.269,96.00, 147.078,96.00 c 23.72,0.00, 45.575,9.683, 61.538,27.266L 256.00,175.456l 47.384-52.189C 319.348,105.683, 341.202,96.00, 364.922,96.00 C 410.731,96.00, 448.00,133.269, 448.00,179.078C 448.00,202.798, 438.316,224.653, 420.734,240.616z" ></path></svg>