<?xml version="1.0" encoding="utf-8"?>
<!-- Generated by IcoMoon.io -->
<!DOCTYPE svg PUBLIC "-//W3C//DTD SVG 1.1//EN" "http://www.w3.org/Graphics/SVG/1.1/DTD/svg11.dtd">
<svg version="1.1" xmlns="http://www.w3.org/2000/svg" xmlns:xlink="http://www.w3.org/1999/xlink" width="16" height="16" viewBox="0 0 16 16">
<g id="icomoon-ignore">
	<line stroke-width="1" x1="" y1="" x2="" y2="" stroke="#449FDB" opacity=""></line>
</g>
	<path d="M14 16h-12q-0.828 0-1.414-0.586t-0.586-1.414v-12q0-0.828 0.586-1.406t1.414-0.578h9l-2 1.984h-6q-0.422 0-0.711 0.297t-0.289 0.703v10q0 0.422 0.297 0.711t0.703 0.289h10q0.422 0 0.711-0.289t0.289-0.711v-6l2-2v9q0 0.828-0.586 1.414t-1.414 0.586zM5 8.75l2.25 2.25-3.25 1zM8.25 10.25l-2.5-2.484 7.484-7.5q0.266-0.25 0.633-0.25t0.633 0.25l1.234 1.25q0.25 0.25 0.258 0.617t-0.258 0.633z" fill="#000000"></path>
</svg>
