<?xml version="1.0" encoding="utf-8"?> <!-- Generator: IcoMoon.io --> <!DOCTYPE svg PUBLIC "-//W3C//DTD SVG 1.1//EN" "http://www.w3.org/Graphics/SVG/1.1/DTD/svg11.dtd"> <svg width="512" height="512" viewBox="0 0 512 512" xmlns="http://www.w3.org/2000/svg" xmlns:xlink="http://www.w3.org/1999/xlink" fill="#000000"><path d="M 480,512l-447.5,0 q-13.5,0 -22.75-9.25t-9.25-22.5t 9.25-22.75t 22.75-9.5l 447.5,0 q 13.5,0 22.75,9.5t 9.25,22.75t-9.25,22.5t-22.75,9.25zM 413.5,396.5q-1,1 -4.25,4.5t-5.25,5.5t-5.5,4.5t-7,3.75t-7.5,1.25l-128,0 q-3.5,0 -7.25-1.5t-7.5-4.25t-6-4.75t-5.25-5.25t-3.5-3.75l-218-218q-8.5-9 -8.5-21.25t 8.5-20.75 l 65.25-65.25l 62.75-62.75q 8.5-8.5 20.75-8.5t 21.25,8.5l 292.5,293q 9,8.5 9,20.75t-9,21.25q-2.5,3 -26,24t-31.5,29zM 272,186l-86,86l 80,80l 108.5,0 l 32-32z" ></path></svg>