<?xml version="1.0" encoding="utf-8"?>
<!-- Generated by IcoMoon.io -->
<!DOCTYPE svg PUBLIC "-//W3C//DTD SVG 1.1//EN" "http://www.w3.org/Graphics/SVG/1.1/DTD/svg11.dtd">
<svg version="1.1" xmlns="http://www.w3.org/2000/svg" xmlns:xlink="http://www.w3.org/1999/xlink" width="16" height="16" viewBox="0 0 16 16">
<path fill="#000000" d="M8 16q-2.172 0-4.016-1.070t-2.914-2.914-1.070-4.016 1.070-4.016 2.914-2.914 4.016-1.070 4.016 1.070 2.914 2.914 1.070 4.016-1.070 4.016-2.914 2.914-4.016 1.070zM8 13q0.422 0 0.711-0.289t0.289-0.703-0.297-0.711-0.703-0.297-0.703 0.297-0.297 0.711 0.289 0.703 0.711 0.289zM8 3q-0.828 0-1.414 0.586t-0.586 1.414l1 4q0 0.422 0.297 0.711t0.703 0.289 0.703-0.289 0.297-0.711l1-4q0-0.828-0.586-1.414t-1.414-0.586z"></path>
</svg>
