<?xml version="1.0" encoding="utf-8"?> <!-- Generator: IcoMoon.io --> <!DOCTYPE svg PUBLIC "-//W3C//DTD SVG 1.1//EN" "http://www.w3.org/Graphics/SVG/1.1/DTD/svg11.dtd"> <svg width="512" height="512" viewBox="0 0 512 512" xmlns="http://www.w3.org/2000/svg" xmlns:xlink="http://www.w3.org/1999/xlink" fill="#000000"><path d="M 512,416q0,26.5 -18.75,45.25t-45.25,18.75l-384,0 q-26.5,0 -45.25-18.75t-18.75-45.25l0-256 q0-13 9.25-22.5t 22.75-9.5l 240,0 q0-6 5.75-16.5t 11.25-18l 6-8q 3.5-9 14-15.25t 22-6.25l 120,0 q 12,0 22.5,6.25t 14,15.25q 24.5,29 24.5,42.5l0,288 zM 23,53.5q 3.5-9 14-15.25t 22-6.25l 120,0 q 12,0 22.5,6.25t 14.5,15.25 l 24,42.5l-240,0 z" ></path></svg>