<?xml version="1.0" encoding="utf-8"?> <!-- Generator: IcoMoon.io --> <!DOCTYPE svg PUBLIC "-//W3C//DTD SVG 1.1//EN" "http://www.w3.org/Graphics/SVG/1.1/DTD/svg11.dtd"> <svg width="512" height="512" viewBox="0 0 512 512" xmlns="http://www.w3.org/2000/svg" xmlns:xlink="http://www.w3.org/1999/xlink" fill="#000000"><path d="M 448,384l-160,0 l0,64 l 64,0 q 13,0 22.5,9.5t 9.5,22.75t-9.5,22.5t-22.5,9.25l-192,0 q-13.5,0 -22.75-9.25t-9.25-22.5t 9.5-22.75t 22.5-9.5l 64,0 l0-64 l-160,0 q-26.5,0 -45.25-18.75t-18.75-45.25l0-192 q0-13 9.5-22.5t 22.5-9.5l 240,0 l 23-42q 3.5-9.5 14-15.75t 22-6.25l 120,0 q 12,0 22.5,6.25t 14,15.75l 24.5,42l0,224 q0,26.5 -18.75,45.25t-45.25,18.75zM 221,237l-67.5-72.5q-4-4.5 -9.5-4.5t-9.5,4.5l-67.5,72.5q-4,4.5 -2.5,11.75t 5.5,7.25l 26,0 l0,48 q0,6.5 4.75,11.25t 11.25,4.75l 64,0 q 6.5,0 11.25-4.75t 4.75-11.25l0-48 l 26,0 q 4,0 5.5-7.25t-2.5-11.75zM 442,224l-26,0 l0-48 q0-6.5 -4.75-11.25t-11.25-4.75l-64,0 q-6.5,0 -11.25,4.75 t-4.75,11.25l0,48 l-26,0 q-4,0 -5.5,7.25t 2.5,11.75l 67.5,72.5q 4,4.5 9.5,4.5t 9.5-4.5l 67.5-72.5q 4-4.5 2.5-11.75t-5.5-7.25zM 23,22q 3.5-9.5 14-15.75t 22-6.25l 120,0 q 12,0 22.5,6.25t 14.5,15.75l 24,42l-240,0 z" ></path></svg>