<?xml version="1.0" encoding="utf-8"?>
<!-- Generated by IcoMoon.io -->
<!DOCTYPE svg PUBLIC "-//W3C//DTD SVG 1.1//EN" "http://www.w3.org/Graphics/SVG/1.1/DTD/svg11.dtd">
<svg version="1.1" xmlns="http://www.w3.org/2000/svg" xmlns:xlink="http://www.w3.org/1999/xlink" width="16" height="16" viewBox="0 0 16 16">
<g id="icomoon-ignore">
	<line stroke-width="1" x1="" y1="" x2="" y2="" stroke="#449FDB" opacity=""></line>
</g>
	<path d="M12.656 11.656q-1.922 1.906-4.625 2.266v1.078h1.5q0.203 0 0.352 0.148t0.148 0.352-0.148 0.352-0.352 0.148h-5q-0.203 0-0.352-0.148t-0.148-0.352 0.148-0.352 0.352-0.148h1.5v-1.078q-2.734-0.328-4.672-2.266l-0.359-0.359 1.438-1.438q-1.391-1.672-1.391-3.844 0-1.625 0.797-3.008t2.18-2.188 3.008-0.805q2.172 0 3.844 1.406l1.422-1.422 0.359 0.359q1.531 1.531 2.078 3.586t0 4.109-2.078 3.602zM12.281 1.422q-0.203 0.219-0.703 0.703 1.438 1.688 1.438 3.891 0 1.625-0.797 3.008t-2.18 2.18-3.008 0.797q-2.203 0-3.891-1.438-0.125 0.125-0.703 0.719 1.344 1.172 3.070 1.555t3.438-0.109 3-1.781 1.781-3 0.109-3.438-1.555-3.086z" fill="#000000"></path>
</svg>
