<?xml version="1.0" encoding="utf-8"?>
<!-- Generated by IcoMoon.io -->
<!DOCTYPE svg PUBLIC "-//W3C//DTD SVG 1.1//EN" "http://www.w3.org/Graphics/SVG/1.1/DTD/svg11.dtd">
<svg version="1.1" xmlns="http://www.w3.org/2000/svg" xmlns:xlink="http://www.w3.org/1999/xlink" width="16" height="16" viewBox="0 0 16 16">
<g>
</g>
	<path d="M15 16h-2q-0.406 0-0.703-0.297t-0.297-0.703v-2q0-0.406 0.297-0.703t0.703-0.297h2q0.406 0 0.703 0.297t0.297 0.703v2q0 0.422-0.289 0.711t-0.711 0.289zM15 10h-2q-0.406 0-0.703-0.289t-0.297-0.711v-2q0-0.422 0.297-0.711t0.703-0.289h2q0.406 0 0.703 0.289t0.297 0.711v2q0 0.422-0.289 0.711t-0.711 0.289zM15 4h-2q-0.406 0-0.703-0.297t-0.297-0.703v-2q0-0.422 0.297-0.711t0.703-0.289h2q0.406 0 0.703 0.289t0.297 0.711v2q0 0.406-0.289 0.703t-0.711 0.297zM9 16h-2q-0.422 0-0.711-0.297t-0.289-0.703v-2q0-0.406 0.297-0.703t0.703-0.297h2q0.422 0 0.711 0.297t0.289 0.703v2q0 0.422-0.289 0.711t-0.711 0.289zM9 10h-2q-0.422 0-0.711-0.289t-0.289-0.711v-2q0-0.422 0.297-0.711t0.703-0.289h2q0.422 0 0.711 0.289t0.289 0.711v2q0 0.422-0.289 0.711t-0.711 0.289zM9 4h-2q-0.422 0-0.711-0.297t-0.289-0.703v-2q0-0.422 0.297-0.711t0.703-0.289h2q0.422 0 0.711 0.289t0.289 0.711v2q0 0.406-0.289 0.703t-0.711 0.297zM3 16h-2q-0.406 0-0.703-0.297t-0.297-0.703v-2q0-0.406 0.297-0.703t0.703-0.297h2q0.406 0 0.703 0.297t0.297 0.703v2q0 0.422-0.289 0.711t-0.711 0.289zM3 10h-2q-0.406 0-0.703-0.289t-0.297-0.711v-2q0-0.422 0.297-0.711t0.703-0.289h2q0.406 0 0.703 0.289t0.297 0.711v2q0 0.422-0.289 0.711t-0.711 0.289zM3 4h-2q-0.406 0-0.703-0.297t-0.297-0.703v-2q0-0.422 0.297-0.711t0.703-0.289h2q0.406 0 0.703 0.289t0.297 0.711v2q0 0.406-0.289 0.703t-0.711 0.297z" fill="#000000" />
</svg>
