<?xml version="1.0" encoding="utf-8"?> <!-- Generator: IcoMoon.io --> <!DOCTYPE svg PUBLIC "-//W3C//DTD SVG 1.1//EN" "http://www.w3.org/Graphics/SVG/1.1/DTD/svg11.dtd"> <svg width="500.00000000000006" height="500" viewBox="0 0 500 500" xmlns="http://www.w3.org/2000/svg" xmlns:xlink="http://www.w3.org/1999/xlink" fill="#000000"><path d="M 500,470c0,0-0.975-94.675-6.775-104.475c-8.625-14.625-28.65-24.65-65.85-40.2c-37.075-15.5-48.95-28.6-48.95-56.575 c0-16.825, 11.325-11.325, 16.3-42.1c 2.050-12.775, 12.050-0.225, 13.975-29.35c0-11.625-5.45-14.525-5.45-14.525s 2.75-17.2, 3.85-30.425 c 1.35-16.5-8.325-59.075-59.8-59.075s-61.1,42.6-59.775,59.075c 1.075,13.225, 3.825,30.425, 3.825,30.425s-5.45,2.9-5.45,14.525 c 1.925,29.15, 11.925,16.6, 14,29.35c 4.95,30.775, 16.275,25.275, 16.275,42.1c0,19.025-5.5,31.175-20.675,41.85 c 81,40.55, 91.875,48.825, 91.875,85.075L 387.375,470 L 500,470 z M 255.6,339.375c-49.475-20.65-65.25-38.1-65.25-75.425c0-22.4, 15.1-15.1, 21.725-56.15 c 2.725-17.025, 16.1-0.275, 18.625-39.125c0-15.5-7.275-19.35-7.275-19.35s 3.7-22.925, 5.15-40.575C 230.375,86.8, 217.475,30, 148.85,30 c-68.625,0-81.5,56.775-79.7,78.75c 1.45,17.65, 5.125,40.575, 5.125,40.575S 67.025,153.175, 67.025,168.675 c 2.575,38.875, 15.9,22.125, 18.65,39.125c 6.625,41.050, 21.725,33.725, 21.725,56.15c0,37.325-15.825,54.775-65.25,75.425 C 27.075,345.675,0,355.45,0,378.9L0,470 l 347.35,0 c0,0,0-53.875,0-68.275C 347.35,380.3, 305.175,360.125, 255.6,339.375z" ></path></svg>