<?xml version="1.0" encoding="utf-8"?> <!-- Generator: IcoMoon.io --> <!DOCTYPE svg PUBLIC "-//W3C//DTD SVG 1.1//EN" "http://www.w3.org/Graphics/SVG/1.1/DTD/svg11.dtd"> <svg width="512" height="512" viewBox="0 0 512 512" xmlns="http://www.w3.org/2000/svg" xmlns:xlink="http://www.w3.org/1999/xlink" fill="#000000"><path d="M 416,512l-320,0 q-26.5,0 -45.25-18.75t-18.75-45.25l0-384 q0-26.5 18.75-45.25t 45.25-18.75l 320,0 q 26.5,0 45.25,18.75t 18.75,45.25l0,384 q0,26.5 -18.75,45.25t-45.25,18.75zM 416,368q0-16 -9.5-28.5t-24.5-17q 34-43.5 34-98.5q0-43.5 -21.5-80.25t-58.25-58.25t-80.25-21.5t-80.25,21.5t-58.25,58.25t-21.5,80.25 q0,55 34,98.5q-15,4.5 -24.5,17t-9.5,28.5l0,32 q0,20 14,34t 34,14l 224,0 q 20,0 34-14t 14-34l0-32 zM 256,288q-26.5,0 -45.25-18.75t-18.75-45.25t 18.75-45.25t 45.25-18.75t 45.25,18.75t 18.75,45.25t-18.75,45.25t-45.25,18.75z" ></path></svg>