<?xml version="1.0" encoding="utf-8"?> <!-- Generator: IcoMoon.io --> <!DOCTYPE svg PUBLIC "-//W3C//DTD SVG 1.1//EN" "http://www.w3.org/Graphics/SVG/1.1/DTD/svg11.dtd"> <svg width="500.00000000000006" height="500" viewBox="0 0 500 500" xmlns="http://www.w3.org/2000/svg" xmlns:xlink="http://www.w3.org/1999/xlink" fill="#000000"><path d="M 352.25,55.85C 323.725,35.275, 287.95,25, 244.85,25C 212.050,25, 184.4,32.25, 161.925,46.7C 126.25,69.35, 107.3,107.8, 105,162.050l 82.65,0 c0-15.8, 4.6-31.025, 13.825-45.675s 24.875-21.975, 46.95-21.975c 22.425,0, 37.9,5.95, 46.35,17.825c 8.475,11.925, 12.7,25.1, 12.7,39.55 c0,12.575-6.3,24.075-13.9,34.55c-4.175,6.1-9.7,11.7-16.525,16.85c0,0-44.825,28.75-64.525,51.85 c-11.425,13.4-12.45,33.45-13.45,62.225c-0.075,2.050, 0.7,6.275, 7.875,6.275s 57.925,0, 64.3,0s 7.7-4.725, 7.8-6.8 c 0.45-10.475, 1.625-15.825, 3.55-21.875c 3.625-11.425, 13.425-21.4, 24.475-29.975l 22.75-15.7c 20.525-16, 36.925-29.125, 44.15-39.425 C 386.325,192.8, 395,171.95, 395,147.225C 395,106.85, 380.725,76.4, 352.25,55.85z M 243.525,373.1c-28.5-0.85-52,18.85-52.9,49.75 c-0.9,30.875, 21.45,51.275, 49.95,52.125c 29.75,0.875, 52.625-18.2, 53.525-49.075C 294.975,395, 273.275,373.975, 243.525,373.1z" ></path></svg>