<?xml version="1.0" encoding="utf-8"?>
<!-- Generated by IcoMoon.io -->
<!DOCTYPE svg PUBLIC "-//W3C//DTD SVG 1.1//EN" "http://www.w3.org/Graphics/SVG/1.1/DTD/svg11.dtd">
<svg version="1.1" xmlns="http://www.w3.org/2000/svg" xmlns:xlink="http://www.w3.org/1999/xlink" width="16" height="16" viewBox="0 0 16 16">
<g>
</g>
	<path d="M15.695 8.68q-0.305 0.305-0.734 0.305t-0.727-0.297l-0.234-0.234v6.547q0 0.406-0.289 0.703t-0.711 0.297h-10q-0.422 0-0.711-0.297t-0.289-0.703v-6.547l-0.234 0.234q-0.297 0.297-0.727 0.297t-0.734-0.305-0.305-0.734 0.297-0.727l6.938-6.938q0.25-0.25 0.602-0.289t0.648 0.148q0.125 0 0.281 0.141l6.938 6.938q0.297 0.297 0.297 0.727t-0.305 0.734zM12 6.453l-4-4-4 4v7.547h8v-7.547z" fill="#000000" />
</svg>
