<?xml version="1.0" encoding="utf-8"?>
<!-- Generated by IcoMoon.io -->
<!DOCTYPE svg PUBLIC "-//W3C//DTD SVG 1.1//EN" "http://www.w3.org/Graphics/SVG/1.1/DTD/svg11.dtd">
<svg version="1.1" xmlns="http://www.w3.org/2000/svg" xmlns:xlink="http://www.w3.org/1999/xlink" width="16" height="16" viewBox="0 0 16 16">
<g>
</g>
	<path d="M15.695 8.68q-0.305 0.305-0.734 0.305t-0.727-0.297l-0.234-0.234v6.547q0 0.406-0.289 0.703t-0.711 0.297h-3v-4.5q0-0.203-0.148-0.352t-0.352-0.148h-3q-0.203 0-0.352 0.148t-0.148 0.352v4.5h-3q-0.422 0-0.711-0.297t-0.289-0.703v-6.547l-0.234 0.234q-0.297 0.297-0.727 0.297t-0.734-0.305-0.305-0.734 0.297-0.727l6.938-6.938q0.313-0.313 0.766-0.297 0.453-0.016 0.766 0.297l6.938 6.938q0.297 0.297 0.297 0.727t-0.305 0.734z" fill="#000000" />
</svg>
