<?xml version="1.0" encoding="utf-8"?>
<!-- Generated by IcoMoon.io -->
<!DOCTYPE svg PUBLIC "-//W3C//DTD SVG 1.1//EN" "http://www.w3.org/Graphics/SVG/1.1/DTD/svg11.dtd">
<svg version="1.1" xmlns="http://www.w3.org/2000/svg" xmlns:xlink="http://www.w3.org/1999/xlink" width="16" height="16" viewBox="0 0 16 16">
<g>
</g>
	<path d="M8 16q-1.625 0-3.109-0.633t-2.555-1.703-1.703-2.555-0.633-3.109 0.633-3.109 1.703-2.555 2.555-1.703 3.109-0.633 3.109 0.633 2.555 1.703 1.703 2.555 0.633 3.109-0.633 3.109-1.703 2.555-2.555 1.703-3.109 0.633zM11.859 5.531q0.141-0.156 0.141-0.359t-0.141-0.344l-0.688-0.688q-0.156-0.141-0.352-0.141t-0.352 0.141l-2.469 2.484-2.484-2.484q-0.141-0.141-0.344-0.141t-0.344 0.141l-0.688 0.688q-0.141 0.141-0.141 0.344t0.141 0.359l2.469 2.469-2.469 2.469q-0.141 0.156-0.141 0.359t0.141 0.344l0.688 0.688q0.141 0.141 0.344 0.141t0.344-0.141l2.484-2.484 2.469 2.484q0.156 0.141 0.352 0.141t0.352-0.141l0.688-0.688q0.141-0.141 0.141-0.344t-0.141-0.359l-2.484-2.469z" fill="#000000"></path>
</svg>
