<?xml version="1.0" encoding="utf-8"?> <!-- Generator: IcoMoon.io --> <!DOCTYPE svg PUBLIC "-//W3C//DTD SVG 1.1//EN" "http://www.w3.org/Graphics/SVG/1.1/DTD/svg11.dtd"> <svg width="500.00000000000006" height="500" viewBox="0 0 500 500" xmlns="http://www.w3.org/2000/svg" xmlns:xlink="http://www.w3.org/1999/xlink" fill="#000000"><path d="M 310.8,0c 33.5,0, 50.25,22.85, 50.25,48.95c0,32.6-29.1,62.775-66.95,62.775c-31.75,0-50.25-18.75-49.375-49.725 C 244.725,35.875, 266.725,0, 310.8,0z M 207.725,500c-26.45,0-45.825-16.3-27.325-88.075l 30.35-127.275c 5.275-20.375, 6.15-28.55,0-28.55 c-7.95,0-42.25,14.075-62.55,27.95L 135,262.025c 64.325-54.65, 138.3-86.675, 170.025-86.675c 26.425,0, 30.8,31.8, 17.625,80.725l-34.775,133.8 c-6.15,23.65-3.525,31.8, 2.625,31.8c 7.95,0, 33.925-9.825, 59.475-30.2l 15,20.375C 302.45,475.5, 234.15,500, 207.725,500z" ></path></svg>