<?xml version="1.0" encoding="UTF-8" standalone="no"?>
<svg
   xmlns:dc="http://purl.org/dc/elements/1.1/"
   xmlns:cc="http://creativecommons.org/ns#"
   xmlns:rdf="http://www.w3.org/1999/02/22-rdf-syntax-ns#"
   xmlns:svg="http://www.w3.org/2000/svg"
   xmlns="http://www.w3.org/2000/svg"
   xmlns:sodipodi="http://sodipodi.sourceforge.net/DTD/sodipodi-0.dtd"
   xmlns:inkscape="http://www.inkscape.org/namespaces/inkscape"
   width="16"
   height="16"
   viewBox="0 0 16 16"
   id="svg2"
   version="1.1"
   inkscape:version="0.91 r13725"
   sodipodi:docname="led_red.svg"
   inkscape:export-filename="./led_red.png"
   inkscape:export-xdpi="90"
   inkscape:export-ydpi="90">
  <metadata
     id="metadata10">
    <rdf:RDF>
      <cc:Work
         rdf:about="">
        <dc:format>image/svg+xml</dc:format>
        <dc:type
           rdf:resource="http://purl.org/dc/dcmitype/StillImage" />
        <dc:title />
        <dc:creator>
          <cc:Agent>
            <dc:title>Volker Theile</dc:title>
          </cc:Agent>
        </dc:creator>
      </cc:Work>
    </rdf:RDF>
  </metadata>
  <defs
     id="defs8" />
  <sodipodi:namedview
     pagecolor="#ffffff"
     bordercolor="#666666"
     borderopacity="1"
     objecttolerance="10"
     gridtolerance="10"
     guidetolerance="10"
     inkscape:pageopacity="0"
     inkscape:pageshadow="2"
     inkscape:window-width="1170"
     inkscape:window-height="698"
     id="namedview6"
     showgrid="false"
     inkscape:zoom="9.8333331"
     inkscape:cx="3.7166587"
     inkscape:cy="3.2040387"
     inkscape:window-x="1854"
     inkscape:window-y="221"
     inkscape:window-maximized="0"
     inkscape:current-layer="svg2" />
  <path
     style="fill:#d8d8d8;fill-opacity:1"
     d="M 7.9973502,7.0538e-4 C 4.8520616,-0.0433157 1.8177661,1.9774208 0.62687183,4.8852993 -0.6162919,7.7418299 0.02604253,11.290274 2.2066279,13.518906 4.3049401,15.777045 7.7618248,16.599327 10.656147,15.546263 13.656335,14.527907 15.867422,11.58041 15.98577,8.4112986 16.185041,5.3305934 14.400549,2.2502805 11.639585,0.87545195 10.517899,0.29922175 9.2580839,-0.00121482 7.9973502,7.0538e-4 Z m 0,1.59976472 c 2.8980408,-0.054874 5.6299728,2.120978 6.2352688,4.9534841 0.67711,2.7240057 -0.696877,5.7737408 -3.184487,7.0725788 C 8.5497349,15.035052 5.1515412,14.460778 3.2601686,12.302658 1.2929929,10.213048 1.0461969,6.7720429 2.6907872,4.4211487 3.8529046,2.676429 5.898962,1.5828018 7.9973502,1.6004701 Z"
     id="path4"
     inkscape:connector-curvature="0" />
  <path
     inkscape:connector-curvature="0"
     d="m 8.0000002,4.0005882 c -2.2076753,0 -3.9994117,1.7917365 -3.9994117,3.9994117 0,2.2076751 1.7917364,3.9994121 3.9994117,3.9994121 2.2076748,0 3.9994118,-1.791737 3.9994118,-3.9994121 0,-2.2076752 -1.791737,-3.9994117 -3.9994118,-3.9994117 z"
     id="path4466"
     style="fill:#ea4335;fill-opacity:1" />
</svg>
