<?xml version="1.0" encoding="utf-8"?> <!-- Generator: IcoMoon.io --> <!DOCTYPE svg PUBLIC "-//W3C//DTD SVG 1.1//EN" "http://www.w3.org/Graphics/SVG/1.1/DTD/svg11.dtd"> <svg width="512" height="512" viewBox="0 0 512 512" xmlns="http://www.w3.org/2000/svg" xmlns:xlink="http://www.w3.org/1999/xlink" fill="#000000"><path d="M 416.00,224.00l-32.00,0.00 l0.00-96.00 C 384.00,57.308, 326.692,0.00, 256.00,0.00c-70.692,0.00-128.00,57.308-128.00,128.00l0.00,96.00 L 96.00,224.00 c-17.60,0.00-32.00,14.40-32.00,32.00l0.00,224.00 c0.00,17.60, 14.40,32.00, 32.00,32.00l 320.00,0.00 c 17.60,0.00, 32.00-14.40, 32.00-32.00L 448.00,256.00 C 448.00,238.40, 433.60,224.00, 416.00,224.00z M 256.00,416.00c-17.673,0.00-32.00-14.327-32.00-32.00 s 14.327-32.00, 32.00-32.00s 32.00,14.327, 32.00,32.00S 273.673,416.00, 256.00,416.00z M 320.00,224.00L 192.00,224.00 l0.00-96.00 c0.00-35.29, 28.71-64.00, 64.00-64.00s 64.00,28.71, 64.00,64.00L 320.00,224.00 z" ></path></svg>