<?xml version="1.0" encoding="utf-8"?> <!-- Generator: IcoMoon.io --> <!DOCTYPE svg PUBLIC "-//W3C//DTD SVG 1.1//EN" "http://www.w3.org/Graphics/SVG/1.1/DTD/svg11.dtd"> <svg width="500.00000000000006" height="500" viewBox="0 0 500 500" xmlns="http://www.w3.org/2000/svg" xmlns:xlink="http://www.w3.org/1999/xlink" fill="#000000"><path d="M 275.525,425L 74.5,425 L 74.5,75 l 201,0 l0,75 L 325,150 L 325,75 c0-27.5-22.475-50-50-50L 75,25 C 47.5,25, 25,47.5, 25,75l0,350 c0,27.5, 22.5,50, 50,50l 200,0 c 27.525,0, 50-22.5, 50-50l0-50 l-49.475,0 L 275.525,425 z M 475,262.5l-99.475-97.5L 375.525,225 l-225,0 l0,75 l 225,0 l0,60 L 475,262.5z" ></path></svg>