<?xml version="1.0" encoding="utf-8"?> <!-- Generator: IcoMoon.io --> <!DOCTYPE svg PUBLIC "-//W3C//DTD SVG 1.1//EN" "http://www.w3.org/Graphics/SVG/1.1/DTD/svg11.dtd"> <svg width="512" height="512" viewBox="0 0 512 512" xmlns="http://www.w3.org/2000/svg" xmlns:xlink="http://www.w3.org/1999/xlink" fill="#000000"><path d="M 503,277.5l-81.5,100q-5.5,6 -14.75,6.25t-16-3.75t-6.75-9.5l0-50.5 l-64,0 q-13,0 -22.5-9.25t-9.5-22.75l0-64 q0-13.5 9.5-22.75t 22.5-9.25l 64,0 l0-50 q0-6 6.75-10t 16-3.75t 14.75,6.25l 81.5,99.5q 9,9 9,21.75t-9,21.75zM 320.25,128q-13.25,0 -22.75-9.5t-9.5-22.75t-9.25-22.5t-22.75-9.25l-160,0 q-13,0 -22.5,9.25t-9.5,22.75l0,320 q0,13 9.5,22.5t 22.5,9.5l 160,0 q 13.5,0 22.75-9.5t 9.25-22.75t 9.5-22.5t 22.75-9.25t 22.5,9.25t 9.25,22.75l0,32 q0,26.5 -18.75,45.25t-45.25,18.75l-224,0 q-26.5,0 -45.25-18.75t-18.75-45.25l0-384 q0-26.5 18.75-45.25t 45.25-18.75l 224,0 q 26.5,0 45.25,18.75t 18.75,45.25l0,32 q0,13 -9.25,22.5t-22.5,9.5z" ></path></svg>