<?xml version="1.0" encoding="utf-8"?> <!-- Generator: IcoMoon.io --> <!DOCTYPE svg PUBLIC "-//W3C//DTD SVG 1.1//EN" "http://www.w3.org/Graphics/SVG/1.1/DTD/svg11.dtd"> <svg width="512" height="512" viewBox="0 0 512 512" xmlns="http://www.w3.org/2000/svg" xmlns:xlink="http://www.w3.org/1999/xlink" fill="#000000"><path d="M 479.5,319.5l-399.5,0.5q-6.5,0 -11.25,4.75t-4.75,11.5t 4.75,11.25t 11.25,4.5l 208,0 l0,32 l-208,0 q-6.5,0 -11.25,4.75t-4.75,11.25t 4.75,11.25t 11.25,4.75l 208,0 l0,95.5 l-224,0 q-13.5,0 -22.75-9.25t-9.25-22.75l0-447.5 q0-13.5 9.25-22.75t 22.75-9.25l 383.5,0 q 13.5,0 22.75,9.25t 9.25,22.75l0,287 l0,0.5 zM 431.5,64.5l-351.5,0 q-6.5,0 -11.25,4.5t-4.75,11.25t 4.75,11.5t 11.25,4.75l 351.5,0 q 7,0 11.5-4.75t 4.5-11.5t-4.5-11.25t-11.5-4.5zM 431.5,128.5l-351.5,0 q-6.5,0 -11.25,4.5t-4.75,11.25t 4.75,11.5t 11.25,4.75l 351.5,0 q 7,0 11.5-4.75t 4.5-11.5t-4.5-11.25t-11.5-4.5zM 431.5,192l-351.5,0 q-6.5,0 -11.25,4.75t-4.75,11.5t 4.75,11.25t 11.25,4.5l 351.5,0 q 7,0 11.5-4.5t 4.5-11.25 t-4.5-11.5t-11.5-4.75zM 431.5,256l-351.5,0 q-6.5,0 -11.25,4.75t-4.75,11.5t 4.75,11.25t 11.25,4.5l 351.5,0 q 7,0 11.5-4.5t 4.5-11.25t-4.5-11.5t-11.5-4.75zM 470,374.5l-128,128.5q-9,9 -22,9l0-160.5 l 159.5,0 q0,13.5 -9.5,23z" ></path></svg>