<?xml version="1.0" encoding="utf-8"?> <!-- Generator: IcoMoon.io --> <!DOCTYPE svg PUBLIC "-//W3C//DTD SVG 1.1//EN" "http://www.w3.org/Graphics/SVG/1.1/DTD/svg11.dtd"> <svg width="512" height="512" viewBox="0 0 512 512" xmlns="http://www.w3.org/2000/svg" xmlns:xlink="http://www.w3.org/1999/xlink" fill="#000000"><path d="M 256,288.5l-224.5-224.5l 0.5,0 l 448,0 l 0.5,0 zM 3.5,430.5q-3.5-7 -3.5-14.5l0-320 q0-7.5 3.5-14.5l 175,174.5zM 236.5,314.5q 3,2.5 7.75,4t 8.25,1.5l 3.5,0 q 13,0.5 19.5-5.5l 35.5-36l 169.5,169.5l-0.5,0 l-448,0 l-0.5,0 l 169.5-169.5zM 508.5,81.5q 3.5,7 3.5,14.5l0,320 q0,7.5 -3.5,14.5l-175-174.5z" ></path></svg>