<?xml version="1.0" encoding="utf-8"?> <!-- Generator: IcoMoon.io --> <!DOCTYPE svg PUBLIC "-//W3C//DTD SVG 1.1//EN" "http://www.w3.org/Graphics/SVG/1.1/DTD/svg11.dtd"> <svg width="512" height="512" viewBox="0 0 512 512" xmlns="http://www.w3.org/2000/svg" xmlns:xlink="http://www.w3.org/1999/xlink" fill="#000000"><path d="M 448,320l-384,0 q-26.5,0 -45.25-18.75t-18.75-45.25t 18.75-45.25t 45.25-18.75l 384,0 q 26.5,0 45.25,18.75t 18.75,45.25t-18.75,45.25t-45.25,18.75zM 448,128l-384,0 q-26.5,0 -45.25-18.75t-18.75-45.25t 18.75-45.25t 45.25-18.75l 384,0 q 26.5,0 45.25,18.75t 18.75,45.25t-18.75,45.25t-45.25,18.75zM 64,384l 384,0 q 26.5,0 45.25,18.75t 18.75,45.25t-18.75,45.25t-45.25,18.75l-384,0 q-26.5,0 -45.25-18.75t-18.75-45.25t 18.75-45.25t 45.25-18.75z" ></path></svg>