<?xml version="1.0" encoding="UTF-8" standalone="no"?>
<!-- Generated by IcoMoon.io -->

<svg
   xmlns:dc="http://purl.org/dc/elements/1.1/"
   xmlns:cc="http://creativecommons.org/ns#"
   xmlns:rdf="http://www.w3.org/1999/02/22-rdf-syntax-ns#"
   xmlns:svg="http://www.w3.org/2000/svg"
   xmlns="http://www.w3.org/2000/svg"
   xmlns:sodipodi="http://sodipodi.sourceforge.net/DTD/sodipodi-0.dtd"
   xmlns:inkscape="http://www.inkscape.org/namespaces/inkscape"
   version="1.1"
   width="16"
   height="16"
   viewBox="0 0 16 16"
   id="svg2"
   inkscape:version="0.48.4 r9939"
   sodipodi:docname="page-prev.svg">
  <metadata
     id="metadata10">
    <rdf:RDF>
      <cc:Work
         rdf:about="">
        <dc:format>image/svg+xml</dc:format>
        <dc:type
           rdf:resource="http://purl.org/dc/dcmitype/StillImage" />
      </cc:Work>
    </rdf:RDF>
  </metadata>
  <defs
     id="defs8" />
  <sodipodi:namedview
     pagecolor="#ffffff"
     bordercolor="#666666"
     borderopacity="1"
     objecttolerance="10"
     gridtolerance="10"
     guidetolerance="10"
     inkscape:pageopacity="0"
     inkscape:pageshadow="2"
     inkscape:window-width="640"
     inkscape:window-height="480"
     id="namedview6"
     showgrid="false"
     inkscape:zoom="14.75"
     inkscape:cx="8"
     inkscape:cy="8"
     inkscape:window-x="10"
     inkscape:window-y="34"
     inkscape:window-maximized="0"
     inkscape:current-layer="svg2" />
  <path
     d="m 8,16 q 1.625,0 3.109,-0.633 1.484,-0.633 2.555,-1.703 1.071,-1.07 1.703,-2.555 Q 15.999,9.624 16,8 16.001,6.376 15.367,4.891 14.733,3.406 13.664,2.336 12.595,1.266 11.109,0.633 9.623,0 8,0 6.377,0 4.891,0.633 3.405,1.266 2.336,2.336 1.267,3.406 0.633,4.891 -0.001,6.376 0,8 q 0.001,1.624 0.633,3.109 0.632,1.485 1.703,2.555 1.071,1.07 2.555,1.703 Q 6.375,16 8,16 z M 8,1 q 1.422,0 2.719,0.555 1.297,0.555 2.234,1.492 0.937,0.937 1.492,2.234 Q 15,6.578 15,8 15,9.422 14.445,10.719 13.89,12.016 12.953,12.953 12.016,13.89 10.719,14.445 9.422,15 8,15 6.578,15 5.281,14.445 3.984,13.89 3.047,12.953 2.11,12.016 1.555,10.719 1,9.422 1,8 1,6.578 1.555,5.281 2.11,3.984 3.047,3.047 3.984,2.11 5.281,1.555 6.578,1 8,1 z m 2.516,10.922 Q 10.719,12.125 11,11.813 V 4.188 Q 10.703,3.875 10.516,4.079 L 4.125,7.704 Q 4,7.829 4,8.001 4,8.173 4.125,8.298 z"
     id="path4"
     inkscape:connector-curvature="0"
     style="fill:#000000" />
</svg>
