<?xml version="1.0" encoding="utf-8"?>
<!-- Generated by IcoMoon.io -->
<!DOCTYPE svg PUBLIC "-//W3C//DTD SVG 1.1//EN" "http://www.w3.org/Graphics/SVG/1.1/DTD/svg11.dtd">
<svg version="1.1" xmlns="http://www.w3.org/2000/svg" xmlns:xlink="http://www.w3.org/1999/xlink" width="16" height="16" viewBox="0 0 16 16">
<path fill="#000000" d="M8 16q-1.625 0-3.109-0.633t-2.555-1.703-1.703-2.555-0.633-3.109 0.633-3.109 1.703-2.555 2.555-1.703 3.109-0.633 3.109 0.633 2.555 1.703 1.703 2.555 0.633 3.109-0.633 3.109-1.703 2.555-2.555 1.703-3.109 0.633zM8 1q-1.422 0-2.719 0.555t-2.234 1.492-1.492 2.234-0.555 2.719 0.555 2.719 1.492 2.234 2.234 1.492 2.719 0.555 2.719-0.555 2.234-1.492 1.492-2.234 0.555-2.719-0.555-2.719-1.492-2.234-2.234-1.492-2.719-0.555zM11.516 11.922l-3.391-3.625q-0.125-0.125-0.125-0.297t0.125-0.297l3.391-3.625q0.203-0.203 0.484 0.109v7.625q-0.281 0.313-0.484 0.109zM6.516 11.922l-3.391-3.625q-0.125-0.125-0.125-0.297t0.125-0.297l3.391-3.625q0.203-0.203 0.484 0.109v7.625q-0.281 0.313-0.484 0.109z"></path>
</svg>
