<?xml version="1.0" encoding="utf-8"?>
<!-- Generated by IcoMoon.io -->
<!DOCTYPE svg PUBLIC "-//W3C//DTD SVG 1.1//EN" "http://www.w3.org/Graphics/SVG/1.1/DTD/svg11.dtd">
<svg version="1.1" xmlns="http://www.w3.org/2000/svg" xmlns:xlink="http://www.w3.org/1999/xlink" width="16" height="16" viewBox="0 0 16 16">
<g>
</g>
	<path d="M14 16h-2q-0.828 0-1.414-0.586t-0.586-1.414v-12q0-0.828 0.586-1.414t1.414-0.586h2q0.828 0 1.414 0.586t0.586 1.414v12q0 0.828-0.586 1.414t-1.414 0.586zM4 16h-2q-0.828 0-1.414-0.586t-0.586-1.414v-12q0-0.828 0.586-1.414t1.414-0.586h2q0.828 0 1.414 0.586t0.586 1.414v12q0 0.828-0.586 1.414t-1.414 0.586z" fill="#000000"></path>
</svg>
