<?xml version="1.0" encoding="utf-8"?> <!-- Generator: IcoMoon.io --> <!DOCTYPE svg PUBLIC "-//W3C//DTD SVG 1.1//EN" "http://www.w3.org/Graphics/SVG/1.1/DTD/svg11.dtd"> <svg width="512" height="512" viewBox="0 0 512 512" xmlns="http://www.w3.org/2000/svg" xmlns:xlink="http://www.w3.org/1999/xlink" fill="#000000"><path d="M 181.861,361.026l 20.649-28.908l-22.627-22.628l-28.909,20.648c-5.361-2.997-11.102-5.387-17.133-7.096L 128.00,288.00L 96.00,288.00 l-5.84,35.043c-6.031,1.709-11.772,4.099-17.133,7.096L 44.118,309.49L 21.49,332.118l 20.649,28.908 c-2.997,5.36-5.387,11.103-7.096,17.133L0.00,384.00l0.00,32.00 l 35.043,5.841c 1.709,6.03, 4.099,11.772, 7.096,17.133L 21.49,467.882l 22.627,22.628 l 28.909-20.648c 5.361,2.997, 11.102,5.387, 17.133,7.096L 96.00,512.00l 32.00,0.00 l 5.84-35.043c 6.031-1.709, 11.772-4.099, 17.133-7.096l 28.909,20.648 l 22.627-22.628l-20.649-28.908c 2.997-5.36, 5.387-11.103, 7.096-17.133L 224.00,416.00l0.00-32.00 l-35.043-5.841 C 187.248,372.129, 184.858,366.387, 181.861,361.026z M 112.00,432.00c-17.674,0.00-32.00-14.327-32.00-32.00s 14.326-32.00, 32.00-32.00s 32.00,14.327, 32.00,32.00 S 129.674,432.00, 112.00,432.00zM 512.00,192.00l0.00-32.00 l-33.691-6.125c-0.621-4.023-1.416-7.989-2.362-11.895l 28.779-18.55L 492.48,93.866l-33.472,7.234 c-2.107-3.455-4.363-6.81-6.746-10.065l 19.503-28.171l-22.628-22.627l-28.171,19.503c-3.256-2.383-6.61-4.638-10.065-6.747 l 7.234-33.472L 388.571,7.274l-18.55,28.779c-3.906-0.946-7.872-1.741-11.895-2.362L 352.00,0.00l-32.00,0.00 l-6.126,33.691 c-4.023,0.621-7.988,1.416-11.895,2.362L 283.43,7.274L 253.866,19.52l 7.234,33.472c-3.455,2.108-6.81,4.364-10.065,6.747 l-28.171-19.503l-22.627,22.627l 19.503,28.171c-2.383,3.255-4.639,6.61-6.747,10.065l-33.472-7.234l-12.246,29.564l 28.779,18.55 c-0.946,3.906-1.741,7.871-2.362,11.895L 160.00,160.00l0.00,32.00 l 33.691,6.125c 0.621,4.023, 1.416,7.989, 2.362,11.895l-28.779,18.55 l 12.246,29.564l 33.472-7.234c 2.108,3.455, 4.364,6.809, 6.747,10.065l-19.503,28.171l 22.627,22.628l 28.171-19.503 c 3.255,2.383, 6.61,4.638, 10.065,6.746l-7.234,33.472l 29.564,12.246l 18.551-28.779c 3.905,0.946, 7.871,1.741, 11.894,2.362L 320.00,352.00l 32.00,0.00 l 6.126-33.691c 4.022-0.621, 7.988-1.416, 11.895-2.362l 18.55,28.779l 29.564-12.246l-7.234-33.472 c 3.455-2.108, 6.81-4.363, 10.065-6.746l 28.171,19.503l 22.628-22.628l-19.503-28.171c 2.383-3.256, 4.638-6.61, 6.746-10.065 l 33.472,7.234l 12.246-29.565l-28.779-18.55c 0.946-3.906, 1.741-7.871, 2.362-11.895L 512.00,192.00z M 336.00,245.60 c-38.439,0.00-69.60-31.161-69.60-69.60c0.00-38.439, 31.16-69.60, 69.60-69.60s 69.60,31.161, 69.60,69.60C 405.60,214.439, 374.44,245.60, 336.00,245.60z" ></path></svg>