<?xml version="1.0" encoding="utf-8"?> <!-- Generator: IcoMoon.io --> <!DOCTYPE svg PUBLIC "-//W3C//DTD SVG 1.1//EN" "http://www.w3.org/Graphics/SVG/1.1/DTD/svg11.dtd"> <svg width="512" height="512" viewBox="0 0 512 512" xmlns="http://www.w3.org/2000/svg" xmlns:xlink="http://www.w3.org/1999/xlink" fill="#000000"><path d="M 448,512l-384,0 q-26.5,0 -45.25-18.75t-18.75-45.25l0-384 q0-26.5 18.75-45.25t 45.25-18.75l 384,0 q 26.5,0 45.25,18.75t 18.75,45.25l0,384 q0,26.5 -18.75,45.25t-45.25,18.75zM 64,416q0,13.5 9.5,22.75t 22.5,9.25l 320,0 q 13,0 22.5-9.25t 9.5-22.75l0-96 l-80,0 q-8.5,0 -13-7.5l-67-67l0,122.5 l0,0.5 q0,6.5 -4.5,11t-11,4.5 l-0.5,0 q-11,0 -15-11l-82.5-109.5l-49.5,49q-4.5,7.5 -13,7.5l-48,0 l0,96 zM 416,64l-320,0 q-13,0 -22.5,9.5t-9.5,22.5l0,192 l 42.5,0 l 56-56q 1-2.5 2-3.5q 4.5-4.5 11.5-4.5t 11.5,4.5q 2.5,2.5 3.5,6.5l 65,86.5l0-113.5 l0-0.5 q0-6.5 4.5-11t 11-4.5l 0.5,0 q 8.5,0 13,7.5l 88.5,88.5l 74.5,0 l0-192 q0-13 -9.5-22.5t-22.5-9.5z" ></path></svg>