<?xml version="1.0" encoding="utf-8"?> <!-- Generator: IcoMoon.io --> <!DOCTYPE svg PUBLIC "-//W3C//DTD SVG 1.1//EN" "http://www.w3.org/Graphics/SVG/1.1/DTD/svg11.dtd"> <svg width="512" height="512" viewBox="0 0 512 512" xmlns="http://www.w3.org/2000/svg" xmlns:xlink="http://www.w3.org/1999/xlink" fill="#000000"><path d="M 448,384q-17.5,0 -32-8.75t-23-23.25l-9,0 l0,128 q0,13.5 -9.5,22.75t-22.5,9.25l-128,0 l0-9 q 14.5-8.5 23.25-23t 8.75-32q0-26.5 -18.75-45.25t-45.25-18.75t-45.25,18.75t-18.75,45.25q0,17.5 8.75,32t 23.25,23l0,9 l-128,0 q-13,0 -22.5-9.25t-9.5-22.75l0-128 l 9,0 q 8.5,14.5 23,23.25t 32,8.75 q 26.5,0 45.25-18.75t 18.75-45.25t-18.75-45.25t-45.25-18.75q-17.5,0 -32,8.75t-23,23.25l-9,0 l0-128 q0-13 9.5-22.5t 22.5-9.5l 128,0 l0-9 q-14.5-8.5 -23.25-23t-8.75-32q0-26.5 18.75-45.25t 45.25-18.75t 45.25,18.75t 18.75,45.25q0,17.5 -8.75,32t-23.25,23l0,9 l 128,0 q 13,0 22.5,9.5t 9.5,22.5l0,128 l 9,0 q 8.5-14.5 23-23.25 t 32-8.75q 26.5,0 45.25,18.75t 18.75,45.25t-18.75,45.25t-45.25,18.75z" ></path></svg>