<?xml version="1.0" encoding="utf-8"?> <!-- Generator: IcoMoon.io --> <!DOCTYPE svg PUBLIC "-//W3C//DTD SVG 1.1//EN" "http://www.w3.org/Graphics/SVG/1.1/DTD/svg11.dtd"> <svg width="192" height="192" viewBox="0 0 192 192" xmlns="http://www.w3.org/2000/svg" xmlns:xlink="http://www.w3.org/1999/xlink" fill="#000000"><path d="M 129.56,78.4c 6.44,0, 9.32,3.456, 9.32,3.456C 141.696,85.232, 144,84.4, 144,80L 144,64 c0-4.4-3.6-8-8-8l-24,0 c-4.4,0-5.232-2.304-1.848-5.128c0,0, 3.456-2.872, 3.456-9.312c0-3.304-1.952-6.296-5.152-8.464C 105.272,30.936, 100.864,29.6, 96,29.6 c-4.848,0-9.256,1.336-12.44,3.504C 80.376,35.264, 78.4,38.256, 78.4,41.56c0,6.44, 3.456,9.312, 3.456,9.312C 85.232,53.696, 84.4,56, 80,56L 56,56 C 51.6,56, 48,59.6, 48,64l0,16 c0,4.4, 2.304,5.232, 5.12,1.848c0,0, 2.88-3.456, 9.32-3.456c 3.312,0, 6.304,1.976, 8.472,5.168 C 73.072,86.744, 74.408,91.144, 74.408,96c0,4.864-1.336,9.264-3.504,12.448C 68.744,111.64, 65.752,113.6, 62.44,113.6 C 56,113.6, 53.12,110.152, 53.12,110.152C 50.304,106.768, 48,107.6, 48,112l0,32 c0,4.4, 3.6,8, 8,8l 24,0 c 4.4,0, 5.232-2.304, 1.856-5.128 c0,0-3.456-2.872-3.456-9.312c0-3.304, 1.976-6.296, 5.168-8.464C 86.744,126.936, 91.152,125.6, 96,125.6c 4.864,0, 9.272,1.336, 12.456,3.504 c 3.192,2.168, 5.152,5.16, 5.152,8.464c0,6.44-3.456,9.312-3.456,9.312C 106.768,149.696, 107.6,152, 112,152l 24,0 c 4.4,0, 8-3.6, 8-8l0-32 c0-4.4-2.304-5.232-5.12-1.848c0,0-2.88,3.456-9.32,3.456c-3.312,0-6.304-1.976-8.472-5.168c-2.168-3.176-3.504-7.576-3.504-12.44 c0-4.864, 1.336-9.264, 3.504-12.448C 123.256,80.36, 126.248,78.4, 129.56,78.4z" ></path></svg>