<?xml version="1.0" encoding="utf-8"?> <!-- Generator: IcoMoon.io --> <!DOCTYPE svg PUBLIC "-//W3C//DTD SVG 1.1//EN" "http://www.w3.org/Graphics/SVG/1.1/DTD/svg11.dtd"> <svg width="500.00000000000006" height="500" viewBox="0 0 500 500" xmlns="http://www.w3.org/2000/svg" xmlns:xlink="http://www.w3.org/1999/xlink" fill="#000000"><path d="M 418.175,321c-21.1,34.1-88.375,59.025-168.175,59.025c-79.75,0-147.075-24.925-168.15-59.025C 77.375,313.775, 75,317.65, 75,321.225 c0,3.6,0,50.050,0,50.050C 75,419.75, 153.35,470, 250,470s 175-50.25, 175-98.725c0,0,0-46.45,0-50.050C 425,317.65, 422.6,313.775, 418.175,321z M 418.425,193.125c-20.725,30.15-88.3,52.25-168.425,52.25s-147.7-22.1-168.425-52.25C 77.275,186.9, 75,190.275, 75,193.1c0,2.825,0,58.9,0,58.9 c0,44.075, 78.35,79.775, 175,79.775s 175-35.7, 175-79.775c0,0,0-56.075,0-58.9C 425,190.275, 422.7,186.9, 418.425,193.125z M 250,30 c-96.65,0-175,29.45-175,65.8l0,31.475 c0,38.55, 78.35,69.8, 175,69.8s 175-31.25, 175-69.8L 425,95.825 C 425,59.45, 346.65,30, 250,30z" ></path></svg>