<?xml version="1.0" encoding="utf-8"?> <!-- Generator: IcoMoon.io --> <!DOCTYPE svg PUBLIC "-//W3C//DTD SVG 1.1//EN" "http://www.w3.org/Graphics/SVG/1.1/DTD/svg11.dtd"> <svg width="512" height="512" viewBox="0 0 512 512" xmlns="http://www.w3.org/2000/svg" xmlns:xlink="http://www.w3.org/1999/xlink" fill="#000000"><path d="M 511.5,170.5q-0.5,7.5 -4.75,14.5t-10.75,7l-165,0 q-12,0.5 -11.5-17l 63-63q-54.5-48 -126.5-48q-52,0 -96.25,25.75t-70,70t-25.75,96.5t 25.75,96.25t 70,69.75t 96.25,25.75q 44,0 82.75-18.75t 65.75-51.75l 50.5,39.5q-36,44.5 -88,69.75t-111,25.25q-52,0 -99.5-20.25t-81.75-54.5 t-54.5-81.75t-20.25-99.5t 20.25-99.25t 54.5-81.5t 81.75-54.5t 99.5-20.25q 48.5,0 92.75,17.5t 79.25,49l 67-67q 17.5-0.5 17,11.5z" ></path></svg>