<?xml version="1.0" encoding="utf-8"?> <!-- Generator: IcoMoon.io --> <!DOCTYPE svg PUBLIC "-//W3C//DTD SVG 1.1//EN" "http://www.w3.org/Graphics/SVG/1.1/DTD/svg11.dtd"> <svg width="512" height="512" viewBox="0 0 512 512" xmlns="http://www.w3.org/2000/svg" xmlns:xlink="http://www.w3.org/1999/xlink" fill="#000000"><path d="M 420.528,251.856c-0.064,70.032-40.112,129.36-105.088,155.696 c-64.272,26.032-133.552,11.936-182.368-36.928l 53.424-53.36L 32,317.264 l0,154.304 l 59.008-58.944c 66.064,66.144, 159.808,85.184, 246.8,49.952 c 87.92-35.648, 142.112-115.904, 142.192-210.688L 420.528,251.856z M 91.472,260.144c 0.064-70.032, 40.096-129.36, 105.088-155.68 c 64.272-26.048, 133.552-11.968, 182.352,36.928l-53.408,53.344L 480,194.736 L 480,40.432 L 420.992,99.36c-66.064-66.128-159.824-85.184-246.8-49.952 C 86.256,85.040, 32.080,165.328, 32,260.096L 91.472,260.144z" ></path></svg>