<?xml version="1.0" encoding="utf-8"?>
<!-- Generated by IcoMoon.io -->
<!DOCTYPE svg PUBLIC "-//W3C//DTD SVG 1.1//EN" "http://www.w3.org/Graphics/SVG/1.1/DTD/svg11.dtd">
<svg version="1.1" xmlns="http://www.w3.org/2000/svg" xmlns:xlink="http://www.w3.org/1999/xlink" width="16" height="16" viewBox="0 0 16 16">
<g>
	<line stroke-width="1" x1="" y1="" x2="" y2="" stroke="#449FDB" opacity=""></line>
</g>
	<path d="M15.484-0.016l-2.094 2.094q-1.078-0.984-2.461-1.539t-2.914-0.555q-2.484 0-4.508 1.398t-2.914 3.633l1.859 0.75q0.672-1.688 2.18-2.734t3.383-1.047q2.266 0 3.969 1.516l-1.969 1.984q-0.016 0.219 0.133 0.367t0.367 0.133h4.828q0.219 0 0.43-0.211t0.227-0.43l0.016-5q0.016-0.375-0.531-0.359zM8.016 13.984q-2.266 0-3.969-1.5l1.969-1.984q0.016-0.219-0.133-0.367t-0.367-0.148h-4.828q-0.219 0.016-0.43 0.227t-0.227 0.43l-0.016 5q-0.016 0.375 0.531 0.359l2.094-2.094q1.078 0.984 2.461 1.531t2.914 0.547q2.484 0 4.508-1.391t2.914-3.641l-1.859-0.734q-0.672 1.688-2.18 2.727t-3.383 1.039z" fill="#000000"></path>
</svg>
