<?xml version="1.0" encoding="utf-8"?> <!-- Generator: IcoMoon.io --> <!DOCTYPE svg PUBLIC "-//W3C//DTD SVG 1.1//EN" "http://www.w3.org/Graphics/SVG/1.1/DTD/svg11.dtd"> <svg width="484" height="484" viewBox="0 0 484 484" xmlns="http://www.w3.org/2000/svg" xmlns:xlink="http://www.w3.org/1999/xlink" fill="#000000"><path d="M 462,231l-154-66l 61.556-43.978C 337.48,87.23, 292.27,66, 242,66 C 156.75,66, 85.712,126.61, 69.498,207.064L 28.424,190.058C 51.788,93.676, 138.424,22, 242,22c 65.054,0, 123.288,28.424, 163.592,73.304L 462,55L 462,231 z M 114.444,362.978C 146.498,396.77, 191.73,418, 242,418c 85.58,0, 156.816-61.072, 172.656-142.010l 41.030,17.556C 432.454,390.126, 345.73,462, 242,462 c-65.054,0-123.31-28.424-163.592-73.304L 22,429l0-176 l 154,66L 114.444,362.978z" ></path></svg>