<?xml version="1.0" encoding="UTF-8" standalone="no"?>
<!-- Created with Inkscape (http://www.inkscape.org/) -->

<svg
   xmlns:dc="http://purl.org/dc/elements/1.1/"
   xmlns:cc="http://creativecommons.org/ns#"
   xmlns:rdf="http://www.w3.org/1999/02/22-rdf-syntax-ns#"
   xmlns:svg="http://www.w3.org/2000/svg"
   xmlns="http://www.w3.org/2000/svg"
   xmlns:sodipodi="http://sodipodi.sourceforge.net/DTD/sodipodi-0.dtd"
   xmlns:inkscape="http://www.inkscape.org/namespaces/inkscape"
   width="32"
   height="32"
   viewBox="0 0 32 32"
   id="svg4169"
   version="1.1"
   inkscape:version="0.91 r13725"
   sodipodi:docname="rj45_yes.svg"
   inkscape:export-filename="./rj45_yes.png"
   inkscape:export-xdpi="90"
   inkscape:export-ydpi="90">
  <defs
     id="defs4171" />
  <sodipodi:namedview
     id="base"
     pagecolor="#ffffff"
     bordercolor="#666666"
     borderopacity="1.0"
     inkscape:pageopacity="0.0"
     inkscape:pageshadow="2"
     inkscape:zoom="11.313708"
     inkscape:cx="-17.198634"
     inkscape:cy="11.256342"
     inkscape:document-units="px"
     inkscape:current-layer="layer1"
     showgrid="false"
     units="px"
     inkscape:window-width="1475"
     inkscape:window-height="902"
     inkscape:window-x="1733"
     inkscape:window-y="62"
     inkscape:window-maximized="0" />
  <metadata
     id="metadata4174">
    <rdf:RDF>
      <cc:Work
         rdf:about="">
        <dc:format>image/svg+xml</dc:format>
        <dc:type
           rdf:resource="http://purl.org/dc/dcmitype/StillImage" />
        <dc:title />
        <dc:creator>
          <cc:Agent>
            <dc:title>Volker Theile</dc:title>
          </cc:Agent>
        </dc:creator>
      </cc:Work>
    </rdf:RDF>
  </metadata>
  <g
     inkscape:label="Ebene 1"
     inkscape:groupmode="layer"
     id="layer1"
     transform="translate(0,-1020.3621)">
    <path
       style="fill:#ffffff;stroke:#0a0a0a;stroke-width:1.17802262;stroke-linecap:square"
       d="m 1.5890112,1023.6776 c 9.6073258,0 19.2146518,0 28.8219778,0 1.043603,0 1.052419,1.152 1,1.9147 0,7.4849 0,14.9697 0,22.4545 -0.0017,1.0436 -1.151988,1.0524 -1.914722,1 -9.302419,0 -18.604837,0 -27.9072558,0 -1.0436032,-0 -1.05241899,-1.152 -1.00000001,-1.9147 0,-7.4849 0,-14.9697 0,-22.4545 -0.0129802,-0.5375 0.46229191,-1.0129 1.00000001,-1 z"
       id="rect3843"
       inkscape:connector-curvature="0" />
    <path
       style="fill:#999999;stroke:#0a0a0a;stroke-width:0.65638334;stroke-linecap:square;fill-opacity:1"
       d="m 4.2624707,1026.015 c 7.8249643,0 15.6499293,0 23.4748933,0 1.09732,-0.01 1.161259,1.1933 1.093985,2.0087 2.3e-5,4.3032 4.6e-5,8.6063 6.9e-5,12.9095 -1.902811,0 -3.805623,0 -5.708434,0 0,0.8239 0,1.6477 0,2.4716 -0.76088,0 -1.52176,0 -2.28264,0 4e-6,1.1015 8e-6,2.2031 1.2e-5,3.3046 -3.226868,0 -6.453736,0 -9.680604,0 -3e-6,-1.1015 -7e-6,-2.2031 -10e-6,-3.3046 -0.76088,0 -1.5217594,0 -2.2826391,0 0,-0.8239 0,-1.6477 0,-2.4716 -1.9028116,0 -3.8056232,0 -5.7084348,0 0.01472,-4.6814 -0.029571,-9.3657 0.022059,-14.0452 0.093677,-0.4987 0.5646161,-0.8821 1.0717433,-0.873 z"
       id="rect3787"
       inkscape:connector-curvature="0" />
    <path
       style="fill:#00ff00;fill-opacity:1;stroke:#0a0a0a;stroke-width:0.525;stroke-linecap:square;stroke-miterlimit:4;stroke-dasharray:none"
       d="m 3.1030347,1042.1279 c 1.4966415,0 2.993283,0 4.4899245,0 0,1.2156 0,2.4311 0,3.6466 -1.4966415,0 -2.993283,0 -4.4899245,0 0,-1.2155 0,-2.431 0,-3.6466 z"
       id="rect3803"
       inkscape:connector-curvature="0" />
    <path
       style="fill:#ffcc00;fill-opacity:1;stroke:#0a0a0a;stroke-width:0.52510667;stroke-linecap:square"
       d="m 24.406086,1042.1279 c 1.496641,0 2.993283,0 4.489924,0 0,1.2156 0,2.4311 0,3.6466 -1.496641,0 -2.993283,0 -4.489924,0 0,-1.2155 0,-2.431 0,-3.6466 z"
       id="rect3805"
       inkscape:connector-curvature="0" />
    <g
       id="g4154"
       transform="translate(-0.19374967,0)">
      <rect
         y="1026.2932"
         x="7.5348644"
         height="6.2992549"
         width="1.6867547"
         id="rect4158"
         style="fill:#dedede;fill-opacity:1;stroke:#000000;stroke-width:0.11324529;stroke-miterlimit:4;stroke-dasharray:none;stroke-opacity:1" />
      <rect
         y="1026.2932"
         x="9.7678671"
         height="6.2992549"
         width="1.6867547"
         id="rect4158-8"
         style="fill:#dedede;fill-opacity:1;stroke:#000000;stroke-width:0.11324529;stroke-miterlimit:4;stroke-dasharray:none;stroke-opacity:1" />
      <rect
         y="1026.2932"
         x="12.00087"
         height="6.2992549"
         width="1.6867547"
         id="rect4158-2"
         style="fill:#dedede;fill-opacity:1;stroke:#000000;stroke-width:0.11324529;stroke-miterlimit:4;stroke-dasharray:none;stroke-opacity:1" />
      <rect
         y="1026.2932"
         x="14.233872"
         height="6.2992554"
         width="1.6867547"
         id="rect4158-0"
         style="fill:#dedede;fill-opacity:1;stroke:#000000;stroke-width:0.1132453;stroke-miterlimit:4;stroke-dasharray:none;stroke-opacity:1" />
      <rect
         y="1026.2932"
         x="16.466875"
         height="6.2992554"
         width="1.6867547"
         id="rect4158-0-8"
         style="fill:#dedede;fill-opacity:1;stroke:#000000;stroke-width:0.1132453;stroke-miterlimit:4;stroke-dasharray:none;stroke-opacity:1" />
      <rect
         y="1026.2932"
         x="18.699877"
         height="6.2992554"
         width="1.6867547"
         id="rect4158-0-0"
         style="fill:#dedede;fill-opacity:1;stroke:#000000;stroke-width:0.1132453;stroke-miterlimit:4;stroke-dasharray:none;stroke-opacity:1" />
      <rect
         y="1026.2932"
         x="20.932878"
         height="6.2992554"
         width="1.6867547"
         id="rect4158-0-04"
         style="fill:#dedede;fill-opacity:1;stroke:#000000;stroke-width:0.1132453;stroke-miterlimit:4;stroke-dasharray:none;stroke-opacity:1" />
      <rect
         y="1026.2932"
         x="23.16588"
         height="6.2992554"
         width="1.6867547"
         id="rect4158-0-5"
         style="fill:#dedede;fill-opacity:1;stroke:#000000;stroke-width:0.1132453;stroke-miterlimit:4;stroke-dasharray:none;stroke-opacity:1" />
    </g>
  </g>
</svg>
