<?xml version="1.0" encoding="utf-8"?> <!-- Generator: IcoMoon.io --> <!DOCTYPE svg PUBLIC "-//W3C//DTD SVG 1.1//EN" "http://www.w3.org/Graphics/SVG/1.1/DTD/svg11.dtd"> <svg width="512" height="512" viewBox="0 0 512 512" xmlns="http://www.w3.org/2000/svg" xmlns:xlink="http://www.w3.org/1999/xlink" fill="#000000"><path d="M 480,512l-192,0 q-13,0 -22.5-9.25t-9.5-22.75l0-160 q0-13.5 9.5-22.75t 22.5-9.25l 96,0 q0-13 9.5-22.5t 22.75-9.5t 22.5,9.5t 9.25,22.5l 32,0 q 13.5,0 22.75,9.5t 9.25,22.5l0,160 q0,13.5 -9.25,22.75t-22.75,9.25zM 448,368q0-6.5 -4.75-11.25t-11.25-4.75l-96,0 q-6.5,0 -11.25,4.75t-4.75,11.25l0,64 q0,6.5 4.75,11.25 t 11.25,4.75l 96,0 q 6.5,0 11.25-4.75t 4.75-11.25l0-64 zM 416.25,224q-13.25,0 -22.75-9.25t-9.5-22.5t 9.5-22.75t 22.75-9.5t 22.5,9.5t 9.25,22.75t-9.25,22.5t-22.5,9.25zM 416.25,128q-13.25,0 -22.75-9.25t-9.5-22.75t 9.5-22.75t 22.75-9.25t 22.5,9.25t 9.25,22.75t-9.25,22.75t-22.5,9.25zM 320.25,128 q-13.25,0 -22.75-9.25t-9.5-22.75t 9.5-22.75t 22.75-9.25t 22.5,9.25t 9.25,22.75t-9.25,22.75t-22.5,9.25zM 224,224l-96,0 q0,13.5 -9.25,22.75t-22.5,9.25t-22.75-9.25t-9.5-22.75l-32,0 q-13,0 -22.5-9.25t-9.5-22.75l0-160 q0-13.5 9.5-22.75t 22.5-9.25l 192,0 q 13.5,0 22.75,9.25t 9.25,22.75l0,160 q0,13.5 -9.25,22.75t-22.75,9.25zM 192,80q0-6.5 -4.75-11.25t-11.25-4.75l-96,0 q-6.5,0 -11.25,4.75t-4.75,11.25l0,64 q0,6.5 4.75,11.25t 11.25,4.75l 96,0 q 6.5,0 11.25-4.75t 4.75-11.25l0-64 zM 95.75,288q 13.25,0 22.75,9.25t 9.5,22.5t-9.5,22.75t-22.5,9.5t-22.5-9.5t-9.5-22.75t 9.25-22.5t 22.5-9.25z M 95.75,384q 13.25,0 22.75,9.25t 9.5,22.75t-9.5,22.75t-22.5,9.25t-22.5-9.25t-9.5-22.75t 9.25-22.75t 22.5-9.25zM 192,384q 13.5,0 22.75,9.25t 9.25,22.75t-9.25,22.75t-22.5,9.25t-22.75-9.25t-9.5-22.75t 9.25-22.75t 22.75-9.25z" ></path></svg>