<?xml version="1.0" encoding="utf-8"?>
<!-- Generated by IcoMoon.io -->
<!DOCTYPE svg PUBLIC "-//W3C//DTD SVG 1.1//EN" "http://www.w3.org/Graphics/SVG/1.1/DTD/svg11.dtd">
<svg version="1.1" xmlns="http://www.w3.org/2000/svg" xmlns:xlink="http://www.w3.org/1999/xlink" width="16" height="16" viewBox="0 0 16 16">
<g>
</g>
	<path d="M13 6q-0.688 0-1.297-0.305t-1.031-0.82l-4.781 2.344q0.109 0.422 0.109 0.781t-0.109 0.781l4.781 2.344q0.438-0.531 1.039-0.828t1.289-0.297q1.25 0 2.125 0.875t0.875 2.117-0.875 2.125-2.125 0.883q-1.234 0-2.109-0.875t-0.891-2.109l-5.266-2.578q-0.781 0.563-1.734 0.563-1.25 0-2.125-0.883t-0.875-2.125 0.875-2.117 2.125-0.875q0.953 0 1.734 0.547l5.266-2.563q0.016-1.234 0.891-2.109t2.109-0.875q1.25 0 2.125 0.875t0.875 2.117-0.875 2.125-2.125 0.883z" fill="#000000"></path>
</svg>
