<?xml version="1.0" encoding="utf-8"?>
<!-- Generated by IcoMoon.io -->
<!DOCTYPE svg PUBLIC "-//W3C//DTD SVG 1.1//EN" "http://www.w3.org/Graphics/SVG/1.1/DTD/svg11.dtd">
<svg width="512" height="512" viewBox="0 0 512 512" xmlns="http://www.w3.org/2000/svg" xmlns:xlink="http://www.w3.org/1999/xlink" fill="#000000">
<path d="M416 192q-22 0-41.5-9.75t-33-26.25l-153 75q3.5 13.5 3.5 25t-3.5 25l153 75q14-17 33.25-26.5t41.25-9.5q40 0 68 28t28 67.75-28 68-68 28.25q-39.5 0-67.5-28t-28.5-67.5l-168.5-82.5q-25 18-55.5 18-40 0-68-28.25t-28-68 28-67.75 68-28q30.5 0 55.5 17.5l168.5-82q0.5-39.5 28.5-67.5t67.5-28q40 0 68 28t28 67.75-28 68-68 28.25z" ></path>
</svg>
