<?xml version="1.0" encoding="utf-8"?> <!-- Generator: IcoMoon.io --> <!DOCTYPE svg PUBLIC "-//W3C//DTD SVG 1.1//EN" "http://www.w3.org/Graphics/SVG/1.1/DTD/svg11.dtd"> <svg width="512" height="512" viewBox="0 0 512 512" xmlns="http://www.w3.org/2000/svg" xmlns:xlink="http://www.w3.org/1999/xlink" fill="#000000"><path d="M 256,512q-69.5,0 -128.5-34.25t-93.25-93.25t-34.25-128.5q0-48.5 17.25-92.5t 48.75-78.5q 1.5-1.5 5.75-6t 7-7.25t 7.5-5.25t 9.75-2.5q 13,0 22.5,9.5t 9.5,22.5q0,8 -1.75,14t-3.75,8l-1.5,2.5q-27,26.5 -42,61.5t-15,74q0,52 25.75,96.25t 70,70t 96.25,25.75t 96.25-25.75t 70-70t 25.75-96.25 q0-39 -15-74.25t-41.5-61.75q-7.5-7.5 -7.5-24q0-13 9.5-22.5t 22.5-9.5q 3.5,0 6.75,1t 5.25,2t 5.25,4t 4.25,4.25t 4.5,5.25t 4,4.5q 31.5,34.5 48.75,78.5t 17.25,92.5q0,52 -20.25,99.5t-54.5,81.75t-81.75,54.5t-99.5,20.25zM 256,256q-13.5,0 -22.75-9.25t-9.25-22.75l0-192 q0-13.5 9.5-22.75t 22.75-9.25 t 22.5,9.25t 9.25,22.75l0,192 q0,13.5 -9.25,22.75t-22.75,9.25z" ></path></svg>