<?xml version="1.0" encoding="UTF-8" standalone="no"?>
<!-- Created with Inkscape (http://www.inkscape.org/) -->

<svg
   xmlns:dc="http://purl.org/dc/elements/1.1/"
   xmlns:cc="http://creativecommons.org/ns#"
   xmlns:rdf="http://www.w3.org/1999/02/22-rdf-syntax-ns#"
   xmlns:svg="http://www.w3.org/2000/svg"
   xmlns="http://www.w3.org/2000/svg"
   xmlns:sodipodi="http://sodipodi.sourceforge.net/DTD/sodipodi-0.dtd"
   xmlns:inkscape="http://www.inkscape.org/namespaces/inkscape"
   width="64"
   height="64"
   viewBox="0 0 63.999999 63.999999"
   id="svg4146"
   version="1.1"
   inkscape:version="0.91 r13725"
   sodipodi:docname="shutdown_64.svg"
   inkscape:export-filename="./shutdown_64.png"
   inkscape:export-xdpi="90"
   inkscape:export-ydpi="90">
  <metadata
     id="metadata11">
    <rdf:RDF>
      <cc:Work
         rdf:about="">
        <dc:format>image/svg+xml</dc:format>
        <dc:type
           rdf:resource="http://purl.org/dc/dcmitype/StillImage" />
        <dc:title />
        <dc:creator>
          <cc:Agent>
            <dc:title>Volker Theile</dc:title>
          </cc:Agent>
        </dc:creator>
      </cc:Work>
    </rdf:RDF>
  </metadata>
  <defs
     id="defs4148" />
  <sodipodi:namedview
     id="base"
     pagecolor="#ffffff"
     bordercolor="#666666"
     borderopacity="1.0"
     inkscape:pageopacity="0.0"
     inkscape:pageshadow="2"
     inkscape:zoom="5.6"
     inkscape:cx="-4.3527487"
     inkscape:cy="30.50569"
     inkscape:document-units="px"
     inkscape:current-layer="layer1"
     showgrid="false"
     units="px"
     inkscape:window-width="1270"
     inkscape:window-height="712"
     inkscape:window-x="1787"
     inkscape:window-y="200"
     inkscape:window-maximized="0" />
  <g
     inkscape:label="Ebene 1"
     inkscape:groupmode="layer"
     id="layer1"
     transform="translate(0,-988.3622)">
    <path
       style="fill:#ea4335;fill-opacity:1;fill-rule:nonzero;stroke:none"
       d="M 8.7691e-7,1020.3686 C -0.17437818,1007.7859 7.9080465,995.64752 19.538426,990.87795 c 11.426827,-4.97979 25.621775,-2.39984 34.535722,6.32358 9.033211,8.39287 12.334545,22.22087 8.115624,33.79977 -4.079882,12.0004 -15.872061,20.8436 -28.550182,21.3193 -12.32235,0.7968 -24.640477,-6.3441 -30.1401998,-17.386 -2.3047739,-4.4858 -3.50706411,-9.524 -3.49938932309,-14.566 z"
       id="path12"
       inkscape:connector-curvature="0" />
    <path
       d="m 38.187238,1011.3972 0,0 0,0 m 0,0 0,0 0,0 m 0,0 0,0 0,0 m 0,0 0,0 0,0 m 0,0 0,0 0,0 z"
       style="fill:#ffffff;fill-opacity:1;fill-rule:nonzero;stroke:none"
       id="path18"
       inkscape:connector-curvature="0" />
    <path
       style="fill:#ffffff"
       d="m 32,1038.3622 q -4.886719,0 -9.035156,-2.4082 -4.148437,-2.4082 -6.556641,-6.5566 Q 14,1025.2489 14,1020.3622 q 0,-3.4102 1.212891,-6.5039 1.212891,-3.0937 3.427734,-5.5195 0.105469,-0.1055 0.404297,-0.4219 0.298828,-0.3164 0.492188,-0.5098 0.193359,-0.1933 0.527343,-0.3691 0.333985,-0.1758 0.685547,-0.1758 0.914063,0 1.582032,0.668 0.667968,0.668 0.667968,1.582 0,0.5625 -0.123047,0.9844 -0.123046,0.4219 -0.263671,0.5625 l -0.105469,0.1758 q -1.898438,1.8633 -2.953125,4.3242 Q 18.5,1017.62 18.5,1020.3622 q 0,3.6563 1.810547,6.7676 1.810547,3.1113 4.921875,4.9219 3.111328,1.8105 6.767578,1.8105 3.65625,0 6.767578,-1.8105 3.111328,-1.8106 4.921875,-4.9219 1.810547,-3.1113 1.810547,-6.7676 0,-2.7422 -1.054688,-5.2207 -1.054687,-2.4785 -2.917968,-4.3418 Q 41,1010.2724 41,1009.1122 q 0,-0.914 0.667969,-1.582 0.667968,-0.668 1.582031,-0.668 0.246094,0 0.474609,0.07 0.228516,0.07 0.369141,0.1407 0.140625,0.07 0.369141,0.2812 0.228515,0.2109 0.298828,0.2988 0.07031,0.088 0.316406,0.3692 0.246094,0.2812 0.28125,0.3164 2.214844,2.4258 3.427734,5.5195 Q 50,1016.9517 50,1020.3619 q 0,3.6563 -1.423828,6.9961 -1.423828,3.3398 -3.832031,5.748 -2.408204,2.4082 -5.748047,3.8321 -3.339844,1.4238 -6.996094,1.4238 z m 0,-18 q -0.949219,0 -1.599609,-0.6504 Q 29.75,1019.0614 29.75,1018.1122 l 0,-13.5 q 0,-0.9492 0.667969,-1.5996 0.667968,-0.6504 1.599609,-0.6504 0.931641,0 1.582031,0.6504 0.650391,0.6504 0.650391,1.5996 l 0,13.5 q 0,0.9492 -0.650391,1.5996 -0.65039,0.6504 -1.599609,0.6504 z"
       id="path4"
       inkscape:connector-curvature="0" />
  </g>
</svg>
