<?xml version="1.0" encoding="utf-8"?> <!-- Generator: IcoMoon.io --> <!DOCTYPE svg PUBLIC "-//W3C//DTD SVG 1.1//EN" "http://www.w3.org/Graphics/SVG/1.1/DTD/svg11.dtd"> <svg width="512" height="512" viewBox="0 0 512 512" xmlns="http://www.w3.org/2000/svg" xmlns:xlink="http://www.w3.org/1999/xlink" fill="#000000"><path d="M 448,512l-384,0 q-26.5,0 -45.25-18.75t-18.75-45.25t 18.75-45.25t 45.25-18.75l 384,0 q 26.5,0 45.25,18.75t 18.75,45.25t-18.75,45.25t-45.25,18.75zM 95.75,416q-13.25,0 -22.5,9.5t-9.25,22.75t 9.25,22.5t 22.5,9.25t 22.75-9.25t 9.5-22.5t-9.5-22.75t-22.75-9.5zM 416,416l-192,0 q-13.5,0 -22.75,9.5t-9.25,22.75 t 9.25,22.5t 22.75,9.25l 192,0 q 13,0 22.5-9.25t 9.5-22.5t-9.5-22.75t-22.5-9.5zM 400,224l-20,0 q-4.5,17.5 -14.5,34l 9.5,9.5q 9,9 9,21.75t-9,21.75t-21.75,9t-21.75-9l-9.5-10q-16.5,10 -34,14.5l0,20.5 q0,13.5 -9.25,22.75t-22.5,9.25t-22.75-9.25t-9.5-22.75l0-20.5 q-17.5-4.5 -34-14.5l-10,10 q-9,9 -21.75,9t-21.75-9t-9-21.75t 9-21.75l 10-10q-10-16 -14.5-33.5l-20,0 q-13.5,0 -22.75-9.25t-9.25-22.5t 9.25-22.75t 22.75-9.5l 20,0 q 4.5-17.5 14.5-34l-10-10q-9-9 -9-21.75t 9-21.75t 21.75-9t 21.75,9l 10,10.5q 16.5-10 34-14.5l0-20.5 q0-13 9.25-22.5t 22.5-9.5t 22.75,9.5t 9.5,22.5l0,20.5 q 17.5,4.5 33.5,14l 10-10 q 9-9 21.75-9t 21.75,9t 9,21.75t-9,21.75l-10,9.5q 10.5,17 15,34.5l 20,0 q 13.5,0 22.75,9.5t 9.25,22.75t-9.5,22.5t-22.5,9.25zM 256,128q-26.5,0 -45.25,18.75t-18.75,45.25t 18.75,45.25t 45.25,18.75t 45.25-18.75t 18.75-45.25t-18.75-45.25t-45.25-18.75z" ></path></svg>