<?xml version="1.0" encoding="utf-8"?> <!-- Generator: IcoMoon.io --> <!DOCTYPE svg PUBLIC "-//W3C//DTD SVG 1.1//EN" "http://www.w3.org/Graphics/SVG/1.1/DTD/svg11.dtd"> <svg width="512" height="512" viewBox="0 0 512 512" xmlns="http://www.w3.org/2000/svg" xmlns:xlink="http://www.w3.org/1999/xlink" fill="#000000"><path d="M 511,78.5l-59.5,100l0,301.5 q0,13.5 -9.25,22.75t-22.75,9.25l-320,0 q-13.5,0 -22.75-9.5t-9.25-22.5l0-301.5 l-59.5-100q-7-11 -3.5-23.5t 15-19t 24.25-3t 19.25,14.5l 47.5,80l 298,0 l 47.5-80q 6.5-11 19.25-14.5t 24.25,3t 15,19t-3.5,23.5zM 355.5,288.5l-6,0 q-5.5-15 -17-29l 3-5q 6.5-11 3-23.5t-15-18.75t-24.25-3 t-19.25,14.25l-3,5q-9.5-2 -17.5-2t-17.5,2l-3-5q-6.5-11 -19.25-14.25t-24.25,3t-15,18.75t 3,23.5l 3.5,5q-12,14 -17.5,29l-6,0 q-13.5,0 -22.75,9.25t-9.25,22t 9.25,22t 22.75,9.25l 6,0 q 5.5,15.5 17.5,29l-3.5,5q-6.5,11 -3,23.5t 15,19t 24.25,3t 19.25-14.5l 3-4.5q 9.5,1.5 17.5,1.5t 17.5-1.5l 3,4.5 q 6.5,11 19.25,14.5t 24.25-3t 15-19t-3-23.5l-3-5q 11.5-13.5 17-29l 6,0 q 13.5,0 22.75-9.25t 9.25-22t-9.25-22t-22.75-9.25zM 259.5,352q-13,0 -22.5-9.5t-9.5-22.5t 9.5-22.5t 22.5-9.5t 22.5,9.5t 9.5,22.5t-9.5,22.5t-22.5,9.5zM 99.5,31.5q0-13.5 9.25-22.75t 22.75-9.25l 256,0 q 13.5,0 22.75,9.5t 9.25,22.5l0,64 l-320,0 l0-64 z" ></path></svg>