<?xml version="1.0" encoding="utf-8"?> <!-- Generator: IcoMoon.io --> <!DOCTYPE svg PUBLIC "-//W3C//DTD SVG 1.1//EN" "http://www.w3.org/Graphics/SVG/1.1/DTD/svg11.dtd"> <svg width="500.00000000000006" height="500" viewBox="0 0 500 500" xmlns="http://www.w3.org/2000/svg" xmlns:xlink="http://www.w3.org/1999/xlink" fill="#000000"><path d="M 17.25,283.3l 34.075,8.45l 25.65-40.3L 28.225,239.375c-12.2-3.050-24.525,4.35-27.55,16.5 C-2.35,267.975, 5.075,280.275, 17.25,283.3z M 462.025,289.8l-111.575,100.45l-131.2-101.525c-2.5-1.95-5.375-3.325-8.45-4.1 l-17.475-4.3l-25.65,40.275l 27.475,6.775l 142.45,110.2c 4.125,3.225, 9.025,4.775, 13.95,4.775c 5.475,0, 10.95-1.95, 15.25-5.85 l 125.675-113.125c 9.325-8.4, 10.025-22.7, 1.625-31.975C 485.725,282.125, 471.35,281.4, 462.025,289.8z M 217.1,179.525l 122.175,78.225 c 10.3,6.575, 24,3.85, 30.975-6.175l 125.7-181.050c 7.125-10.3, 4.55-24.375-5.775-31.5s-24.475-4.525-31.625,5.75l-113.2,163.050 L 222.425,129.125C 217.35,125.875, 211.175,124.775, 205.25,126.075S 194.2,130.95, 190.975,136.050L 3.55,430.275c-6.75,10.55-3.6,24.5, 7,31.2 C 14.325,463.875, 18.55,465, 22.725,465c 7.525,0, 14.875-3.7, 19.2-10.5L 217.1,179.525z" ></path></svg>