<?xml version="1.0" encoding="utf-8"?> <!-- Generator: IcoMoon.io --> <!DOCTYPE svg PUBLIC "-//W3C//DTD SVG 1.1//EN" "http://www.w3.org/Graphics/SVG/1.1/DTD/svg11.dtd"> <svg width="512" height="512" viewBox="0 0 512 512" xmlns="http://www.w3.org/2000/svg" xmlns:xlink="http://www.w3.org/1999/xlink" fill="#000000"><path d="M 448,512l-384,0 q-26.5,0 -45.25-18.75t-18.75-45.25l0-384 q0-26.5 18.75-45.25t 45.25-18.75l 384,0 q 26.5,0 45.25,18.75t 18.75,45.25l0,384 q0,26.5 -18.75,45.25t-45.25,18.75zM 224,32q-13.5,0 -22.75,9.25t-9.25,22.75t 9.25,22.75t 22.5,9.25t 22.75-9.25t 9.5-22.75t-9.25-22.75t-22.75-9.25zM 320,32 q-13.5,0 -22.75,9.25t-9.25,22.75t 9.25,22.75t 22.5,9.25t 22.75-9.25t 9.5-22.75t-9.25-22.75t-22.75-9.25zM 416,32q-13.5,0 -22.75,9.25t-9.25,22.75t 9.25,22.75t 22.5,9.25t 22.75-9.25t 9.5-22.75t-9.25-22.75t-22.75-9.25zM 448,160q0-13 -9.5-22.5t-22.5-9.5l-320,0 q-13.5,0 -22.75,9.5t-9.25,22.5l0,256 q0,13 9.25,22.5t 22.75,9.5l 320,0 q 13,0 22.5-9.5t 9.5-22.5l0-256 zM 368,352l-96,0 q-6.5,0 -11.25-4.75t-4.75-11.25t 4.75-11.25t 11.25-4.75l 96,0 q 6.5,0 11.25,4.75t 4.75,11.25t-4.75,11.25t-11.25,4.75zM 218.5,284l-62.5,62.5q-5,5 -12,5t-11.75-5t-4.75-11.75t 5-11.25l 51.5-51.5l-51.5-51.5q-5-4.5 -5-11.25 t 4.75-11.75t 11.75-5t 12,5l 62.5,62.5q 2,2 1.5,2.5q 3.5,5 3.25,11t-4.75,10.5z" ></path></svg>