<?xml version="1.0" encoding="utf-8"?>
<!-- Generated by IcoMoon.io -->
<!DOCTYPE svg PUBLIC "-//W3C//DTD SVG 1.1//EN" "http://www.w3.org/Graphics/SVG/1.1/DTD/svg11.dtd">
<svg version="1.1" xmlns="http://www.w3.org/2000/svg" xmlns:xlink="http://www.w3.org/1999/xlink" width="16" height="16" viewBox="0 0 16 16">
<g id="icomoon-ignore">
	<line stroke-width="1" x1="" y1="" x2="" y2="" stroke="#449FDB" opacity=""></line>
</g>
	<path d="M15 3h-14q-0.406 0-0.703-0.289t-0.297-0.703 0.289-0.711 0.711-0.297h5q0-0.406 0.289-0.703t0.711-0.297h2q0.422 0 0.711 0.297t0.289 0.703h5q0.406 0 0.703 0.297t0.297 0.711-0.297 0.703-0.703 0.289zM15 14q0 0.828-0.586 1.414t-1.414 0.586h-10q-0.828 0-1.414-0.586t-0.586-1.414v-10h14v10zM5 7q0-0.406-0.297-0.703t-0.711-0.297-0.703 0.297-0.289 0.703v6q0 0.422 0.289 0.711t0.703 0.289 0.711-0.289 0.297-0.711v-6zM9 7q0-0.406-0.297-0.703t-0.711-0.297-0.703 0.297-0.289 0.703v6q0 0.422 0.289 0.711t0.703 0.289 0.711-0.289 0.297-0.711v-6zM13 7q0-0.406-0.297-0.703t-0.711-0.297-0.703 0.297-0.289 0.703v6q0 0.422 0.289 0.711t0.703 0.289 0.711-0.289 0.297-0.711v-6z" fill="#000000"></path>
</svg>
