<?xml version="1.0" encoding="utf-8"?> <!-- Generator: IcoMoon.io --> <!DOCTYPE svg PUBLIC "-//W3C//DTD SVG 1.1//EN" "http://www.w3.org/Graphics/SVG/1.1/DTD/svg11.dtd"> <svg width="500.00000000000006" height="500" viewBox="0 0 500 500" xmlns="http://www.w3.org/2000/svg" xmlns:xlink="http://www.w3.org/1999/xlink" fill="#000000"><path d="M 370.5,361.2c-61.625-22.45-81.325-41.4-81.325-81.975c0-24.35, 18.825-16.4, 27.075-61c 3.425-18.5, 20.050-0.3, 23.25-42.525 c0-16.825-9.075-21.025-9.075-21.025s 4.625-24.925, 6.425-44.075C 339.050,86.7, 323.050,25, 237.5,25C 151.975,25, 135.925,86.7, 138.175,110.6 C 139.975,129.75, 144.6,154.675, 144.6,154.675S 135.5,158.85, 135.5,175.7c 3.175,42.225, 19.8,24.025, 23.225,42.525 c 8.275,44.6, 27.1,36.65, 27.1,61c0,40.575-19.7,59.525-81.325,81.975c-61.85,22.5-102,45.475-102,61.15c0,15.65,0,52.625,0,52.625 l 235,0 l 235,0 c0,0,0-36.975,0-52.625C 472.5,406.7, 432.325,383.725, 370.5,361.2z" ></path></svg>