<?xml version="1.0" encoding="UTF-8" standalone="no"?>
<!-- Generator: IcoMoon.io -->

<svg
   xmlns:dc="http://purl.org/dc/elements/1.1/"
   xmlns:cc="http://creativecommons.org/ns#"
   xmlns:rdf="http://www.w3.org/1999/02/22-rdf-syntax-ns#"
   xmlns:svg="http://www.w3.org/2000/svg"
   xmlns="http://www.w3.org/2000/svg"
   xmlns:sodipodi="http://sodipodi.sourceforge.net/DTD/sodipodi-0.dtd"
   xmlns:inkscape="http://www.inkscape.org/namespaces/inkscape"
   width="16"
   height="16"
   viewBox="0 0 16 16"
   fill="#000000"
   id="svg2"
   version="1.1"
   inkscape:version="0.91 r13725"
   sodipodi:docname="warn.svg"
   inkscape:export-filename="./warn.png"
   inkscape:export-xdpi="90"
   inkscape:export-ydpi="90">
  <metadata
     id="metadata12">
    <rdf:RDF>
      <cc:Work
         rdf:about="">
        <dc:format>image/svg+xml</dc:format>
        <dc:type
           rdf:resource="http://purl.org/dc/dcmitype/StillImage" />
      </cc:Work>
    </rdf:RDF>
  </metadata>
  <defs
     id="defs10" />
  <sodipodi:namedview
     pagecolor="#ffffff"
     bordercolor="#666666"
     borderopacity="1"
     objecttolerance="10"
     gridtolerance="10"
     guidetolerance="10"
     inkscape:pageopacity="0"
     inkscape:pageshadow="2"
     inkscape:window-width="1098"
     inkscape:window-height="596"
     id="namedview8"
     showgrid="false"
     inkscape:zoom="14.75"
     inkscape:cx="8"
     inkscape:cy="10.711864"
     inkscape:window-x="1898"
     inkscape:window-y="245"
     inkscape:window-maximized="0"
     inkscape:current-layer="svg2" />
  <g
     id="g4"
     style="fill:#ffd04a;fill-opacity:1">
    <path
       d="M 16,14q0,0.406 -0.289,0.703t-0.711,0.297l-14,0 q-0.422,0 -0.711-0.297t-0.289-0.703q0-0.266 0.141-0.5l 6.859-11.5q 0.125-0.281 0.18-0.375t 0.188-0.289t 0.281-0.266t 0.352-0.070q 0.266,0 0.461,0.156t 0.297,0.336t 0.242,0.508l 6.859,11.5q 0.141,0.234 0.141,0.5zM 9,6q0-0.422 -0.289-0.711t-0.711-0.289t-0.711,0.289t-0.289,0.711l0,3 q0,0.406 0.297,0.703 t 0.703,0.297t 0.703-0.297t 0.297-0.703l0-3 zM 7.992,11q-0.414,0 -0.703,0.289t-0.289,0.703t 0.297,0.711t 0.703,0.297t 0.703-0.297t 0.297-0.711t-0.297-0.703t-0.711-0.289z"
       id="path6"
       style="fill:#ffd04a;fill-opacity:1" />
  </g>
</svg>
