<?xml version="1.0" encoding="utf-8"?> <!-- Generator: IcoMoon.io --> <!DOCTYPE svg PUBLIC "-//W3C//DTD SVG 1.1//EN" "http://www.w3.org/Graphics/SVG/1.1/DTD/svg11.dtd"> <svg width="512" height="512" viewBox="0 0 512 512" xmlns="http://www.w3.org/2000/svg" xmlns:xlink="http://www.w3.org/1999/xlink" fill="#000000"><path d="M 501.467,408.938l-230.276-197.38C 281.915,191.409, 288.00,168.417, 288.00,144.00C 288.00,64.471, 223.529,0.00, 144.00,0.00 c-14.547,0.00-28.586,2.166-41.823,6.177l 83.195,83.195c 12.445,12.445, 12.445,32.81,0.00,45.255l-50.745,50.745 c-12.445,12.445-32.81,12.445-45.255,0.00L 6.177,102.177C 2.166,115.414,0.00,129.453,0.00,144.00c0.00,79.529, 64.471,144.00, 144.00,144.00 c 24.417,0.00, 47.409-6.085, 67.558-16.81l 197.38,230.276c 11.454,13.362, 31.008,14.113, 43.452,1.669l 50.746-50.746 C 515.58,439.945, 514.829,420.392, 501.467,408.938z" ></path></svg>