<?xml version="1.0" encoding="utf-8"?> <!-- Generator: IcoMoon.io --> <!DOCTYPE svg PUBLIC "-//W3C//DTD SVG 1.1//EN" "http://www.w3.org/Graphics/SVG/1.1/DTD/svg11.dtd"> <svg width="512" height="512" viewBox="0 0 512 512" xmlns="http://www.w3.org/2000/svg" xmlns:xlink="http://www.w3.org/1999/xlink" fill="#000000"><path d="M 480,480l-32,0 l0-128 l 32,0 q 13.5,0 22.75,9.25t 9.25,22.75l0,64 q0,13.5 -9.25,22.75t-22.75,9.25zM 480,320l-32,0 l0-128 l 32,0 q 13.5,0 22.75,9.25t 9.25,22.75l0,64 q0,13.5 -9.25,22.75t-22.75,9.25zM 480,160l-32,0 l0-128 l 32,0 q 13.5,0 22.75,9.25t 9.25,22.75l0,64 q0,13.5 -9.25,22.75t-22.75,9.25z M 416,480q0,13 -9.25,22.5t-22.75,9.5l-352,0 q-13,0 -22.5-9.5t-9.5-22.5l0-448 q0-13.5 9.5-22.75t 22.5-9.25l 352,0 q 13.5,0 22.75,9.25t 9.25,22.75l0,448 zM 240,307l0-9 q 48-19.5 48-106q0-31.5 -22.25-47.75t-57.5-16.25t-57.75,16.25t-22.5,47.75q0,84 48,105.5l0,9.5 q-34.5,6 -57,22.5t-23,37.5q0,6 10.75,9.75 t 31.5,5.25t 34.25,1.75t 35.5,0.25t 35.5-0.25t 34.25-1.75t 31.5-5.25t 10.75-9.75q-0.5-21 -23-37.5t-57-22.5z" ></path></svg>