<?xml version="1.0" encoding="utf-8"?> <!-- Generator: IcoMoon.io --> <!DOCTYPE svg PUBLIC "-//W3C//DTD SVG 1.1//EN" "http://www.w3.org/Graphics/SVG/1.1/DTD/svg11.dtd"> <svg width="512" height="512" viewBox="0 0 512 512" xmlns="http://www.w3.org/2000/svg" xmlns:xlink="http://www.w3.org/1999/xlink" fill="#000000"><path d="M 480,288l-35,0 q-7,43.5 -32.5,79l 26,26q 9.5,9 9.5,22.5t-9.5,23t-23,9.5t-23-9.5l-25.5-26q-36,25.5 -79,32.5l0,35 q0,13.5 -9.5,22.75t-22.75,9.25t-22.5-9.25t-9.25-22.75l0-35 q-43.5-7 -79-32.5l-26.5,26q-9,9.5 -22.5,9.5t-23-9.5t-9.5-23t 9.5-22.5l 26-26.5q-25-35.5 -32-78.5l-35,0 q-13.5,0 -22.75-9.25t-9.25-22.5t 9.25-22.75t 22.75-9.5l 35,0 q 7-43 32.5-79l-26.5-26q-9.5-9.5 -9.5-23t 9.5-23t 23-9.5t 22.5,9.5l 26.5,26.5q 36-25.5 79-32.5l0-35 q0-13 9.25-22.5t 22.5-9.5t 22.75,9.5t 9.5,22.5l0,35 q 43,7 78.5,32l 26-26q 9.5-9.5 23-9.5t 23,9.5t 9.5,23t-9.5,22.5l-26,26.5q 25.5,35.5 32.5,79l 35,0 q 13,0 22.5,9.5t 9.5,22.75t-9.5,22.5t-22.5,9.25zM 128,192q0,12 1.5,26.5t 4.5,31t 9.75,27.5t 16.25,11q 11.5,0 21.5-1.25t 20.25-4.5t 16.25-10t 6-16.25zM 208,352q-6.5,0 -11.25,4.75t-4.75,11.25t 4.75,11.25t 11.25,4.75l 96,0 q 6.5,0 11.25-4.75t 4.75-11.25t-4.75-11.25t-11.25-4.75l-96,0 zM 288,256q0,9.5 6,16.25 t 16.25,10t 20.25,4.5t 21.5,1.25q 9.5,0 16.25-11t 9.75-27.5t 4.5-31t 1.5-26.5z" ></path></svg>