<?xml version="1.0" encoding="utf-8"?> <!-- Generator: IcoMoon.io --> <!DOCTYPE svg PUBLIC "-//W3C//DTD SVG 1.1//EN" "http://www.w3.org/Graphics/SVG/1.1/DTD/svg11.dtd"> <svg width="512" height="512" viewBox="0 0 512 512" xmlns="http://www.w3.org/2000/svg" xmlns:xlink="http://www.w3.org/1999/xlink" fill="#000000"><path d="M 126.864,249.376l 101.824-101.824l 51.248,51.248c-4.256,8.912-2.784,19.856, 4.608,27.232 c 7.376,7.392, 18.336,8.864, 27.232,4.624l 52.656,52.656l-101.808,101.824L 126.864,249.376z M 318.48,192.096c-7.376-7.376-18.336-8.864-27.232-4.608 L 240,136.24l 79.184-79.184c 12.496-12.496, 32.768-12.496, 45.248,0l 90.528,90.496c 12.48,12.496, 12.48,32.768,0,45.248L 375.76,272l-52.672-52.656 C 327.344,210.416, 325.872,199.472, 318.48,192.096z M 138.176,464.336l-90.512-90.496l 90.512-90.512l 90.512,90.512L 138.176,464.336z M 116.256,373.104 l-22.624-22.624l-23.344,23.344l 22.64,22.624L 116.256,373.104z M 161.504,418.368L 138.88,395.744l-23.328,23.328l 22.624,22.624L 161.504,418.368z" ></path></svg>