<?xml version="1.0" encoding="utf-8"?> <!-- Generator: IcoMoon.io --> <!DOCTYPE svg PUBLIC "-//W3C//DTD SVG 1.1//EN" "http://www.w3.org/Graphics/SVG/1.1/DTD/svg11.dtd"> <svg width="512" height="512" viewBox="0 0 512 512" xmlns="http://www.w3.org/2000/svg" xmlns:xlink="http://www.w3.org/1999/xlink" fill="#000000"><path d="M 256.224,353.312c-0.592,0.00-1.184,0.00-1.776,0.00c-140.512,0.00-254.16-34.128-254.192-60.336 l-0.256-102.928c0.00-0.16, 0.064-0.304, 0.064-0.432c 23.136,10.976, 50.32,16.032, 66.576,19.056c 50.512,9.392, 117.232,14.576, 187.808,14.576l 1.776,0.00 c 71.024-0.08, 138.128-5.392, 189.008-14.944c 16.272-3.056, 43.36-8.144, 66.512-19.056c0.00,0.048,0.00,0.144,0.00,0.144l 0.272,102.928 C 512.048,318.64, 397.568,353.12, 256.224,353.312z M 256.224,192.256c-0.592,0.00-1.184,0.00-1.776,0.00c-140.512,0.00-254.16-31.136-254.192-57.344 l-0.256-86.944C-0.048,21.664, 114.496,0.176, 255.84,0.00c 0.624,0.00, 1.216,0.00, 1.84,0.00c 140.464,0.00, 254.032,21.12, 254.064,47.328l 0.272,86.944 C 512.048,160.576, 397.568,192.064, 256.224,192.256z M 254.432,384.32l 1.776,0.00 c 71.024-0.096, 138.144-8.384, 189.008-17.936 c 16.272-3.056, 43.36-8.144, 66.528-19.072l 0.256,116.736c 0.032,26.32-114.448,47.792-255.792,47.968c-0.608,0.00-1.184,0.00-1.808,0.00 c-140.48,0.00-254.128-21.12-254.16-47.312L0.00,347.664c 23.136,10.992, 50.336,16.048, 66.624,19.072C 117.136,376.144, 183.84,384.32, 254.432,384.32z" ></path></svg>