<!-- Generated by IcoMoon.io -->
<svg version="1.1" xmlns="http://www.w3.org/2000/svg" width="16" height="16" viewBox="0 0 16 16">
<path d="M14 16h-12q-0.828 0-1.414-0.586t-0.586-1.414v-12q0-0.828 0.586-1.414t1.414-0.586h12q0.828 0 1.414 0.586t0.586 1.414v12q0 0.828-0.586 1.414t-1.414 0.586zM2 1q-0.406 0-0.703 0.289t-0.297 0.711v3h1v-4zM8 14q1.359 0 2.508-0.672t1.82-1.82 0.672-2.508-0.672-2.508-1.82-1.82-2.508-0.672-2.508 0.672-1.82 1.82-0.672 2.508 0.672 2.508 1.82 1.82 2.508 0.672zM15 2q0-0.422-0.289-0.711t-0.711-0.289h-10v3.531q1.719-1.531 4-1.531 1.313 0 2.469 0.531t2 1.469h2.531v-3zM12 3.5v-1q0-0.203 0.148-0.352t0.352-0.148h1q0.203 0 0.352 0.148t0.148 0.352v1q0 0.203-0.148 0.352t-0.352 0.148h-1q-0.203 0-0.352-0.148t-0.148-0.352zM8 6q1.25 0 2.125 0.875t0.875 2.125-0.875 2.125-2.125 0.875-2.125-0.875-0.875-2.125 0.875-2.125 2.125-0.875z"></path>
</svg>
