<?xml version="1.0" encoding="UTF-8" standalone="no"?>
<!-- Created with Inkscape (http://www.inkscape.org/) -->

<svg
   width="90.753891mm"
   height="9.3493166mm"
   viewBox="0 0 321.56891 33.127499"
   id="svg4578"
   version="1.1"
   inkscape:version="1.2.2 (b0a8486541, 2022-12-01)"
   sodipodi:docname="openmediavault_logo_simple.svg"
   inkscape:export-filename="./header_logo.png"
   inkscape:export-xdpi="90"
   inkscape:export-ydpi="90"
   xmlns:inkscape="http://www.inkscape.org/namespaces/inkscape"
   xmlns:sodipodi="http://sodipodi.sourceforge.net/DTD/sodipodi-0.dtd"
   xmlns="http://www.w3.org/2000/svg"
   xmlns:svg="http://www.w3.org/2000/svg"
   xmlns:rdf="http://www.w3.org/1999/02/22-rdf-syntax-ns#"
   xmlns:cc="http://creativecommons.org/ns#"
   xmlns:dc="http://purl.org/dc/elements/1.1/">
  <title
     id="title4144">OpenMediaVault logo</title>
  <defs
     id="defs4580" />
  <sodipodi:namedview
     id="base"
     pagecolor="#98b7cf"
     bordercolor="#666666"
     borderopacity="1.0"
     inkscape:pageopacity="0"
     inkscape:pageshadow="2"
     inkscape:zoom="2.018853"
     inkscape:cx="118.38405"
     inkscape:cy="9.1636191"
     inkscape:document-units="px"
     inkscape:current-layer="layer1"
     showgrid="false"
     inkscape:window-width="1536"
     inkscape:window-height="891"
     inkscape:window-x="0"
     inkscape:window-y="0"
     inkscape:window-maximized="1"
     fit-margin-top="0"
     fit-margin-left="0"
     fit-margin-right="0"
     fit-margin-bottom="0"
     inkscape:pagecheckerboard="0"
     inkscape:showpageshadow="2"
     inkscape:deskcolor="#98b7cf" />
  <metadata
     id="metadata4583">
    <rdf:RDF>
      <cc:Work
         rdf:about="">
        <dc:format>image/svg+xml</dc:format>
        <dc:type
           rdf:resource="http://purl.org/dc/dcmitype/StillImage" />
        <dc:title>OpenMediaVault logo</dc:title>
        <dc:creator>
          <cc:Agent>
            <dc:title>Volker Theile</dc:title>
          </cc:Agent>
        </dc:creator>
        <dc:rights>
          <cc:Agent>
            <dc:title>Volker Theile</dc:title>
          </cc:Agent>
        </dc:rights>
        <dc:date>15.09.2016</dc:date>
      </cc:Work>
    </rdf:RDF>
  </metadata>
  <g
     inkscape:label="Ebene 1"
     inkscape:groupmode="layer"
     id="layer1"
     transform="translate(-139.51472,-591.83551)">
    <g
       id="g1273">
      <g
         id="g4192-1-4"
         transform="matrix(0.7894192,0,0,0.7894192,36.354866,125.15774)">
        <path
           id="rect3772-1-2-9-1-9-0-4"
           style="fill:none;stroke:#ffffff;stroke-width:2.03694"
           d="m 133.55328,592.18445 h 40.2165 c 1.02857,0 1.85663,0.82806 1.85663,1.85663 v 36.21419 c 0,1.02857 -0.82806,1.85663 -1.85663,1.85663 h -40.2165 c -1.02858,0 -1.85664,-0.82806 -1.85664,-1.85663 v -36.21419 c 0,-1.02857 0.82806,-1.85663 1.85664,-1.85663 z" />
        <g
           id="g4372-4-9"
           transform="translate(-26.507754,-88.860304)">
          <path
             inkscape:connector-curvature="0"
             id="path23-4-1-6-9-0-2-9"
             d="m 163.94765,686.42298 c -0.38058,0 -0.68819,0.2853 -0.68819,0.6388 v 7.0865 c 0,0.3535 0.30762,0.6392 0.68819,0.6392 h 32.44367 c 0.37849,0 0.68778,-0.2877 0.68778,-0.6392 v -7.0865 c 0,-0.3535 -0.3072,-0.6388 -0.68778,-0.6388 z m 3.93921,1.6958 a 2.4863311,2.4863311 0 0 1 2.48647,2.4865 2.4863311,2.4863311 0 0 1 -2.48647,2.4864 2.4863311,2.4863311 0 0 1 -2.48605,-2.4864 2.4863311,2.4863311 0 0 1 2.48605,-2.4865 z m 0,1.1881 a 1.29858,1.29858 0 0 0 -1.29836,1.2984 1.29858,1.29858 0 0 0 1.29836,1.2987 1.29858,1.29858 0 0 0 1.29878,-1.2987 1.29858,1.29858 0 0 0 -1.29878,-1.2984 z"
             style="fill:#ffffff;fill-opacity:1" />
          <path
             inkscape:connector-curvature="0"
             id="path23-4-1-8-7-5-2-3"
             d="m 163.94765,696.82628 c -0.38058,0 -0.68819,0.2853 -0.68819,0.6388 v 7.0865 c 0,0.3534 0.30762,0.6392 0.68819,0.6392 h 32.44367 c 0.37849,0 0.68778,-0.2877 0.68778,-0.6392 v -7.0865 c 0,-0.3535 -0.3072,-0.6388 -0.68778,-0.6388 z m 3.93921,1.6958 a 2.4863311,2.4863311 0 0 1 2.48647,2.4864 2.4863311,2.4863311 0 0 1 -2.48647,2.4865 2.4863311,2.4863311 0 0 1 -2.48605,-2.4865 2.4863311,2.4863311 0 0 1 2.48605,-2.4864 z m 0,1.1881 a 1.29858,1.29858 0 0 0 -1.29836,1.2983 1.29858,1.29858 0 0 0 1.29836,1.2988 1.29858,1.29858 0 0 0 1.29878,-1.2988 1.29858,1.29858 0 0 0 -1.29878,-1.2983 z"
             style="fill:#ffffff;fill-opacity:1" />
          <path
             inkscape:connector-curvature="0"
             id="path23-4-1-8-3-8-73-2-6"
             d="m 163.94765,707.22958 c -0.38058,0 -0.68819,0.2853 -0.68819,0.6388 v 7.0865 c 0,0.3534 0.30762,0.6391 0.68819,0.6391 h 32.44367 c 0.37849,0 0.68778,-0.2876 0.68778,-0.6391 v -7.0865 c 0,-0.3535 -0.3072,-0.6388 -0.68778,-0.6388 z m 3.93921,1.6957 a 2.4863311,2.4863311 0 0 1 2.48647,2.4865 2.4863311,2.4863311 0 0 1 -2.48647,2.4865 2.4863311,2.4863311 0 0 1 -2.48605,-2.4865 2.4863311,2.4863311 0 0 1 2.48605,-2.4865 z m 0,1.1881 a 1.29858,1.29858 0 0 0 -1.29836,1.2984 1.29858,1.29858 0 0 0 1.29836,1.2988 1.29858,1.29858 0 0 0 1.29878,-1.2988 1.29858,1.29858 0 0 0 -1.29878,-1.2984 z"
             style="fill:#ffffff;fill-opacity:1" />
        </g>
      </g>
      <g
         aria-label="openmediavault"
         id="text28296"
         style="font-size:33.75px;font-family:'TeX Gyre Adventor';-inkscape-font-specification:'TeX Gyre Adventor';fill:#ffffff;stroke-width:1.875">
        <path
           d="m 189.12604,608.28113 c 0,5.67 4.15125,9.7875 9.88875,9.7875 5.4,0 9.3825,-4.08375 9.3825,-9.61875 0,-5.63625 -4.05,-9.72 -9.585,-9.72 -5.4675,0 -9.68625,4.15125 -9.68625,9.55125 z m 2.53125,0.0675 c 0,-4.185 3.07125,-7.32375 7.155,-7.32375 4.05,0 7.05375,3.1725 7.05375,7.45875 0,4.21875 -2.9025,7.29 -6.91875,7.29 -4.2525,0 -7.29,-3.105 -7.29,-7.425 z"
           id="path1223" />
        <path
           d="m 211.94107,624.10988 h 2.4975 v -9.6525 c 1.62,2.3625 4.1175,3.61125 7.18875,3.61125 5.50125,0 9.7875,-4.21875 9.7875,-9.61875 0,-5.50125 -4.21875,-9.72 -9.72,-9.72 -3.13875,0 -5.70375,1.2825 -7.25625,3.61125 v -3.1725 h -2.4975 z m 2.32875,-15.795 c 0,-4.08375 3.24,-7.29 7.32375,-7.29 4.15125,0 7.29,3.1725 7.29,7.425 0,4.15125 -3.13875,7.32375 -7.25625,7.32375 -4.21875,0 -7.3575,-3.20625 -7.3575,-7.45875 z"
           id="path1225" />
        <path
           d="m 234.24979,608.31488 c 0,5.4675 4.28625,9.75375 9.75375,9.75375 4.185,0 7.79625,-3.00375 8.9775,-6.51375 h -2.59875 c -1.04625,2.53125 -3.645,4.21875 -6.44625,4.21875 -3.78,0 -6.98625,-2.9025 -7.18875,-6.5475 h 16.70625 c 0,-6.5475 -4.15125,-10.49625 -9.61875,-10.49625 -5.36625,0 -9.585,4.21875 -9.585,9.585 z m 2.565,-1.35 c 0.675,-3.54375 3.47625,-5.94 6.98625,-5.94 3.5775,0 6.31125,2.26125 7.155,5.94 z"
           id="path1227" />
        <path
           d="m 256.89603,617.62988 h 2.4975 v -10.15875 c 0,-4.5225 2.295,-6.44625 5.63625,-6.44625 3.40875,0 5.70375,1.89 5.70375,6.91875 v 9.68625 h 2.4975 v -9.68625 c 0,-6.48 -3.27375,-9.21375 -7.8975,-9.21375 -2.43,0 -4.3875,0.945 -5.94,2.835 v -2.39625 h -2.4975 z"
           id="path1229" />
        <path
           d="m 277.48355,617.62988 h 2.4975 v -10.76625 c 0,-3.67875 1.85625,-5.83875 4.96125,-5.83875 2.835,0 4.995,1.72125 4.995,5.83875 v 10.76625 h 2.4975 v -10.69875 c 0,-4.185 2.12625,-5.94 5.0625,-5.94 3.0375,0 4.89375,1.78875 4.89375,5.94 v 10.69875 h 2.4975 v -10.96875 c 0,-5.36625 -3.0375,-7.965 -7.25625,-7.965 -2.86875,0 -4.86,1.11375 -6.4125,3.5775 -1.45125,-2.46375 -3.27375,-3.54375 -6.04125,-3.54375 -2.32875,0 -3.78,0.70875 -5.1975,2.565 v -2.12625 h -2.4975 z"
           id="path1231" />
        <path
           d="m 308.43229,608.31488 c 0,5.4675 4.28625,9.75375 9.75375,9.75375 4.185,0 7.79625,-3.00375 8.9775,-6.51375 h -2.59875 c -1.04625,2.53125 -3.645,4.21875 -6.44625,4.21875 -3.78,0 -6.98625,-2.9025 -7.18875,-6.5475 h 16.70625 c 0,-6.5475 -4.15125,-10.49625 -9.61875,-10.49625 -5.36625,0 -9.585,4.21875 -9.585,9.585 z m 2.565,-1.35 c 0.675,-3.54375 3.47625,-5.94 6.98625,-5.94 3.5775,0 6.31125,2.26125 7.155,5.94 z"
           id="path1233" />
        <path
           d="m 330.36977,608.41613 c 0,5.4675 4.35375,9.6525 10.0575,9.6525 3.07125,0 5.16375,-1.11375 7.02,-3.78 v 3.34125 h 2.4975 v -24.94125 h -2.4975 v 9.41625 c -1.8225,-2.19375 -4.35375,-3.375 -7.25625,-3.375 -5.56875,0 -9.82125,4.185 -9.82125,9.68625 z m 2.53125,-0.10125 c 0,-4.05 3.20625,-7.29 7.2225,-7.29 4.08375,0 7.425,3.27375 7.425,7.32375 0,4.05 -3.24,7.425 -7.18875,7.425 -4.21875,0 -7.45875,-3.24 -7.45875,-7.45875 z"
           id="path1235" />
        <path
           d="m 354.19725,617.62988 h 2.4975 v -18.46125 h -2.4975 z m 0,-20.48625 h 2.4975 v -4.2525 h -2.4975 z"
           id="path1237" />
        <path
           d="m 360.23853,608.44988 c 0,5.50125 4.21875,9.61875 9.88875,9.61875 3.13875,0 5.16375,-1.04625 7.12125,-3.67875 v 3.24 h 2.4975 v -18.46125 h -2.4975 v 3.27375 c -1.8225,-2.565 -4.08375,-3.7125 -7.29,-3.7125 -5.535,0 -9.72,4.185 -9.72,9.72 z m 2.53125,-0.16875 c 0,-4.01625 3.24,-7.25625 7.25625,-7.25625 4.05,0 7.2225,3.1725 7.2225,7.29 0,4.185 -3.105,7.45875 -7.0875,7.45875 -4.185,0 -7.39125,-3.27375 -7.39125,-7.4925 z"
           id="path1239" />
        <path
           d="m 382.1423,599.16863 7.7625,18.46125 h 2.6325 l 7.7625,-18.46125 h -2.53125 l -6.615,15.525 -6.48,-15.525 z"
           id="path1241" />
        <path
           d="m 401.14359,608.44988 c 0,5.50125 4.21875,9.61875 9.88875,9.61875 3.13875,0 5.16375,-1.04625 7.12125,-3.67875 v 3.24 h 2.4975 v -18.46125 h -2.4975 v 3.27375 c -1.8225,-2.565 -4.08375,-3.7125 -7.29,-3.7125 -5.535,0 -9.72,4.185 -9.72,9.72 z m 2.53125,-0.16875 c 0,-4.01625 3.24,-7.25625 7.25625,-7.25625 4.05,0 7.2225,3.1725 7.2225,7.29 0,4.185 -3.105,7.45875 -7.0875,7.45875 -4.185,0 -7.39125,-3.27375 -7.39125,-7.4925 z"
           id="path1243" />
        <path
           d="m 424.90361,609.12488 c 0,6.44625 3.13875,8.94375 7.83,8.94375 2.86875,0 4.69125,-1.0125 5.94,-3.3075 v 2.86875 h 2.4975 v -18.46125 h -2.4975 v 9.48375 c 0,5.02875 -2.3625,7.12125 -5.7375,7.12125 -3.5775,0 -5.535,-1.9575 -5.535,-6.64875 v -9.95625 h -2.4975 z"
           id="path1245" />
        <path
           d="m 445.4236,617.62988 h 2.4975 v -24.94125 h -2.4975 z"
           id="path1247" />
        <path
           d="m 450.45238,601.42988 h 3.9825 v 16.2 h 2.4975 v -16.2 h 4.15125 v -2.26125 h -4.15125 v -6.48 h -2.4975 v 6.48 h -3.9825 z"
           id="path1249" />
      </g>
    </g>
  </g>
</svg>
