<?xml version="1.0" encoding="UTF-8" standalone="no"?>
<!-- Created with Inkscape (http://www.inkscape.org/) -->

<svg
   width="90.753891mm"
   height="9.3493166mm"
   viewBox="0 0 321.56891 33.127499"
   id="svg4578"
   version="1.1"
   inkscape:version="1.1.1 (3bf5ae0d25, 2021-09-20)"
   sodipodi:docname="openmediavault_logo_simple.svg"
   inkscape:export-filename="./header_logo.png"
   inkscape:export-xdpi="90"
   inkscape:export-ydpi="90"
   xmlns:inkscape="http://www.inkscape.org/namespaces/inkscape"
   xmlns:sodipodi="http://sodipodi.sourceforge.net/DTD/sodipodi-0.dtd"
   xmlns="http://www.w3.org/2000/svg"
   xmlns:svg="http://www.w3.org/2000/svg"
   xmlns:rdf="http://www.w3.org/1999/02/22-rdf-syntax-ns#"
   xmlns:cc="http://creativecommons.org/ns#"
   xmlns:dc="http://purl.org/dc/elements/1.1/">
  <title
     id="title4144">OpenMediaVault logo</title>
  <defs
     id="defs4580" />
  <sodipodi:namedview
     id="base"
     pagecolor="#98b7cf"
     bordercolor="#666666"
     borderopacity="1.0"
     inkscape:pageopacity="0"
     inkscape:pageshadow="2"
     inkscape:zoom="2.018853"
     inkscape:cx="189.46402"
     inkscape:cy="8.6682884"
     inkscape:document-units="px"
     inkscape:current-layer="layer1"
     showgrid="false"
     inkscape:window-width="1920"
     inkscape:window-height="1138"
     inkscape:window-x="0"
     inkscape:window-y="372"
     inkscape:window-maximized="1"
     fit-margin-top="0"
     fit-margin-left="0"
     fit-margin-right="0"
     fit-margin-bottom="0"
     inkscape:pagecheckerboard="0" />
  <metadata
     id="metadata4583">
    <rdf:RDF>
      <cc:Work
         rdf:about="">
        <dc:format>image/svg+xml</dc:format>
        <dc:type
           rdf:resource="http://purl.org/dc/dcmitype/StillImage" />
        <dc:title>OpenMediaVault logo</dc:title>
        <dc:creator>
          <cc:Agent>
            <dc:title>Volker Theile</dc:title>
          </cc:Agent>
        </dc:creator>
        <dc:rights>
          <cc:Agent>
            <dc:title>Volker Theile</dc:title>
          </cc:Agent>
        </dc:rights>
        <dc:date>15.09.2016</dc:date>
      </cc:Work>
    </rdf:RDF>
  </metadata>
  <g
     inkscape:label="Ebene 1"
     inkscape:groupmode="layer"
     id="layer1"
     transform="translate(-139.51472,-591.83551)">
    <g
       id="text5056-8-4-1-5-1"
       style="font-style:normal;font-variant:normal;font-weight:normal;font-stretch:normal;font-size:34.9713px;line-height:125%;font-family:'URW Gothic L';-inkscape-font-specification:'URW Gothic L, Normal';text-align:start;writing-mode:lr-tb;text-anchor:start;fill:#ffffff;fill-opacity:1;stroke:none"
       transform="matrix(0.98282159,0,0,1.0174787,0,-0.66959155)">
      <path
         id="path4145"
         style="font-style:normal;font-variant:normal;font-weight:normal;font-stretch:normal;font-size:34.9713px;line-height:125%;font-family:'URW Gothic L';-inkscape-font-specification:'URW Gothic L, Normal';text-align:start;writing-mode:lr-tb;text-anchor:start;fill:#ffffff;fill-opacity:1"
         d="m 196.54588,588.58673 c -5.66534,0 -10.03676,4.30147 -10.03676,9.89688 0,5.87517 4.30147,10.14167 10.24659,10.14167 5.59541,0 9.72202,-4.23153 9.72202,-9.96682 0,-5.8402 -4.19655,-10.07173 -9.93185,-10.07173 z m 0,2.37805 c 4.19656,0 7.30901,3.2873 7.30901,7.72865 0,4.37142 -3.00754,7.5538 -7.16912,7.5538 -4.40638,0 -7.5538,-3.21736 -7.5538,-7.69368 0,-4.33644 3.18239,-7.58877 7.41391,-7.58877 z" />
      <path
         id="path4147"
         style="font-style:normal;font-variant:normal;font-weight:normal;font-stretch:normal;font-size:34.9713px;line-height:125%;font-family:'URW Gothic L';-inkscape-font-specification:'URW Gothic L, Normal';text-align:start;writing-mode:lr-tb;text-anchor:start;fill:#ffffff;fill-opacity:1"
         d="m 210.12513,589.04136 v 25.84378 h 2.58788 v -10.00179 c 1.67862,2.44799 4.26649,3.74193 7.44888,3.74193 5.70032,0 10.14168,-4.37141 10.14168,-9.96682 0,-5.70032 -4.37142,-10.07173 -10.07174,-10.07173 -3.25233,0 -5.91015,1.32891 -7.51882,3.74193 v -3.2873 z m 10.00179,1.92342 c 4.30147,0 7.5538,3.2873 7.5538,7.69368 0,4.30147 -3.25233,7.58877 -7.51883,7.58877 -4.37141,0 -7.62374,-3.32227 -7.62374,-7.72865 0,-4.23153 3.35724,-7.5538 7.58877,-7.5538 z" />
      <path
         id="path4149"
         style="font-style:normal;font-variant:normal;font-weight:normal;font-stretch:normal;font-size:34.9713px;line-height:125%;font-family:'URW Gothic L';-inkscape-font-specification:'URW Gothic L, Normal';text-align:start;writing-mode:lr-tb;text-anchor:start;fill:#ffffff;fill-opacity:1"
         d="m 253.12725,599.4628 c 0,-2.62285 -0.34971,-4.23152 -1.29393,-5.91015 -1.7136,-3.0425 -5.03587,-4.96592 -8.67289,-4.96592 -5.56043,0 -9.93184,4.37141 -9.93184,9.93185 0,5.66535 4.44135,10.1067 10.1067,10.1067 2.44799,0 4.7561,-0.90925 6.50466,-2.5529 1.36388,-1.29394 2.27314,-2.62285 2.79771,-4.19656 h -2.69279 c -1.08411,2.62285 -3.7769,4.37141 -6.67952,4.37141 -3.91679,0 -7.23906,-3.00753 -7.44889,-6.78443 z m -17.24084,-2.34307 c 0.69942,-3.67199 3.60204,-6.15495 7.23905,-6.15495 3.70696,0 6.53964,2.34307 7.41392,6.15495 z" />
      <path
         id="path4151"
         style="font-style:normal;font-variant:normal;font-weight:normal;font-stretch:normal;font-size:34.9713px;line-height:125%;font-family:'URW Gothic L';-inkscape-font-specification:'URW Gothic L, Normal';text-align:start;writing-mode:lr-tb;text-anchor:start;fill:#ffffff;fill-opacity:1"
         d="m 256.70798,608.17065 h 2.58788 v -10.52636 c 0,-2.13324 0.27977,-3.25233 1.01417,-4.33644 1.01416,-1.46879 2.7977,-2.34307 4.82603,-2.34307 1.88845,0 3.60205,0.76937 4.65119,2.0633 0.90925,1.18903 1.25896,2.58788 1.25896,5.10581 v 10.03676 h 2.58788 v -10.03676 c 0,-3.21736 -0.45463,-4.93095 -1.67862,-6.5746 -1.50377,-1.88845 -3.81187,-2.97256 -6.50466,-2.97256 -2.51794,0 -4.54627,0.9792 -6.15495,2.93759 v -2.48296 h -2.58788 z" />
      <path
         id="path4153"
         style="font-style:normal;font-variant:normal;font-weight:normal;font-stretch:normal;font-size:34.9713px;line-height:125%;font-family:'URW Gothic L';-inkscape-font-specification:'URW Gothic L, Normal';text-align:start;writing-mode:lr-tb;text-anchor:start;fill:#ffffff;fill-opacity:1"
         d="m 278.01862,608.17065 h 2.58788 v -11.15584 c 0,-3.81187 1.92342,-6.05003 5.14078,-6.05003 1.57371,0 3.0425,0.62948 3.98672,1.74856 0.83932,0.9792 1.18903,2.30811 1.18903,4.30147 v 11.15584 h 2.58787 v -11.0859 c 0,-1.85347 0.27978,-3.0425 0.90926,-3.95175 0.90925,-1.39885 2.51793,-2.20319 4.33644,-2.20319 1.67862,0 3.14742,0.66445 4.0217,1.8185 0.69942,0.9792 1.04914,2.41302 1.04914,4.33644 v 11.0859 h 2.58787 v -11.36567 c 0,-2.51793 -0.45462,-4.16158 -1.53873,-5.52546 -1.32891,-1.74857 -3.49713,-2.72776 -5.9801,-2.72776 -2.97256,0 -5.03586,1.15405 -6.64454,3.70696 -1.50377,-2.55291 -3.39222,-3.67199 -6.25986,-3.67199 -2.41302,0 -3.91679,0.7344 -5.38558,2.65782 v -2.20319 h -2.58788 z" />
      <path
         id="path4155"
         style="font-style:normal;font-variant:normal;font-weight:normal;font-stretch:normal;font-size:34.9713px;line-height:125%;font-family:'URW Gothic L';-inkscape-font-specification:'URW Gothic L, Normal';text-align:start;writing-mode:lr-tb;text-anchor:start;fill:#ffffff;fill-opacity:1"
         d="m 329.96847,599.4628 c 0,-2.62285 -0.34971,-4.23152 -1.29393,-5.91015 -1.7136,-3.0425 -5.03587,-4.96592 -8.67288,-4.96592 -5.56044,0 -9.93185,4.37141 -9.93185,9.93185 0,5.66535 4.44135,10.1067 10.1067,10.1067 2.44799,0 4.7561,-0.90925 6.50466,-2.5529 1.36388,-1.29394 2.27314,-2.62285 2.79771,-4.19656 h -2.69279 c -1.08411,2.62285 -3.7769,4.37141 -6.67952,4.37141 -3.91679,0 -7.23906,-3.00753 -7.44889,-6.78443 z m -17.24084,-2.34307 c 0.69942,-3.67199 3.60204,-6.15495 7.23905,-6.15495 3.70696,0 6.53964,2.34307 7.41392,6.15495 z" />
      <path
         id="path4157"
         style="font-style:normal;font-variant:normal;font-weight:normal;font-stretch:normal;font-size:34.9713px;line-height:125%;font-family:'URW Gothic L';-inkscape-font-specification:'URW Gothic L, Normal';text-align:start;writing-mode:lr-tb;text-anchor:start;fill:#ffffff;fill-opacity:1"
         d="m 353.09817,582.32687 h -2.58788 v 9.75699 c -1.88845,-2.27314 -4.51129,-3.49713 -7.51883,-3.49713 -5.77026,0 -10.17664,4.33644 -10.17664,10.03676 0,5.66535 4.51129,10.00179 10.42144,10.00179 3.18239,0 5.35061,-1.15405 7.27403,-3.91678 v 3.46215 h 2.58788 z m -10.17665,8.63791 c 4.23153,0 7.69369,3.39221 7.69369,7.58877 0,4.19655 -3.35725,7.69368 -7.44889,7.69368 -4.37141,0 -7.72865,-3.35724 -7.72865,-7.72865 0,-4.19656 3.32227,-7.5538 7.48385,-7.5538 z" />
      <path
         id="path4159"
         style="font-style:normal;font-variant:normal;font-weight:normal;font-stretch:normal;font-size:34.9713px;line-height:125%;font-family:'URW Gothic L';-inkscape-font-specification:'URW Gothic L, Normal';text-align:start;writing-mode:lr-tb;text-anchor:start;fill:#ffffff;fill-opacity:1"
         d="m 357.52367,608.17065 h 2.58788 v -19.12929 h -2.58788 z m 0,-21.4374 h 2.58788 v -4.40638 h -2.58788 z" />
      <path
         id="path4161"
         style="font-style:normal;font-variant:normal;font-weight:normal;font-stretch:normal;font-size:34.9713px;line-height:125%;font-family:'URW Gothic L';-inkscape-font-specification:'URW Gothic L, Normal';text-align:start;writing-mode:lr-tb;text-anchor:start;fill:#ffffff;fill-opacity:1"
         d="m 383.96962,589.04136 h -2.58788 v 3.39221 c -1.88845,-2.65782 -4.23153,-3.84684 -7.5538,-3.84684 -5.73529,0 -10.07173,4.33644 -10.07173,10.07173 0,5.70032 4.37141,9.96682 10.24659,9.96682 3.25233,0 5.35061,-1.08411 7.37894,-3.81187 v 3.35724 h 2.58788 z m -10.07174,1.92342 c 4.19656,0 7.48386,3.2873 7.48386,7.5538 0,4.33644 -3.21736,7.72865 -7.34397,7.72865 -4.33644,0 -7.65871,-3.39221 -7.65871,-7.76362 0,-4.16159 3.35724,-7.51883 7.51882,-7.51883 z" />
      <path
         id="path4163"
         style="font-style:normal;font-variant:normal;font-weight:normal;font-stretch:normal;font-size:34.9713px;line-height:125%;font-family:'URW Gothic L';-inkscape-font-specification:'URW Gothic L, Normal';text-align:start;writing-mode:lr-tb;text-anchor:start;fill:#ffffff;fill-opacity:1"
         d="m 394.51674,608.17065 h 2.72776 l 8.0434,-19.12929 h -2.62285 l -6.85437,16.08679 -6.71449,-16.08679 h -2.62285 z" />
      <path
         id="path4165"
         style="font-style:normal;font-variant:normal;font-weight:normal;font-stretch:normal;font-size:34.9713px;line-height:125%;font-family:'URW Gothic L';-inkscape-font-specification:'URW Gothic L, Normal';text-align:start;writing-mode:lr-tb;text-anchor:start;fill:#ffffff;fill-opacity:1"
         d="m 427.27392,589.04136 h -2.58787 v 3.39221 c -1.88845,-2.65782 -4.23153,-3.84684 -7.5538,-3.84684 -5.73529,0 -10.07174,4.33644 -10.07174,10.07173 0,5.70032 4.37142,9.96682 10.24659,9.96682 3.25233,0 5.35061,-1.08411 7.37895,-3.81187 v 3.35724 h 2.58787 z m -10.07173,1.92342 c 4.19656,0 7.48386,3.2873 7.48386,7.5538 0,4.33644 -3.21736,7.72865 -7.34397,7.72865 -4.33645,0 -7.65872,-3.39221 -7.65872,-7.76362 0,-4.16159 3.35725,-7.51883 7.51883,-7.51883 z" />
      <path
         id="path4167"
         style="font-style:normal;font-variant:normal;font-weight:normal;font-stretch:normal;font-size:34.9713px;line-height:125%;font-family:'URW Gothic L';-inkscape-font-specification:'URW Gothic L, Normal';text-align:start;writing-mode:lr-tb;text-anchor:start;fill:#ffffff;fill-opacity:1"
         d="m 448.55723,589.04136 h -2.58787 v 9.82693 c 0,2.34308 -0.34971,3.81187 -1.15405,5.0009 -1.08411,1.50376 -2.79771,2.37804 -4.79107,2.37804 -2.13325,0 -3.95176,-0.87428 -4.82604,-2.41302 -0.59451,-0.97919 -0.90925,-2.51793 -0.90925,-4.47632 v -10.31653 h -2.58788 v 10.31653 c 0,2.83267 0.4896,4.82604 1.50377,6.22489 1.43382,1.99336 3.74192,3.0425 6.60957,3.0425 2.97256,0 4.86101,-1.04914 6.15495,-3.42719 v 2.97256 h 2.58787 z" />
      <path
         id="path4169"
         style="font-style:normal;font-variant:normal;font-weight:normal;font-stretch:normal;font-size:34.9713px;line-height:125%;font-family:'URW Gothic L';-inkscape-font-specification:'URW Gothic L, Normal';text-align:start;writing-mode:lr-tb;text-anchor:start;fill:#ffffff;fill-opacity:1"
         d="m 452.94338,608.17065 h 2.58788 v -25.84378 h -2.58788 z" />
      <path
         id="path4171"
         style="font-style:normal;font-variant:normal;font-weight:normal;font-stretch:normal;font-size:34.9713px;line-height:125%;font-family:'URW Gothic L';-inkscape-font-specification:'URW Gothic L, Normal';text-align:start;writing-mode:lr-tb;text-anchor:start;fill:#ffffff;fill-opacity:1"
         d="m 462.25341,608.17065 h 2.58787 v -16.78622 h 4.30147 v -2.34307 h -4.30147 v -6.71449 h -2.58787 v 6.71449 h -4.12662 v 2.34307 h 4.12662 z" />
    </g>
    <g
       id="g4192"
       transform="matrix(0.7894192,0,0,0.7894192,36.354866,125.15774)">
      <rect
         ry="1.8566352"
         y="592.18445"
         x="131.69664"
         height="39.927456"
         width="43.929771"
         id="rect3772-1-2-9-1-9"
         style="fill:none;stroke:#ffffff;stroke-width:2.03694;stroke-miterlimit:4;stroke-dasharray:none;stroke-opacity:1" />
      <g
         id="g4372"
         transform="translate(-26.507754,-88.860304)">
        <path
           inkscape:connector-curvature="0"
           id="path23-4-1-6-9-0"
           d="m 163.94765,686.42298 c -0.38058,0 -0.68819,0.2853 -0.68819,0.6388 v 7.0865 c 0,0.3535 0.30762,0.6392 0.68819,0.6392 h 32.44367 c 0.37849,0 0.68778,-0.2877 0.68778,-0.6392 v -7.0865 c 0,-0.3535 -0.3072,-0.6388 -0.68778,-0.6388 z m 3.93921,1.6958 a 2.4863311,2.4863311 0 0 1 2.48647,2.4865 2.4863311,2.4863311 0 0 1 -2.48647,2.4864 2.4863311,2.4863311 0 0 1 -2.48605,-2.4864 2.4863311,2.4863311 0 0 1 2.48605,-2.4865 z m 0,1.1881 a 1.29858,1.29858 0 0 0 -1.29836,1.2984 1.29858,1.29858 0 0 0 1.29836,1.2987 1.29858,1.29858 0 0 0 1.29878,-1.2987 1.29858,1.29858 0 0 0 -1.29878,-1.2984 z"
           style="fill:#ffffff;fill-opacity:1" />
        <path
           inkscape:connector-curvature="0"
           id="path23-4-1-8-7-5"
           d="m 163.94765,696.82628 c -0.38058,0 -0.68819,0.2853 -0.68819,0.6388 v 7.0865 c 0,0.3534 0.30762,0.6392 0.68819,0.6392 h 32.44367 c 0.37849,0 0.68778,-0.2877 0.68778,-0.6392 v -7.0865 c 0,-0.3535 -0.3072,-0.6388 -0.68778,-0.6388 z m 3.93921,1.6958 a 2.4863311,2.4863311 0 0 1 2.48647,2.4864 2.4863311,2.4863311 0 0 1 -2.48647,2.4865 2.4863311,2.4863311 0 0 1 -2.48605,-2.4865 2.4863311,2.4863311 0 0 1 2.48605,-2.4864 z m 0,1.1881 a 1.29858,1.29858 0 0 0 -1.29836,1.2983 1.29858,1.29858 0 0 0 1.29836,1.2988 1.29858,1.29858 0 0 0 1.29878,-1.2988 1.29858,1.29858 0 0 0 -1.29878,-1.2983 z"
           style="fill:#ffffff;fill-opacity:1" />
        <path
           inkscape:connector-curvature="0"
           id="path23-4-1-8-3-8-73"
           d="m 163.94765,707.22958 c -0.38058,0 -0.68819,0.2853 -0.68819,0.6388 v 7.0865 c 0,0.3534 0.30762,0.6391 0.68819,0.6391 h 32.44367 c 0.37849,0 0.68778,-0.2876 0.68778,-0.6391 v -7.0865 c 0,-0.3535 -0.3072,-0.6388 -0.68778,-0.6388 z m 3.93921,1.6957 a 2.4863311,2.4863311 0 0 1 2.48647,2.4865 2.4863311,2.4863311 0 0 1 -2.48647,2.4865 2.4863311,2.4863311 0 0 1 -2.48605,-2.4865 2.4863311,2.4863311 0 0 1 2.48605,-2.4865 z m 0,1.1881 a 1.29858,1.29858 0 0 0 -1.29836,1.2984 1.29858,1.29858 0 0 0 1.29836,1.2988 1.29858,1.29858 0 0 0 1.29878,-1.2988 1.29858,1.29858 0 0 0 -1.29878,-1.2984 z"
           style="fill:#ffffff;fill-opacity:1" />
      </g>
    </g>
  </g>
</svg>
