<?xml version="1.0" encoding="UTF-8" standalone="no"?>
<!-- Created with Inkscape (http://www.inkscape.org/) -->

<svg
   width="93.242828mm"
   height="11.853333mm"
   viewBox="0 0 330.38798 42"
   id="svg4578"
   version="1.1"
   inkscape:version="1.1.2 (0a00cf5339, 2022-02-04)"
   sodipodi:docname="openmediavault_logo.svg"
   inkscape:export-filename="./header_logo.png"
   inkscape:export-xdpi="90"
   inkscape:export-ydpi="90"
   xmlns:inkscape="http://www.inkscape.org/namespaces/inkscape"
   xmlns:sodipodi="http://sodipodi.sourceforge.net/DTD/sodipodi-0.dtd"
   xmlns="http://www.w3.org/2000/svg"
   xmlns:svg="http://www.w3.org/2000/svg"
   xmlns:rdf="http://www.w3.org/1999/02/22-rdf-syntax-ns#"
   xmlns:cc="http://creativecommons.org/ns#"
   xmlns:dc="http://purl.org/dc/elements/1.1/">
  <title
     id="title4144">OpenMediaVault logo</title>
  <defs
     id="defs4580" />
  <sodipodi:namedview
     id="base"
     pagecolor="#98b7cf"
     bordercolor="#666666"
     borderopacity="1.0"
     inkscape:pageopacity="0"
     inkscape:pageshadow="2"
     inkscape:zoom="2.3498652"
     inkscape:cx="200.01147"
     inkscape:cy="44.683414"
     inkscape:document-units="px"
     inkscape:current-layer="layer1"
     showgrid="false"
     inkscape:window-width="1920"
     inkscape:window-height="1140"
     inkscape:window-x="0"
     inkscape:window-y="362"
     inkscape:window-maximized="1"
     fit-margin-top="0"
     fit-margin-left="0"
     fit-margin-right="0"
     fit-margin-bottom="0"
     inkscape:pagecheckerboard="0" />
  <metadata
     id="metadata4583">
    <rdf:RDF>
      <cc:Work
         rdf:about="">
        <dc:format>image/svg+xml</dc:format>
        <dc:type
           rdf:resource="http://purl.org/dc/dcmitype/StillImage" />
        <dc:title>OpenMediaVault logo</dc:title>
        <dc:creator>
          <cc:Agent>
            <dc:title>Volker Theile</dc:title>
          </cc:Agent>
        </dc:creator>
        <dc:rights>
          <cc:Agent>
            <dc:title>Volker Theile</dc:title>
          </cc:Agent>
        </dc:rights>
        <dc:date>15.09.2016</dc:date>
      </cc:Work>
    </rdf:RDF>
  </metadata>
  <g
     inkscape:label="Ebene 1"
     inkscape:groupmode="layer"
     id="layer1"
     transform="translate(-130.69566,-591.14819)">
    <text
       xml:space="preserve"
       style="font-size:37.5px;line-height:1.25;font-family:Quicksand;-inkscape-font-specification:Quicksand;word-spacing:0px;stroke-width:0.9375;font-weight:normal;font-style:normal;font-stretch:normal;font-variant:normal"
       x="447.0289"
       y="710.04016"
       id="text40459"><tspan
         sodipodi:role="line"
         style="font-style:normal;font-variant:normal;font-weight:normal;font-stretch:normal;font-family:Quicksand;-inkscape-font-specification:Quicksand;stroke-width:0.9375"
         x="447.0289"
         y="710.04016"
         id="tspan40463" /></text>
    <text
       xml:space="preserve"
       style="font-size:37.5px;line-height:1.25;font-family:'URW Gothic L';-inkscape-font-specification:'URW Gothic L';word-spacing:0px;stroke-width:0.9375;font-weight:normal;font-style:normal;font-stretch:normal;font-variant:normal"
       x="455.86417"
       y="749.50739"
       id="text56131"><tspan
         sodipodi:role="line"
         id="tspan56129"
         style="stroke-width:0.9375;-inkscape-font-specification:'URW Gothic L';font-family:'URW Gothic L';font-weight:normal;font-style:normal;font-stretch:normal;font-variant:normal"
         x="455.86417"
         y="749.50739" /></text>
    <text
       xml:space="preserve"
       style="font-size:37.5px;line-height:1.25;font-family:'URW Gothic';-inkscape-font-specification:'URW Gothic';word-spacing:0px;fill:#ffffff;stroke-width:0.9375"
       x="124.97013"
       y="1052.0934"
       id="text116929"><tspan
         sodipodi:role="line"
         id="tspan116927"
         style="fill:#ffffff;stroke-width:0.9375"
         x="124.97013"
         y="1052.0934" /></text>
    <text
       xml:space="preserve"
       style="font-size:37.5px;line-height:1.25;font-family:'URW Gothic';-inkscape-font-specification:'URW Gothic';word-spacing:0px;fill:#ffffff;stroke-width:0.9375"
       x="124.97013"
       y="1009.0087"
       id="text120923"><tspan
         sodipodi:role="line"
         id="tspan120921"
         style="fill:#ffffff;stroke-width:0.9375"
         x="124.97013"
         y="1009.0087" /></text>
    <text
       xml:space="preserve"
       style="font-size:37.5px;line-height:1.25;font-family:Quicksand;-inkscape-font-specification:Quicksand;word-spacing:0px;fill:#ffffff;stroke-width:0.9375;font-weight:normal;font-style:normal;font-stretch:normal;font-variant:normal"
       x="124.89512"
       y="1103.1797"
       id="text124143"><tspan
         sodipodi:role="line"
         id="tspan124141"
         style="fill:#ffffff;stroke-width:0.9375;-inkscape-font-specification:Quicksand;font-family:Quicksand;font-weight:normal;font-style:normal;font-stretch:normal;font-variant:normal"
         x="124.89512"
         y="1103.1797" /></text>
    <g
       id="g184261"
       transform="translate(-3.0575575e-7,0.05361217)">
      <g
         id="g4192-6-1"
         transform="translate(0.01749047,-0.12500304)">
        <path
           id="rect3772-1-2-9-1-9-4-1"
           style="fill:none;stroke:#ffffff;stroke-width:2.03694"
           d="m 133.55328,592.18445 h 40.2165 c 1.02857,0 1.85663,0.82806 1.85663,1.85663 v 36.21419 c 0,1.02857 -0.82806,1.85663 -1.85663,1.85663 h -40.2165 c -1.02858,0 -1.85664,-0.82806 -1.85664,-1.85663 v -36.21419 c 0,-1.02857 0.82806,-1.85663 1.85664,-1.85663 z" />
        <g
           id="g4372-62-0"
           transform="translate(-26.507754,-88.860304)">
          <path
             inkscape:connector-curvature="0"
             id="path23-4-1-6-9-0-5-3"
             d="m 163.94765,686.42298 c -0.38058,0 -0.68819,0.2853 -0.68819,0.6388 v 7.0865 c 0,0.3535 0.30762,0.6392 0.68819,0.6392 h 32.44367 c 0.37849,0 0.68778,-0.2877 0.68778,-0.6392 v -7.0865 c 0,-0.3535 -0.3072,-0.6388 -0.68778,-0.6388 z m 3.93921,1.6958 a 2.4863311,2.4863311 0 0 1 2.48647,2.4865 2.4863311,2.4863311 0 0 1 -2.48647,2.4864 2.4863311,2.4863311 0 0 1 -2.48605,-2.4864 2.4863311,2.4863311 0 0 1 2.48605,-2.4865 z m 0,1.1881 a 1.29858,1.29858 0 0 0 -1.29836,1.2984 1.29858,1.29858 0 0 0 1.29836,1.2987 1.29858,1.29858 0 0 0 1.29878,-1.2987 1.29858,1.29858 0 0 0 -1.29878,-1.2984 z"
             style="fill:#ffffff;fill-opacity:1" />
          <path
             inkscape:connector-curvature="0"
             id="path23-4-1-8-7-5-8-4"
             d="m 163.94765,696.82628 c -0.38058,0 -0.68819,0.2853 -0.68819,0.6388 v 7.0865 c 0,0.3534 0.30762,0.6392 0.68819,0.6392 h 32.44367 c 0.37849,0 0.68778,-0.2877 0.68778,-0.6392 v -7.0865 c 0,-0.3535 -0.3072,-0.6388 -0.68778,-0.6388 z m 3.93921,1.6958 a 2.4863311,2.4863311 0 0 1 2.48647,2.4864 2.4863311,2.4863311 0 0 1 -2.48647,2.4865 2.4863311,2.4863311 0 0 1 -2.48605,-2.4865 2.4863311,2.4863311 0 0 1 2.48605,-2.4864 z m 0,1.1881 a 1.29858,1.29858 0 0 0 -1.29836,1.2983 1.29858,1.29858 0 0 0 1.29836,1.2988 1.29858,1.29858 0 0 0 1.29878,-1.2988 1.29858,1.29858 0 0 0 -1.29878,-1.2983 z"
             style="fill:#ffffff;fill-opacity:1" />
          <path
             inkscape:connector-curvature="0"
             id="path23-4-1-8-3-8-73-6-0"
             d="m 163.94765,707.22958 c -0.38058,0 -0.68819,0.2853 -0.68819,0.6388 v 7.0865 c 0,0.3534 0.30762,0.6391 0.68819,0.6391 h 32.44367 c 0.37849,0 0.68778,-0.2876 0.68778,-0.6391 v -7.0865 c 0,-0.3535 -0.3072,-0.6388 -0.68778,-0.6388 z m 3.93921,1.6957 a 2.4863311,2.4863311 0 0 1 2.48647,2.4865 2.4863311,2.4863311 0 0 1 -2.48647,2.4865 2.4863311,2.4863311 0 0 1 -2.48605,-2.4865 2.4863311,2.4863311 0 0 1 2.48605,-2.4865 z m 0,1.1881 a 1.29858,1.29858 0 0 0 -1.29836,1.2984 1.29858,1.29858 0 0 0 1.29836,1.2988 1.29858,1.29858 0 0 0 1.29878,-1.2988 1.29858,1.29858 0 0 0 -1.29878,-1.2984 z"
             style="fill:#ffffff;fill-opacity:1" />
        </g>
      </g>
      <g
         aria-label="The open network attached storage solution"
         id="text148159"
         style="font-size:11.25px;line-height:1.25;font-family:'URW Gothic';-inkscape-font-specification:'URW Gothic';word-spacing:0px;fill:#ffffff;stroke-width:0.9375">
        <path
           d="m 221.7855,630.72943 h 0.8325 v -7.56 h 1.90125 v -0.75375 h -4.635 v 0.75375 h 1.90125 z"
           id="path845" />
        <path
           d="m 225.38548,630.72943 h 0.8325 v -3.375 c 0,-0.66375 0.09,-1.0575 0.3375,-1.395 0.3375,-0.48375 0.91125,-0.765 1.54125,-0.765 0.59625,0 1.15875,0.2475 1.485,0.66375 0.2925,0.37125 0.41625,0.84375 0.41625,1.56375 v 3.3075 h 0.8325 v -3.3075 c 0,-0.9225 -0.16875,-1.56375 -0.52875,-2.0475 -0.46125,-0.59625 -1.2375,-0.945 -2.1375,-0.945 -0.8325,0 -1.53,0.3375 -1.94625,0.945 v -2.95875 h -0.8325 z"
           id="path847" />
        <path
           d="m 238.41297,627.92818 c 0,-0.84375 -0.1125,-1.36125 -0.41625,-1.90125 -0.55125,-0.99 -1.62,-1.5975 -2.80125,-1.5975 -1.78875,0 -3.18375,1.40625 -3.18375,3.195 0,1.8225 1.42875,3.25125 3.25125,3.25125 1.33875,0 2.5425,-0.86625 2.9925,-2.17125 h -0.86625 c -0.34875,0.84375 -1.215,1.40625 -2.14875,1.40625 -1.27125,0 -2.32875,-0.9675 -2.39625,-2.1825 z m -5.54625,-0.75375 c 0.225,-1.18125 1.15875,-1.98 2.32875,-1.98 1.1925,0 2.0925,0.7425 2.385,1.98 z"
           id="path849" />
        <path
           d="m 245.6692,624.42943 c -1.83375,0 -3.22875,1.38375 -3.22875,3.18375 0,1.90125 1.38375,3.2625 3.29625,3.2625 1.8,0 3.1275,-1.36125 3.1275,-3.20625 0,-1.87875 -1.33875,-3.24 -3.195,-3.24 z m 0,0.765 c 1.36125,0 2.35125,1.04625 2.35125,2.48625 0,1.4175 -0.9675,2.43 -2.30625,2.43 -1.4175,0 -2.43,-1.02375 -2.43,-2.475 0,-1.395 1.02375,-2.44125 2.385,-2.44125 z"
           id="path851" />
        <path
           d="m 250.04543,624.57568 v 8.31375 h 0.8325 v -3.2175 c 0.54,0.7875 1.3725,1.20375 2.39625,1.20375 1.845,0 3.2625,-1.40625 3.2625,-3.20625 0,-1.845 -1.40625,-3.24 -3.24,-3.24 -1.0575,0 -1.89,0.41625 -2.41875,1.20375 v -1.0575 z m 3.2175,0.61875 c 1.395,0 2.43,1.0575 2.43,2.475 0,1.38375 -1.04625,2.44125 -2.41875,2.44125 -1.40625,0 -2.4525,-1.0575 -2.4525,-2.48625 0,-1.36125 1.06875,-2.43 2.44125,-2.43 z"
           id="path853" />
        <path
           d="m 263.88292,627.92818 c 0,-0.84375 -0.1125,-1.36125 -0.41625,-1.90125 -0.55125,-0.99 -1.62,-1.5975 -2.80125,-1.5975 -1.78875,0 -3.18375,1.40625 -3.18375,3.195 0,1.8225 1.42875,3.25125 3.25125,3.25125 1.33875,0 2.5425,-0.86625 2.9925,-2.17125 h -0.86625 c -0.34875,0.84375 -1.215,1.40625 -2.14875,1.40625 -1.27125,0 -2.32875,-0.9675 -2.39625,-2.1825 z m -5.54625,-0.75375 c 0.225,-1.18125 1.15875,-1.98 2.32875,-1.98 1.1925,0 2.0925,0.7425 2.385,1.98 z"
           id="path855" />
        <path
           d="m 265.03042,630.72943 h 0.8325 v -3.38625 c 0,-0.68625 0.09,-1.04625 0.32625,-1.395 0.32625,-0.4725 0.9,-0.75375 1.5525,-0.75375 0.6075,0 1.15875,0.2475 1.49625,0.66375 0.2925,0.3825 0.405,0.8325 0.405,1.6425 v 3.22875 h 0.8325 v -3.22875 c 0,-1.035 -0.14625,-1.58625 -0.54,-2.115 -0.48375,-0.61875 -1.22625,-0.95625 -2.0925,-0.95625 -0.81,0 -1.4625,0.30375 -1.98,0.945 v -0.79875 h -0.8325 z"
           id="path857" />
        <path
           d="m 275.00914,630.72943 h 0.8325 v -3.38625 c 0,-0.68625 0.09,-1.04625 0.32625,-1.395 0.32625,-0.4725 0.9,-0.75375 1.5525,-0.75375 0.6075,0 1.15875,0.2475 1.49625,0.66375 0.2925,0.3825 0.405,0.8325 0.405,1.6425 v 3.22875 h 0.8325 v -3.22875 c 0,-1.035 -0.14625,-1.58625 -0.54,-2.115 -0.48375,-0.61875 -1.22625,-0.95625 -2.0925,-0.95625 -0.81,0 -1.4625,0.30375 -1.98,0.945 v -0.79875 h -0.8325 z"
           id="path859" />
        <path
           d="m 288.03662,627.92818 c 0,-0.84375 -0.1125,-1.36125 -0.41625,-1.90125 -0.55125,-0.99 -1.62,-1.5975 -2.80125,-1.5975 -1.78875,0 -3.18375,1.40625 -3.18375,3.195 0,1.8225 1.42875,3.25125 3.25125,3.25125 1.33875,0 2.5425,-0.86625 2.9925,-2.17125 h -0.86625 c -0.34875,0.84375 -1.215,1.40625 -2.14875,1.40625 -1.27125,0 -2.32875,-0.9675 -2.39625,-2.1825 z m -5.54625,-0.75375 c 0.225,-1.18125 1.15875,-1.98 2.32875,-1.98 1.1925,0 2.0925,0.7425 2.385,1.98 z"
           id="path861" />
        <path
           d="m 289.67911,630.72943 h 0.8325 v -5.4 h 1.38375 v -0.75375 h -1.38375 v -2.16 h -0.8325 v 2.16 h -1.3275 v 0.75375 h 1.3275 z"
           id="path863" />
        <path
           d="m 294.80907,630.72943 h 0.9 l 1.3275,-4.08375 1.33875,4.08375 h 0.88875 l 2.385,-6.15375 h -0.81 l -2.0025,5.1525 -1.45125,-4.39875 h -0.68625 l -1.45125,4.39875 -1.9575,-5.1525 h -0.8325 z"
           id="path865" />
        <path
           d="m 305.22655,624.42943 c -1.83375,0 -3.22875,1.38375 -3.22875,3.18375 0,1.90125 1.38375,3.2625 3.29625,3.2625 1.8,0 3.1275,-1.36125 3.1275,-3.20625 0,-1.87875 -1.33875,-3.24 -3.195,-3.24 z m 0,0.765 c 1.36125,0 2.35125,1.04625 2.35125,2.48625 0,1.4175 -0.9675,2.43 -2.30625,2.43 -1.4175,0 -2.43,-1.02375 -2.43,-2.475 0,-1.395 1.02375,-2.44125 2.385,-2.44125 z"
           id="path867" />
        <path
           d="m 309.60279,630.72943 h 0.8325 v -3.58875 c -0.0113,-1.11375 0.6075,-1.8 1.74375,-1.89 v -0.82125 c -0.88875,0.045 -1.4175,0.34875 -1.74375,1.02375 v -0.8775 h -0.8325 z"
           id="path869" />
        <path
           d="m 313.04527,630.72943 h 0.8325 v -1.27125 l 0.9675,-1.1925 2.0475,2.46375 h 1.035 l -2.55375,-3.06 2.39625,-3.09375 h -1.02375 l -2.86875,3.735 v -5.895 h -0.8325 z"
           id="path871" />
        <path
           d="m 328.07523,624.57568 h -0.8325 v 1.09125 c -0.61875,-0.855 -1.36125,-1.2375 -2.43,-1.2375 -1.845,0 -3.24,1.395 -3.24,3.24 0,1.845 1.40625,3.20625 3.3075,3.20625 1.04625,0 1.69875,-0.3375 2.3625,-1.22625 v 1.08 h 0.8325 z m -3.24,0.61875 c 1.36125,0 2.4075,1.0575 2.4075,2.43 0,1.40625 -1.035,2.48625 -2.3625,2.48625 -1.395,0 -2.46375,-1.09125 -2.46375,-2.4975 0,-1.33875 1.08,-2.41875 2.41875,-2.41875 z"
           id="path873" />
        <path
           d="m 330.29146,630.72943 h 0.8325 v -5.4 h 1.38375 v -0.75375 h -1.38375 v -2.16 h -0.8325 v 2.16 h -1.3275 v 0.75375 h 1.3275 z"
           id="path875" />
        <path
           d="m 334.43145,630.72943 h 0.8325 v -5.4 h 1.38375 v -0.75375 h -1.38375 v -2.16 h -0.8325 v 2.16 h -1.3275 v 0.75375 h 1.3275 z"
           id="path877" />
        <path
           d="m 343.48768,624.57568 h -0.8325 v 1.09125 c -0.61875,-0.855 -1.36125,-1.2375 -2.43,-1.2375 -1.845,0 -3.24,1.395 -3.24,3.24 0,1.845 1.40625,3.20625 3.3075,3.20625 1.04625,0 1.69875,-0.3375 2.3625,-1.22625 v 1.08 h 0.8325 z m -3.24,0.61875 c 1.36125,0 2.4075,1.0575 2.4075,2.43 0,1.40625 -1.035,2.48625 -2.3625,2.48625 -1.395,0 -2.46375,-1.09125 -2.46375,-2.4975 0,-1.33875 1.08,-2.41875 2.41875,-2.41875 z"
           id="path879" />
        <path
           d="m 350.09141,628.91818 c -0.64125,0.855 -1.22625,1.1925 -2.115,1.1925 -1.3725,0 -2.46375,-1.08 -2.46375,-2.4525 0,-1.38375 1.06875,-2.46375 2.44125,-2.46375 0.91125,0 1.665,0.43875 2.1375,1.24875 h 0.93375 c -0.495,-1.2375 -1.67625,-2.01375 -3.06,-2.01375 -1.845,0 -3.29625,1.4175 -3.29625,3.20625 0,1.83375 1.4625,3.24 3.3525,3.24 0.765,0 1.47375,-0.23625 2.0475,-0.6975 0.39375,-0.315 0.63,-0.61875 0.9675,-1.26 z"
           id="path881" />
        <path
           d="m 352.15016,630.72943 h 0.8325 v -3.375 c 0,-0.66375 0.09,-1.0575 0.3375,-1.395 0.3375,-0.48375 0.91125,-0.765 1.54125,-0.765 0.59625,0 1.15875,0.2475 1.485,0.66375 0.2925,0.37125 0.41625,0.84375 0.41625,1.56375 v 3.3075 h 0.8325 v -3.3075 c 0,-0.9225 -0.16875,-1.56375 -0.52875,-2.0475 -0.46125,-0.59625 -1.2375,-0.945 -2.1375,-0.945 -0.8325,0 -1.53,0.3375 -1.94625,0.945 v -2.95875 h -0.8325 z"
           id="path883" />
        <path
           d="m 365.17764,627.92818 c 0,-0.84375 -0.1125,-1.36125 -0.41625,-1.90125 -0.55125,-0.99 -1.62,-1.5975 -2.80125,-1.5975 -1.78875,0 -3.18375,1.40625 -3.18375,3.195 0,1.8225 1.42875,3.25125 3.25125,3.25125 1.33875,0 2.5425,-0.86625 2.9925,-2.17125 h -0.86625 c -0.34875,0.84375 -1.215,1.40625 -2.14875,1.40625 -1.27125,0 -2.32875,-0.9675 -2.39625,-2.1825 z m -5.54625,-0.75375 c 0.225,-1.18125 1.15875,-1.98 2.32875,-1.98 1.1925,0 2.0925,0.7425 2.385,1.98 z"
           id="path885" />
        <path
           d="m 372.61388,622.41568 h -0.8325 v 3.13875 c -0.6075,-0.73125 -1.45125,-1.125 -2.41875,-1.125 -1.8675,0 -3.27375,1.395 -3.27375,3.24 0,1.8225 1.45125,3.20625 3.3525,3.20625 1.035,0 1.71,-0.37125 2.34,-1.26 v 1.11375 h 0.8325 z m -3.27375,2.77875 c 1.3725,0 2.475,1.09125 2.475,2.44125 0,1.36125 -1.08,2.475 -2.39625,2.475 -1.4175,0 -2.48625,-1.06875 -2.48625,-2.48625 0,-1.35 1.06875,-2.43 2.4075,-2.43 z"
           id="path887" />
        <path
           d="m 376.64136,628.91818 c 0.0112,1.1925 0.7875,1.9575 1.98,1.9575 1.11375,0 1.87875,-0.7875 1.87875,-1.9125 0,-0.75375 -0.34875,-1.27125 -1.06875,-1.575 -0.945,-0.39375 -0.99,-0.405 -1.15875,-0.495 -0.3825,-0.19125 -0.5625,-0.45 -0.5625,-0.81 0,-0.495 0.39375,-0.88875 0.88875,-0.88875 0.54,0 0.855,0.315 0.9,0.9 h 0.84375 c -0.0337,-0.99 -0.7425,-1.665 -1.7325,-1.665 -1.00125,0 -1.74375,0.73125 -1.74375,1.7325 0,0.45 0.1575,0.82125 0.46125,1.1025 0.25875,0.23625 0.27,0.2475 1.13625,0.59625 0.95625,0.39375 1.1925,0.61875 1.1925,1.18125 0,0.61875 -0.4275,1.06875 -1.035,1.06875 -0.6975,0 -1.11375,-0.4275 -1.15875,-1.1925 z"
           id="path889" />
        <path
           d="m 382.32259,630.72943 h 0.8325 v -5.4 h 1.38375 v -0.75375 h -1.38375 v -2.16 h -0.8325 v 2.16 h -1.3275 v 0.75375 h 1.3275 z"
           id="path891" />
        <path
           d="m 388.10507,624.42943 c -1.83375,0 -3.22875,1.38375 -3.22875,3.18375 0,1.90125 1.38375,3.2625 3.29625,3.2625 1.8,0 3.1275,-1.36125 3.1275,-3.20625 0,-1.87875 -1.33875,-3.24 -3.195,-3.24 z m 0,0.765 c 1.36125,0 2.35125,1.04625 2.35125,2.48625 0,1.4175 -0.9675,2.43 -2.30625,2.43 -1.4175,0 -2.43,-1.02375 -2.43,-2.475 0,-1.395 1.02375,-2.44125 2.385,-2.44125 z"
           id="path893" />
        <path
           d="m 392.4813,630.72943 h 0.8325 v -3.58875 c -0.0113,-1.11375 0.6075,-1.8 1.74375,-1.89 v -0.82125 c -0.88875,0.045 -1.4175,0.34875 -1.74375,1.02375 v -0.8775 h -0.8325 z"
           id="path895" />
        <path
           d="m 401.76254,624.57568 h -0.8325 v 1.09125 c -0.61875,-0.855 -1.36125,-1.2375 -2.43,-1.2375 -1.845,0 -3.24,1.395 -3.24,3.24 0,1.845 1.40625,3.20625 3.3075,3.20625 1.04625,0 1.69875,-0.3375 2.3625,-1.22625 v 1.08 h 0.8325 z m -3.24,0.61875 c 1.36125,0 2.4075,1.0575 2.4075,2.43 0,1.40625 -1.035,2.48625 -2.3625,2.48625 -1.395,0 -2.46375,-1.09125 -2.46375,-2.4975 0,-1.33875 1.08,-2.41875 2.41875,-2.41875 z"
           id="path897" />
        <path
           d="m 409.41252,624.57568 h -0.8325 v 1.09125 c -0.61875,-0.855 -1.3725,-1.2375 -2.41875,-1.2375 -1.8,0 -3.13875,1.395 -3.13875,3.25125 0,1.8 1.395,3.195 3.20625,3.195 1.11375,0 1.8675,-0.45 2.35125,-1.395 v 0.41625 c 0,0.6075 -0.0675,0.99 -0.2475,1.3725 -0.32625,0.70875 -1.0575,1.11375 -2.01375,1.11375 -0.68625,0 -1.215,-0.2025 -1.65375,-0.61875 -0.21375,-0.19125 -0.34875,-0.3825 -0.6075,-0.84375 h -0.81 c 0.45,1.44 1.54125,2.2275 3.09375,2.2275 1.06875,0 1.96875,-0.405 2.4975,-1.1025 0.41625,-0.5625 0.57375,-1.215 0.57375,-2.41875 z m -3.195,0.61875 c 1.3275,0 2.3625,1.04625 2.3625,2.385 0,1.44 -1.0125,2.53125 -2.35125,2.53125 -1.35,0 -2.3625,-1.06875 -2.3625,-2.4975 0,-1.40625 0.99,-2.41875 2.35125,-2.41875 z"
           id="path899" />
        <path
           d="m 417.07375,627.92818 c 0,-0.84375 -0.1125,-1.36125 -0.41625,-1.90125 -0.55125,-0.99 -1.62,-1.5975 -2.80125,-1.5975 -1.78875,0 -3.18375,1.40625 -3.18375,3.195 0,1.8225 1.42875,3.25125 3.25125,3.25125 1.33875,0 2.5425,-0.86625 2.9925,-2.17125 H 416.05 c -0.34875,0.84375 -1.215,1.40625 -2.14875,1.40625 -1.27125,0 -2.32875,-0.9675 -2.39625,-2.1825 z m -5.54625,-0.75375 c 0.225,-1.18125 1.15875,-1.98 2.32875,-1.98 1.1925,0 2.0925,0.7425 2.385,1.98 z"
           id="path901" />
        <path
           d="m 420.83122,628.91818 c 0.0113,1.1925 0.7875,1.9575 1.98,1.9575 1.11375,0 1.87875,-0.7875 1.87875,-1.9125 0,-0.75375 -0.34875,-1.27125 -1.06875,-1.575 -0.945,-0.39375 -0.99,-0.405 -1.15875,-0.495 -0.3825,-0.19125 -0.5625,-0.45 -0.5625,-0.81 0,-0.495 0.39375,-0.88875 0.88875,-0.88875 0.54,0 0.855,0.315 0.9,0.9 h 0.84375 c -0.0337,-0.99 -0.7425,-1.665 -1.7325,-1.665 -1.00125,0 -1.74375,0.73125 -1.74375,1.7325 0,0.45 0.1575,0.82125 0.46125,1.1025 0.25875,0.23625 0.27,0.2475 1.13625,0.59625 0.95625,0.39375 1.1925,0.61875 1.1925,1.18125 0,0.61875 -0.4275,1.06875 -1.035,1.06875 -0.6975,0 -1.11375,-0.4275 -1.15875,-1.1925 z"
           id="path903" />
        <path
           d="m 428.69496,624.42943 c -1.83375,0 -3.22875,1.38375 -3.22875,3.18375 0,1.90125 1.38375,3.2625 3.29625,3.2625 1.8,0 3.1275,-1.36125 3.1275,-3.20625 0,-1.87875 -1.33875,-3.24 -3.195,-3.24 z m 0,0.765 c 1.36125,0 2.35125,1.04625 2.35125,2.48625 0,1.4175 -0.9675,2.43 -2.30625,2.43 -1.4175,0 -2.43,-1.02375 -2.43,-2.475 0,-1.395 1.02375,-2.44125 2.385,-2.44125 z"
           id="path905" />
        <path
           d="m 433.07119,630.72943 h 0.8325 v -8.31375 h -0.8325 z"
           id="path907" />
        <path
           d="m 440.74369,624.57568 h -0.8325 v 3.16125 c 0,0.75375 -0.1125,1.22625 -0.37125,1.60875 -0.34875,0.495 -0.9,0.765 -1.5525,0.765 -0.68625,0 -1.26,-0.28125 -1.54125,-0.77625 -0.19125,-0.315 -0.2925,-0.81 -0.2925,-1.44 v -3.31875 h -0.8325 v 3.31875 c 0,0.9225 0.14625,1.54125 0.48375,2.0025 0.46125,0.64125 1.20375,0.97875 2.12625,0.97875 0.95625,0 1.56375,-0.3375 1.98,-1.1025 v 0.95625 h 0.8325 z"
           id="path909" />
        <path
           d="m 442.91494,630.72943 h 0.8325 v -5.4 h 1.38375 v -0.75375 h -1.38375 v -2.16 h -0.8325 v 2.16 h -1.3275 v 0.75375 h 1.3275 z"
           id="path911" />
        <path
           d="m 446.01992,630.72943 h 0.8325 v -6.15375 h -0.8325 z m 0,-6.89625 h 0.8325 v -1.4175 h -0.8325 z"
           id="path913" />
        <path
           d="m 451.26241,624.42943 c -1.83375,0 -3.22875,1.38375 -3.22875,3.18375 0,1.90125 1.38375,3.2625 3.29625,3.2625 1.8,0 3.1275,-1.36125 3.1275,-3.20625 0,-1.87875 -1.33875,-3.24 -3.195,-3.24 z m 0,0.765 c 1.36125,0 2.35125,1.04625 2.35125,2.48625 0,1.4175 -0.9675,2.43 -2.30625,2.43 -1.4175,0 -2.43,-1.02375 -2.43,-2.475 0,-1.395 1.02375,-2.44125 2.385,-2.44125 z"
           id="path915" />
        <path
           d="m 455.63864,630.72943 h 0.8325 v -3.38625 c 0,-0.68625 0.09,-1.04625 0.32625,-1.395 0.32625,-0.4725 0.9,-0.75375 1.5525,-0.75375 0.6075,0 1.15875,0.2475 1.49625,0.66375 0.2925,0.3825 0.405,0.8325 0.405,1.6425 v 3.22875 h 0.8325 v -3.22875 c 0,-1.035 -0.14625,-1.58625 -0.54,-2.115 -0.48375,-0.61875 -1.22625,-0.95625 -2.0925,-0.95625 -0.81,0 -1.4625,0.30375 -1.98,0.945 v -0.79875 h -0.8325 z"
           id="path917" />
      </g>
      <g
         aria-label="openmediavault"
         id="text159575"
         style="font-size:33.75px;line-height:1.25;font-family:'URW Gothic';-inkscape-font-specification:'URW Gothic';word-spacing:0px;stroke-width:0.9375">
        <path
           d="m 198.61036,597.18942 c -5.50125,0 -9.68625,4.15125 -9.68625,9.55125 0,5.70375 4.15125,9.7875 9.88875,9.7875 5.4,0 9.3825,-4.08375 9.3825,-9.61875 0,-5.63625 -4.01625,-9.72 -9.585,-9.72 z m 0,2.295 c 4.08375,0 7.05375,3.13875 7.05375,7.45875 0,4.2525 -2.9025,7.29 -6.91875,7.29 -4.2525,0 -7.29,-3.07125 -7.29,-7.425 0,-4.185 3.07125,-7.32375 7.155,-7.32375 z"
           style="fill:#ffffff"
           id="path920" />
        <path
           d="m 211.73907,597.62817 v 24.94125 h 2.4975 v -9.6525 c 1.62,2.3625 4.1175,3.61125 7.18875,3.61125 5.535,0 9.7875,-4.21875 9.7875,-9.61875 0,-5.535 -4.21875,-9.72 -9.72,-9.72 -3.1725,0 -5.67,1.24875 -7.25625,3.61125 v -3.1725 z m 9.6525,1.85625 c 4.185,0 7.29,3.1725 7.29,7.425 0,4.15125 -3.13875,7.32375 -7.25625,7.32375 -4.21875,0 -7.3575,-3.1725 -7.3575,-7.45875 0,-4.08375 3.20625,-7.29 7.32375,-7.29 z"
           style="fill:#ffffff"
           id="path922" />
        <path
           d="m 253.25154,607.68567 c 0,-2.53125 -0.3375,-4.08375 -1.24875,-5.70375 -1.65375,-2.97 -4.86,-4.7925 -8.40375,-4.7925 -5.36625,0 -9.55125,4.21875 -9.55125,9.585 0,5.4675 4.28625,9.75375 9.75375,9.75375 4.01625,0 7.6275,-2.59875 8.9775,-6.51375 h -2.59875 c -1.04625,2.53125 -3.645,4.21875 -6.44625,4.21875 -3.81375,0 -6.98625,-2.9025 -7.18875,-6.5475 z m -16.63875,-2.26125 c 0.675,-3.54375 3.47625,-5.94 6.98625,-5.94 3.5775,0 6.2775,2.2275 7.155,5.94 z"
           style="fill:#ffffff"
           id="path924" />
        <path
           d="m 256.69403,616.08942 h 2.4975 v -10.15875 c 0,-2.05875 0.27,-3.13875 0.97875,-4.185 0.97875,-1.4175 2.7,-2.26125 4.6575,-2.26125 1.8225,0 3.47625,0.7425 4.48875,1.99125 0.8775,1.1475 1.215,2.4975 1.215,4.9275 v 9.68625 h 2.4975 v -9.68625 c 0,-3.105 -0.43875,-4.75875 -1.62,-6.345 -1.45125,-1.85625 -3.67875,-2.86875 -6.2775,-2.86875 -2.43,0 -4.3875,0.91125 -5.94,2.835 v -2.39625 h -2.4975 z"
           style="fill:#ffffff"
           id="path926" />
        <path
           d="m 277.28148,616.08942 h 2.4975 v -10.76625 c 0,-3.67875 1.85625,-5.83875 4.96125,-5.83875 1.51875,0 2.93625,0.6075 3.8475,1.6875 0.81,0.945 1.1475,2.2275 1.1475,4.15125 v 10.76625 h 2.4975 v -10.69875 c 0,-1.78875 0.27,-2.9025 0.8775,-3.81375 0.8775,-1.31625 2.43,-2.0925 4.185,-2.0925 1.62,0 3.0375,0.64125 3.88125,1.755 0.675,0.91125 1.0125,2.295 1.0125,4.15125 v 10.69875 h 2.4975 v -10.96875 c 0,-2.43 -0.43875,-3.9825 -1.485,-5.3325 -1.2825,-1.65375 -3.375,-2.59875 -5.77125,-2.59875 -2.86875,0 -4.86,1.08 -6.4125,3.54375 -1.45125,-2.4975 -3.24,-3.54375 -6.04125,-3.54375 -2.32875,0 -3.74625,0.70875 -5.1975,2.565 v -2.12625 h -2.4975 z"
           style="fill:#ffffff"
           id="path928" />
        <path
           d="m 327.43397,607.68567 c 0,-2.53125 -0.3375,-4.08375 -1.24875,-5.70375 -1.65375,-2.97 -4.86,-4.7925 -8.40375,-4.7925 -5.36625,0 -9.55125,4.21875 -9.55125,9.585 0,5.4675 4.28625,9.75375 9.75375,9.75375 4.01625,0 7.6275,-2.59875 8.9775,-6.51375 h -2.59875 c -1.04625,2.53125 -3.645,4.21875 -6.44625,4.21875 -3.81375,0 -6.98625,-2.9025 -7.18875,-6.5475 z m -16.63875,-2.26125 c 0.675,-3.54375 3.47625,-5.94 6.98625,-5.94 3.5775,0 6.2775,2.2275 7.155,5.94 z"
           style="fill:#ffffff"
           id="path930" />
        <path
           d="m 349.74271,591.14817 h -2.4975 v 9.41625 c -1.8225,-2.19375 -4.35375,-3.375 -7.25625,-3.375 -5.6025,0 -9.82125,4.185 -9.82125,9.72 0,5.4675 4.35375,9.61875 10.0575,9.61875 3.105,0 5.13,-1.11375 7.02,-3.78 v 3.34125 h 2.4975 z m -9.82125,8.33625 c 4.1175,0 7.425,3.27375 7.425,7.32375 0,4.08375 -3.24,7.425 -7.18875,7.425 -4.2525,0 -7.45875,-3.20625 -7.45875,-7.45875 0,-4.05 3.20625,-7.29 7.2225,-7.29 z"
           style="fill:#ffffff"
           id="path932" />
        <path
           d="m 353.99519,616.08942 h 2.4975 v -18.46125 h -2.4975 z m 0,-20.68875 h 2.4975 v -4.2525 h -2.4975 z"
           style="fill:#ffffff"
           id="path934" />
        <path
           d="m 379.5439,597.62817 h -2.4975 v 3.27375 c -1.85625,-2.565 -4.08375,-3.7125 -7.29,-3.7125 -5.535,0 -9.72,4.185 -9.72,9.72 0,5.535 4.21875,9.61875 9.9225,9.61875 3.13875,0 5.09625,-1.0125 7.0875,-3.67875 v 3.24 h 2.4975 z m -9.72,1.85625 c 4.08375,0 7.2225,3.1725 7.2225,7.29 0,4.21875 -3.105,7.45875 -7.0875,7.45875 -4.185,0 -7.39125,-3.27375 -7.39125,-7.4925 0,-4.01625 3.24,-7.25625 7.25625,-7.25625 z"
           style="fill:#ffffff"
           id="path936" />
        <path
           d="m 389.8038,616.08942 h 2.6325 l 7.7625,-18.46125 h -2.53125 l -6.615,15.525 -6.48,-15.525 h -2.53125 z"
           style="fill:#ffffff"
           id="path938" />
        <path
           d="m 420.65123,597.62817 h -2.4975 v 3.27375 c -1.85625,-2.565 -4.08375,-3.7125 -7.29,-3.7125 -5.535,0 -9.72,4.185 -9.72,9.72 0,5.535 4.21875,9.61875 9.9225,9.61875 3.13875,0 5.09625,-1.0125 7.0875,-3.67875 v 3.24 h 2.4975 z m -9.72,1.85625 c 4.08375,0 7.2225,3.1725 7.2225,7.29 0,4.21875 -3.105,7.45875 -7.0875,7.45875 -4.185,0 -7.39125,-3.27375 -7.39125,-7.4925 0,-4.01625 3.24,-7.25625 7.25625,-7.25625 z"
           style="fill:#ffffff"
           id="path940" />
        <path
           d="m 441.17117,597.62817 h -2.4975 v 9.48375 c 0,2.26125 -0.3375,3.67875 -1.11375,4.82625 -1.04625,1.485 -2.7,2.295 -4.6575,2.295 -2.05875,0 -3.78,-0.84375 -4.62375,-2.32875 -0.57375,-0.945 -0.8775,-2.43 -0.8775,-4.32 v -9.95625 h -2.4975 v 9.95625 c 0,2.7675 0.43875,4.62375 1.45125,6.0075 1.38375,1.92375 3.61125,2.93625 6.37875,2.93625 2.86875,0 4.69125,-1.0125 5.94,-3.3075 v 2.86875 h 2.4975 z"
           style="fill:#ffffff"
           id="path942" />
        <path
           d="m 445.42367,616.08942 h 2.4975 v -24.94125 h -2.4975 z"
           style="fill:#ffffff"
           id="path944" />
        <path
           d="m 454.43488,616.08942 h 2.4975 v -16.2 h 4.15125 v -2.26125 h -4.15125 v -6.48 h -2.4975 v 6.48 h -3.9825 v 2.26125 h 3.9825 z"
           style="fill:#ffffff"
           id="path946" />
      </g>
    </g>
  </g>
</svg>
