<?xml version="1.0" encoding="UTF-8" standalone="no"?>
<!-- Created with Inkscape (http://www.inkscape.org/) -->

<svg
   width="93.242828mm"
   height="11.853333mm"
   viewBox="0 0 330.38798 42"
   id="svg4578"
   version="1.1"
   inkscape:version="1.2.2 (b0a8486541, 2022-12-01)"
   sodipodi:docname="openmediavault_logo.svg"
   inkscape:export-filename="./header_logo.png"
   inkscape:export-xdpi="90"
   inkscape:export-ydpi="90"
   xmlns:inkscape="http://www.inkscape.org/namespaces/inkscape"
   xmlns:sodipodi="http://sodipodi.sourceforge.net/DTD/sodipodi-0.dtd"
   xmlns="http://www.w3.org/2000/svg"
   xmlns:svg="http://www.w3.org/2000/svg"
   xmlns:rdf="http://www.w3.org/1999/02/22-rdf-syntax-ns#"
   xmlns:cc="http://creativecommons.org/ns#"
   xmlns:dc="http://purl.org/dc/elements/1.1/">
  <title
     id="title4144">OpenMediaVault logo</title>
  <defs
     id="defs4580" />
  <sodipodi:namedview
     id="base"
     pagecolor="#98b7cf"
     bordercolor="#666666"
     borderopacity="1.0"
     inkscape:pageopacity="0"
     inkscape:pageshadow="2"
     inkscape:zoom="1.6616056"
     inkscape:cx="175.13181"
     inkscape:cy="2.1063963"
     inkscape:document-units="px"
     inkscape:current-layer="layer1"
     showgrid="false"
     inkscape:window-width="1536"
     inkscape:window-height="891"
     inkscape:window-x="0"
     inkscape:window-y="0"
     inkscape:window-maximized="1"
     fit-margin-top="0"
     fit-margin-left="0"
     fit-margin-right="0"
     fit-margin-bottom="0"
     inkscape:pagecheckerboard="0"
     inkscape:showpageshadow="2"
     inkscape:deskcolor="#98b7cf" />
  <metadata
     id="metadata4583">
    <rdf:RDF>
      <cc:Work
         rdf:about="">
        <dc:format>image/svg+xml</dc:format>
        <dc:type
           rdf:resource="http://purl.org/dc/dcmitype/StillImage" />
        <dc:title>OpenMediaVault logo</dc:title>
        <dc:creator>
          <cc:Agent>
            <dc:title>Volker Theile</dc:title>
          </cc:Agent>
        </dc:creator>
        <dc:rights>
          <cc:Agent>
            <dc:title>Volker Theile</dc:title>
          </cc:Agent>
        </dc:rights>
        <dc:date>15.09.2016</dc:date>
      </cc:Work>
    </rdf:RDF>
  </metadata>
  <g
     inkscape:label="Ebene 1"
     inkscape:groupmode="layer"
     id="layer1"
     transform="translate(-130.69566,-591.14819)">
    <text
       xml:space="preserve"
       style="font-size:37.5px;line-height:1.25;font-family:Quicksand;-inkscape-font-specification:Quicksand;word-spacing:0px;stroke-width:0.9375;font-weight:normal;font-style:normal;font-stretch:normal;font-variant:normal"
       x="447.0289"
       y="710.04016"
       id="text40459"><tspan
         sodipodi:role="line"
         style="font-style:normal;font-variant:normal;font-weight:normal;font-stretch:normal;font-family:Quicksand;-inkscape-font-specification:Quicksand;stroke-width:0.9375"
         x="447.0289"
         y="710.04016"
         id="tspan40463" /></text>
    <text
       xml:space="preserve"
       style="font-size:37.5px;line-height:1.25;font-family:'URW Gothic L';-inkscape-font-specification:'URW Gothic L';word-spacing:0px;stroke-width:0.9375;font-weight:normal;font-style:normal;font-stretch:normal;font-variant:normal"
       x="455.86417"
       y="749.50739"
       id="text56131"><tspan
         sodipodi:role="line"
         id="tspan56129"
         style="stroke-width:0.9375;-inkscape-font-specification:'URW Gothic L';font-family:'URW Gothic L';font-weight:normal;font-style:normal;font-stretch:normal;font-variant:normal"
         x="455.86417"
         y="749.50739" /></text>
    <text
       xml:space="preserve"
       style="font-size:37.5px;line-height:1.25;font-family:'URW Gothic';-inkscape-font-specification:'URW Gothic';word-spacing:0px;fill:#ffffff;stroke-width:0.9375"
       x="124.97013"
       y="1052.0934"
       id="text116929"><tspan
         sodipodi:role="line"
         id="tspan116927"
         style="fill:#ffffff;stroke-width:0.9375"
         x="124.97013"
         y="1052.0934" /></text>
    <text
       xml:space="preserve"
       style="font-size:37.5px;line-height:1.25;font-family:'URW Gothic';-inkscape-font-specification:'URW Gothic';word-spacing:0px;fill:#ffffff;stroke-width:0.9375"
       x="124.97013"
       y="1009.0087"
       id="text120923"><tspan
         sodipodi:role="line"
         id="tspan120921"
         style="fill:#ffffff;stroke-width:0.9375"
         x="124.97013"
         y="1009.0087" /></text>
    <text
       xml:space="preserve"
       style="font-size:37.5px;line-height:1.25;font-family:Quicksand;-inkscape-font-specification:Quicksand;word-spacing:0px;fill:#ffffff;stroke-width:0.9375;font-weight:normal;font-style:normal;font-stretch:normal;font-variant:normal"
       x="124.89512"
       y="1103.1797"
       id="text124143"><tspan
         sodipodi:role="line"
         id="tspan124141"
         style="fill:#ffffff;stroke-width:0.9375;-inkscape-font-specification:Quicksand;font-family:Quicksand;font-weight:normal;font-style:normal;font-stretch:normal;font-variant:normal"
         x="124.89512"
         y="1103.1797" /></text>
    <g
       id="g1367">
      <g
         id="g4192-6-1"
         transform="translate(0.01749016,-0.07139087)">
        <path
           id="rect3772-1-2-9-1-9-4-1"
           style="fill:none;stroke:#ffffff;stroke-width:2.03694"
           d="m 133.55328,592.18445 h 40.2165 c 1.02857,0 1.85663,0.82806 1.85663,1.85663 v 36.21419 c 0,1.02857 -0.82806,1.85663 -1.85663,1.85663 h -40.2165 c -1.02858,0 -1.85664,-0.82806 -1.85664,-1.85663 v -36.21419 c 0,-1.02857 0.82806,-1.85663 1.85664,-1.85663 z" />
        <g
           id="g4372-62-0"
           transform="translate(-26.507754,-88.860304)">
          <path
             inkscape:connector-curvature="0"
             id="path23-4-1-6-9-0-5-3"
             d="m 163.94765,686.42298 c -0.38058,0 -0.68819,0.2853 -0.68819,0.6388 v 7.0865 c 0,0.3535 0.30762,0.6392 0.68819,0.6392 h 32.44367 c 0.37849,0 0.68778,-0.2877 0.68778,-0.6392 v -7.0865 c 0,-0.3535 -0.3072,-0.6388 -0.68778,-0.6388 z m 3.93921,1.6958 a 2.4863311,2.4863311 0 0 1 2.48647,2.4865 2.4863311,2.4863311 0 0 1 -2.48647,2.4864 2.4863311,2.4863311 0 0 1 -2.48605,-2.4864 2.4863311,2.4863311 0 0 1 2.48605,-2.4865 z m 0,1.1881 a 1.29858,1.29858 0 0 0 -1.29836,1.2984 1.29858,1.29858 0 0 0 1.29836,1.2987 1.29858,1.29858 0 0 0 1.29878,-1.2987 1.29858,1.29858 0 0 0 -1.29878,-1.2984 z"
             style="fill:#ffffff;fill-opacity:1" />
          <path
             inkscape:connector-curvature="0"
             id="path23-4-1-8-7-5-8-4"
             d="m 163.94765,696.82628 c -0.38058,0 -0.68819,0.2853 -0.68819,0.6388 v 7.0865 c 0,0.3534 0.30762,0.6392 0.68819,0.6392 h 32.44367 c 0.37849,0 0.68778,-0.2877 0.68778,-0.6392 v -7.0865 c 0,-0.3535 -0.3072,-0.6388 -0.68778,-0.6388 z m 3.93921,1.6958 a 2.4863311,2.4863311 0 0 1 2.48647,2.4864 2.4863311,2.4863311 0 0 1 -2.48647,2.4865 2.4863311,2.4863311 0 0 1 -2.48605,-2.4865 2.4863311,2.4863311 0 0 1 2.48605,-2.4864 z m 0,1.1881 a 1.29858,1.29858 0 0 0 -1.29836,1.2983 1.29858,1.29858 0 0 0 1.29836,1.2988 1.29858,1.29858 0 0 0 1.29878,-1.2988 1.29858,1.29858 0 0 0 -1.29878,-1.2983 z"
             style="fill:#ffffff;fill-opacity:1" />
          <path
             inkscape:connector-curvature="0"
             id="path23-4-1-8-3-8-73-6-0"
             d="m 163.94765,707.22958 c -0.38058,0 -0.68819,0.2853 -0.68819,0.6388 v 7.0865 c 0,0.3534 0.30762,0.6391 0.68819,0.6391 h 32.44367 c 0.37849,0 0.68778,-0.2876 0.68778,-0.6391 v -7.0865 c 0,-0.3535 -0.3072,-0.6388 -0.68778,-0.6388 z m 3.93921,1.6957 a 2.4863311,2.4863311 0 0 1 2.48647,2.4865 2.4863311,2.4863311 0 0 1 -2.48647,2.4865 2.4863311,2.4863311 0 0 1 -2.48605,-2.4865 2.4863311,2.4863311 0 0 1 2.48605,-2.4865 z m 0,1.1881 a 1.29858,1.29858 0 0 0 -1.29836,1.2984 1.29858,1.29858 0 0 0 1.29836,1.2988 1.29858,1.29858 0 0 0 1.29878,-1.2988 1.29858,1.29858 0 0 0 -1.29878,-1.2984 z"
             style="fill:#ffffff;fill-opacity:1" />
        </g>
      </g>
      <g
         aria-label="openmediavault"
         id="text4052"
         style="font-size:33.75px;font-family:'TeX Gyre Adventor';-inkscape-font-specification:'TeX Gyre Adventor';fill:#ffffff;stroke-width:1.875">
        <path
           d="m 189.12604,606.74067 c 0,5.67 4.15125,9.7875 9.88875,9.7875 5.4,0 9.3825,-4.08375 9.3825,-9.61875 0,-5.63625 -4.05,-9.72 -9.585,-9.72 -5.4675,0 -9.68625,4.15125 -9.68625,9.55125 z m 2.53125,0.0675 c 0,-4.185 3.07125,-7.32375 7.155,-7.32375 4.05,0 7.05375,3.1725 7.05375,7.45875 0,4.21875 -2.9025,7.29 -6.91875,7.29 -4.2525,0 -7.29,-3.105 -7.29,-7.425 z"
           id="path1237" />
        <path
           d="m 211.94107,622.56942 h 2.4975 v -9.6525 c 1.62,2.3625 4.1175,3.61125 7.18875,3.61125 5.50125,0 9.7875,-4.21875 9.7875,-9.61875 0,-5.50125 -4.21875,-9.72 -9.72,-9.72 -3.13875,0 -5.70375,1.2825 -7.25625,3.61125 v -3.1725 h -2.4975 z m 2.32875,-15.795 c 0,-4.08375 3.24,-7.29 7.32375,-7.29 4.15125,0 7.29,3.1725 7.29,7.425 0,4.15125 -3.13875,7.32375 -7.25625,7.32375 -4.21875,0 -7.3575,-3.20625 -7.3575,-7.45875 z"
           id="path1239" />
        <path
           d="m 234.24979,606.77442 c 0,5.4675 4.28625,9.75375 9.75375,9.75375 4.185,0 7.79625,-3.00375 8.9775,-6.51375 h -2.59875 c -1.04625,2.53125 -3.645,4.21875 -6.44625,4.21875 -3.78,0 -6.98625,-2.9025 -7.18875,-6.5475 h 16.70625 c 0,-6.5475 -4.15125,-10.49625 -9.61875,-10.49625 -5.36625,0 -9.585,4.21875 -9.585,9.585 z m 2.565,-1.35 c 0.675,-3.54375 3.47625,-5.94 6.98625,-5.94 3.5775,0 6.31125,2.26125 7.155,5.94 z"
           id="path1241" />
        <path
           d="m 256.89603,616.08942 h 2.4975 v -10.15875 c 0,-4.5225 2.295,-6.44625 5.63625,-6.44625 3.40875,0 5.70375,1.89 5.70375,6.91875 v 9.68625 h 2.4975 v -9.68625 c 0,-6.48 -3.27375,-9.21375 -7.8975,-9.21375 -2.43,0 -4.3875,0.945 -5.94,2.835 v -2.39625 h -2.4975 z"
           id="path1243" />
        <path
           d="m 277.48355,616.08942 h 2.4975 v -10.76625 c 0,-3.67875 1.85625,-5.83875 4.96125,-5.83875 2.835,0 4.995,1.72125 4.995,5.83875 v 10.76625 h 2.4975 v -10.69875 c 0,-4.185 2.12625,-5.94 5.0625,-5.94 3.0375,0 4.89375,1.78875 4.89375,5.94 v 10.69875 h 2.4975 v -10.96875 c 0,-5.36625 -3.0375,-7.965 -7.25625,-7.965 -2.86875,0 -4.86,1.11375 -6.4125,3.5775 -1.45125,-2.46375 -3.27375,-3.54375 -6.04125,-3.54375 -2.32875,0 -3.78,0.70875 -5.1975,2.565 v -2.12625 h -2.4975 z"
           id="path1245" />
        <path
           d="m 308.43229,606.77442 c 0,5.4675 4.28625,9.75375 9.75375,9.75375 4.185,0 7.79625,-3.00375 8.9775,-6.51375 h -2.59875 c -1.04625,2.53125 -3.645,4.21875 -6.44625,4.21875 -3.78,0 -6.98625,-2.9025 -7.18875,-6.5475 h 16.70625 c 0,-6.5475 -4.15125,-10.49625 -9.61875,-10.49625 -5.36625,0 -9.585,4.21875 -9.585,9.585 z m 2.565,-1.35 c 0.675,-3.54375 3.47625,-5.94 6.98625,-5.94 3.5775,0 6.31125,2.26125 7.155,5.94 z"
           id="path1247" />
        <path
           d="m 330.36977,606.87567 c 0,5.4675 4.35375,9.6525 10.0575,9.6525 3.07125,0 5.16375,-1.11375 7.02,-3.78 v 3.34125 h 2.4975 v -24.94125 h -2.4975 v 9.41625 c -1.8225,-2.19375 -4.35375,-3.375 -7.25625,-3.375 -5.56875,0 -9.82125,4.185 -9.82125,9.68625 z m 2.53125,-0.10125 c 0,-4.05 3.20625,-7.29 7.2225,-7.29 4.08375,0 7.425,3.27375 7.425,7.32375 0,4.05 -3.24,7.425 -7.18875,7.425 -4.21875,0 -7.45875,-3.24 -7.45875,-7.45875 z"
           id="path1249" />
        <path
           d="m 354.19725,616.08942 h 2.4975 v -18.46125 h -2.4975 z m 0,-20.48625 h 2.4975 v -4.2525 h -2.4975 z"
           id="path1251" />
        <path
           d="m 360.23853,606.90942 c 0,5.50125 4.21875,9.61875 9.88875,9.61875 3.13875,0 5.16375,-1.04625 7.12125,-3.67875 v 3.24 h 2.4975 v -18.46125 h -2.4975 v 3.27375 c -1.8225,-2.565 -4.08375,-3.7125 -7.29,-3.7125 -5.535,0 -9.72,4.185 -9.72,9.72 z m 2.53125,-0.16875 c 0,-4.01625 3.24,-7.25625 7.25625,-7.25625 4.05,0 7.2225,3.1725 7.2225,7.29 0,4.185 -3.105,7.45875 -7.0875,7.45875 -4.185,0 -7.39125,-3.27375 -7.39125,-7.4925 z"
           id="path1253" />
        <path
           d="m 382.1423,597.62817 7.7625,18.46125 h 2.6325 l 7.7625,-18.46125 h -2.53125 l -6.615,15.525 -6.48,-15.525 z"
           id="path1255" />
        <path
           d="m 401.14359,606.90942 c 0,5.50125 4.21875,9.61875 9.88875,9.61875 3.13875,0 5.16375,-1.04625 7.12125,-3.67875 v 3.24 h 2.4975 v -18.46125 h -2.4975 v 3.27375 c -1.8225,-2.565 -4.08375,-3.7125 -7.29,-3.7125 -5.535,0 -9.72,4.185 -9.72,9.72 z m 2.53125,-0.16875 c 0,-4.01625 3.24,-7.25625 7.25625,-7.25625 4.05,0 7.2225,3.1725 7.2225,7.29 0,4.185 -3.105,7.45875 -7.0875,7.45875 -4.185,0 -7.39125,-3.27375 -7.39125,-7.4925 z"
           id="path1257" />
        <path
           d="m 424.90361,607.58442 c 0,6.44625 3.13875,8.94375 7.83,8.94375 2.86875,0 4.69125,-1.0125 5.94,-3.3075 v 2.86875 h 2.4975 v -18.46125 h -2.4975 v 9.48375 c 0,5.02875 -2.3625,7.12125 -5.7375,7.12125 -3.5775,0 -5.535,-1.9575 -5.535,-6.64875 v -9.95625 h -2.4975 z"
           id="path1259" />
        <path
           d="m 445.4236,616.08942 h 2.4975 v -24.94125 h -2.4975 z"
           id="path1261" />
        <path
           d="m 450.45238,599.88942 h 3.9825 v 16.2 h 2.4975 v -16.2 h 4.15125 v -2.26125 h -4.15125 v -6.48 h -2.4975 v 6.48 h -3.9825 z"
           id="path1263" />
      </g>
      <g
         aria-label="DATA | SOVEREIGNTY | MADE | EASY"
         id="text7165"
         style="font-size:12.5px;font-family:'TeX Gyre Adventor';-inkscape-font-specification:'TeX Gyre Adventor';fill:#ffffff;stroke-width:1.875">
        <path
           d="m 252.33367,631.64819 h 2.4875 c 3.6125,0 5.3125,-1.925 5.3125,-4.5875 0,-1.7375 -0.725,-3.1125 -2.1,-3.925 -0.875,-0.525 -1.85,-0.725 -3.525,-0.725 h -2.175 z m 0.925,-0.8375 v -7.5625 h 1.2875 c 1.4,0 2.275,0.175 2.975,0.6 1.0625,0.6375 1.675,1.8 1.675,3.175 0,1.2125 -0.475,2.275 -1.325,2.9625 -0.7375,0.5875 -1.6875,0.825 -3.325,0.825 z"
           id="path1266" />
        <path
           d="m 260.38366,631.64819 h 0.975 l 1.35,-3.1125 h 4.3 l 1.3375,3.1125 h 1.0125 l -3.975,-9.2375 h -1.0375 z m 2.675,-3.95 1.8125,-4.2375 1.775,4.2375 z"
           id="path1268" />
        <path
           d="m 268.95867,623.24819 h 2.1125 v 8.4 h 0.925 v -8.4 h 2.1125 v -0.8375 h -5.15 z"
           id="path1270" />
        <path
           d="m 273.70869,631.64819 h 0.975 l 1.35,-3.1125 h 4.3 l 1.3375,3.1125 h 1.0125 l -3.975,-9.2375 h -1.0375 z m 2.675,-3.95 1.8125,-4.2375 1.775,4.2375 z"
           id="path1272" />
        <path
           d="m 287.28369,633.52319 h 0.925 v -10 h -0.925 z"
           id="path1274" />
        <path
           d="m 292.94618,629.06069 c 0.0875,1.6625 1.225,2.75 2.8875,2.75 1.6,0 2.7875,-1.1625 2.7875,-2.7375 0,-0.8125 -0.3375,-1.5375 -0.925,-1.975 -0.375,-0.275 -0.7625,-0.45 -1.7125,-0.7375 -0.8375,-0.25 -1.125,-0.3625 -1.3625,-0.575 -0.2625,-0.225 -0.4375,-0.65 -0.4375,-1.075 0,-0.925 0.675,-1.6125 1.6,-1.6125 0.9375,0 1.65,0.65 1.65,1.65 h 0.9625 c 0,-1.5 -1.075,-2.5 -2.5875,-2.5 -1.4875,0 -2.5625,1.05 -2.5625,2.4875 0,0.6375 0.2375,1.25 0.65,1.6375 0.3625,0.35 0.65,0.4875 1.725,0.8125 1.5875,0.4875 2.0625,0.925 2.0625,1.9375 0,1.0625 -0.775,1.8375 -1.825,1.8375 -1.0375,0 -1.7875,-0.6625 -1.925,-1.9 z"
           id="path1276" />
        <path
           d="m 299.44618,626.97319 c 0,2.6875 2.175,4.8375 4.8875,4.8375 2.675,0 4.875,-2.1625 4.875,-4.775 0,-2.6375 -2.2,-4.7875 -4.875,-4.7875 -2.65,0 -4.8875,2.1625 -4.8875,4.725 z m 0.9375,0.025 c 0,-2.1125 1.8125,-3.9 3.95,-3.9 2.15,0 3.9375,1.7875 3.9375,3.95 0,2.1375 -1.7875,3.9125 -3.9375,3.9125 -2.175,0 -3.95,-1.775 -3.95,-3.9625 z"
           id="path1278" />
        <path
           d="m 309.38366,622.41069 3.8,9.2375 h 0.9 l 3.825,-9.2375 h -1 l -3.2625,8.0875 -3.25,-8.0875 z"
           id="path1280" />
        <path
           d="m 318.98365,631.64819 h 5.05 v -0.8375 h -4.125 v -3.4125 h 3.9875 v -0.8375 h -3.9875 v -3.3125 h 4.125 v -0.8375 h -5.05 z"
           id="path1282" />
        <path
           d="m 325.68364,631.64819 h 0.925 v -8.4 h 1.3 c 2.15,0 3.1,0.5625 3.1,2.1 0,1.6625 -0.875,2.1125 -3.4625,2.1125 l 3.1125,4.1875 h 1.15 l -2.5875,-3.45 c 1.775,-0.1875 2.725,-1.175 2.725,-2.8125 0,-1.925 -1.075,-2.975 -3.975,-2.975 h -2.2875 z"
           id="path1284" />
        <path
           d="m 333.27115,631.64819 h 5.05 v -0.8375 h -4.125 v -3.4125 h 3.9875 v -0.8375 h -3.9875 v -3.3125 h 4.125 v -0.8375 h -5.05 z"
           id="path1286" />
        <path
           d="m 339.97114,631.64819 h 0.925 v -9.2375 h -0.925 z"
           id="path1288" />
        <path
           d="m 342.39614,627.01069 c 0,2.7 2.2,4.8 5.025,4.8 2.7125,0 4.675,-2.1 4.8125,-4.425 h -6.275 v 0.8375 h 5.1625 c -0.3375,1.4625 -1.9125,2.7375 -3.7375,2.7375 -2.2625,0 -4.05,-1.725 -4.05,-3.925 0,-2.225 1.7625,-3.9375 4.0375,-3.9375 1.425,0 2.625,0.65 3.2625,1.775 h 1.0375 c -0.6125,-1.575 -2.3625,-2.625 -4.375,-2.625 -2.75,0 -4.9,2.0875 -4.9,4.7625 z"
           id="path1290" />
        <path
           d="m 353.69613,631.64819 h 0.925 v -8.125 l 5.5,8.125 h 0.925 v -9.2375 h -0.925 v 7.6625 l -5.175,-7.6625 h -1.25 z"
           id="path1292" />
        <path
           d="m 362.08363,623.24819 h 2.1125 v 8.4 h 0.925 v -8.4 h 2.1125 v -0.8375 h -5.15 z"
           id="path1294" />
        <path
           d="m 367.84615,622.41069 3.2,6.15 v 3.0875 h 0.925 v -3.0875 l 3.225,-6.15 h -1.0125 l -2.6875,5.175 -2.625,-5.175 z"
           id="path1296" />
        <path
           d="m 379.68367,633.52319 h 0.925 v -10 h -0.925 z"
           id="path1298" />
        <path
           d="m 386.02117,631.64819 h 0.925 v -8.225 l 3.4625,8.225 h 0.8 l 3.475,-8.225 v 8.225 h 0.925 v -9.2375 h -1.4375 l -3.35,7.8625 -3.3625,-7.8625 h -1.4375 z"
           id="path1300" />
        <path
           d="m 396.69617,631.64819 h 0.975 l 1.35,-3.1125 h 4.3 l 1.3375,3.1125 h 1.0125 l -3.975,-9.2375 h -1.0375 z m 2.675,-3.95 1.8125,-4.2375 1.775,4.2375 z"
           id="path1302" />
        <path
           d="m 406.75867,631.64819 h 2.4875 c 3.6125,0 5.3125,-1.925 5.3125,-4.5875 0,-1.7375 -0.725,-3.1125 -2.1,-3.925 -0.875,-0.525 -1.85,-0.725 -3.525,-0.725 h -2.175 z m 0.925,-0.8375 v -7.5625 h 1.2875 c 1.4,0 2.275,0.175 2.975,0.6 1.0625,0.6375 1.675,1.8 1.675,3.175 0,1.2125 -0.475,2.275 -1.325,2.9625 -0.7375,0.5875 -1.6875,0.825 -3.325,0.825 z"
           id="path1304" />
        <path
           d="m 416.05866,631.64819 h 5.05 v -0.8375 h -4.125 v -3.4125 h 3.9875 v -0.8375 h -3.9875 v -3.3125 h 4.125 v -0.8375 h -5.05 z"
           id="path1306" />
        <path
           d="m 426.27116,633.52319 h 0.925 v -10 h -0.925 z"
           id="path1308" />
        <path
           d="m 432.60866,631.64819 h 5.05 v -0.8375 h -4.125 v -3.4125 h 3.9875 v -0.8375 h -3.9875 v -3.3125 h 4.125 v -0.8375 h -5.05 z"
           id="path1310" />
        <path
           d="m 438.49614,631.64819 h 0.975 l 1.35,-3.1125 h 4.3 l 1.3375,3.1125 h 1.0125 l -3.975,-9.2375 h -1.0375 z m 2.675,-3.95 1.8125,-4.2375 1.775,4.2375 z"
           id="path1312" />
        <path
           d="m 447.88364,629.06069 c 0.0875,1.6625 1.225,2.75 2.8875,2.75 1.6,0 2.7875,-1.1625 2.7875,-2.7375 0,-0.8125 -0.3375,-1.5375 -0.925,-1.975 -0.375,-0.275 -0.7625,-0.45 -1.7125,-0.7375 -0.8375,-0.25 -1.125,-0.3625 -1.3625,-0.575 -0.2625,-0.225 -0.4375,-0.65 -0.4375,-1.075 0,-0.925 0.675,-1.6125 1.6,-1.6125 0.9375,0 1.65,0.65 1.65,1.65 h 0.9625 c 0,-1.5 -1.075,-2.5 -2.5875,-2.5 -1.4875,0 -2.5625,1.05 -2.5625,2.4875 0,0.6375 0.2375,1.25 0.65,1.6375 0.3625,0.35 0.65,0.4875 1.725,0.8125 1.5875,0.4875 2.0625,0.925 2.0625,1.9375 0,1.0625 -0.775,1.8375 -1.825,1.8375 -1.0375,0 -1.7875,-0.6625 -1.925,-1.9 z"
           id="path1314" />
        <path
           d="m 453.73363,622.41069 3.2,6.15 v 3.0875 h 0.925 v -3.0875 l 3.225,-6.15 h -1.0125 l -2.6875,5.175 -2.625,-5.175 z"
           id="path1316" />
      </g>
    </g>
  </g>
</svg>
