<?xml version="1.0" encoding="utf-8"?> <!-- Generator: IcoMoon.io --> <!DOCTYPE svg PUBLIC "-//W3C//DTD SVG 1.1//EN" "http://www.w3.org/Graphics/SVG/1.1/DTD/svg11.dtd"> <svg width="512" height="512" viewBox="0 0 512 512" xmlns="http://www.w3.org/2000/svg" xmlns:xlink="http://www.w3.org/1999/xlink" fill="#000000"><path d="M 373.333,112c0,14.72, 11.947,26.667, 26.667,26.667s 26.667-11.947, 26.667-26.667S 414.72,85.333, 400,85.333 S 373.333,97.28, 373.333,112z M 373.333,282.667c0,14.72, 11.947,26.667, 26.667,26.667s 26.667-11.947, 26.667-26.667S 414.72,256, 400,256S 373.333,267.947, 373.333,282.667z M0,352c0,23.573, 19.093,42.667, 42.667,42.667 l 181.333,0 l0,29.44 c-5.227,3.52-9.707,8-13.227,13.227L 80,437.333 C 65.28,437.333, 53.333,449.28, 53.333,464S 65.28,490.667, 80,490.667l 130.773,0 c 8.64,12.907, 23.253,21.333, 39.893,21.333 s 31.253-8.427, 39.893-21.333L 432,490.667 c 14.72,0, 26.667-11.947, 26.667-26.667S 446.72,437.333, 432,437.333L 290.56,437.333 c-3.52-5.227-8-9.707-13.227-13.227L 277.333,394.667 l 192,0 c 23.573,0, 42.667-19.093, 42.667-42.667L 512,42.667 c0-23.573-19.093-42.667-42.667-42.667L 42.667,0 C 19.093,0,0,19.093,0,42.667L0,352 z M 76.8,53.333l 358.4,0 C 448.213,53.333, 458.667,63.787, 458.667,76.8l0,70.4 c0,13.013-10.453,23.467-23.467,23.467L 76.8,170.667 C 63.787,170.667, 53.333,160.213, 53.333,147.2L 53.333,76.8 C 53.333,63.787, 63.787,53.333, 76.8,53.333z M 76.8,224l 358.4,0 c 13.013,0, 23.467,10.453, 23.467,23.467l0,70.4 c0,13.013-10.453,23.467-23.467,23.467L 76.8,341.333 C 63.787,341.333, 53.333,330.88, 53.333,317.867l0-70.4 C 53.333,234.453, 63.787,224, 76.8,224z" ></path></svg>